<?xml version="1.0" encoding="iso-8859-1"?>
<!-- Uploaded to: SVG Repo, www.svgrepo.com, Generator: SVG Repo Mixer Tools -->
<!DOCTYPE svg PUBLIC "-//W3C//DTD SVG 1.1//EN" "http://www.w3.org/Graphics/SVG/1.1/DTD/svg11.dtd">
<svg fill="#000000" height="800px" width="800px" version="1.1" id="Capa_1" xmlns="http://www.w3.org/2000/svg" xmlns:xlink="http://www.w3.org/1999/xlink" 
	 viewBox="0 0 469.972 469.972" xml:space="preserve">
<g>
	<path d="M467.712,301.552c-3.648-11.226-11.45-20.596-21.714-26.247c-2.204-11.509-8.705-21.825-18.254-28.763
		c-3.57-2.594-7.431-4.634-11.488-6.101c1.844-10.522,2.793-21.245,2.793-31.977c0-101.493-82.57-184.063-184.062-184.063
		c-101.493,0-184.063,82.57-184.063,184.063c0,10.729,0.948,21.453,2.793,31.978c-4.057,1.467-7.917,3.507-11.487,6.101
		c-9.549,6.938-16.05,17.254-18.254,28.763c-10.264,5.651-18.065,15.021-21.714,26.248c-3.647,11.226-2.843,23.393,2.14,33.998
		c-4.982,10.606-5.787,22.773-2.14,33.999c3.648,11.226,11.45,20.596,21.714,26.248c2.204,11.508,8.705,21.824,18.254,28.762
		c7.959,5.782,17.354,8.839,27.17,8.839c1.945,0,3.893-0.123,5.825-0.367c8.548,8.015,19.87,12.54,31.673,12.54
		c25.532,0,46.304-20.771,46.304-46.303V271.834c0-25.532-20.771-46.303-46.304-46.303c-3.32,0-6.598,0.37-9.79,1.063
		c-0.78-6-1.183-12.068-1.183-18.13c0-76.68,62.384-139.063,139.063-139.063s139.062,62.384,139.062,139.063
		c0,6.065-0.403,12.133-1.183,18.13c-3.192-0.693-6.471-1.063-9.79-1.063c-25.532,0-46.304,20.771-46.304,46.303v127.435
		c0,25.532,20.771,46.303,46.304,46.303c11.803,0,23.125-4.524,31.673-12.54c1.933,0.244,3.88,0.367,5.825,0.367
		c9.816,0,19.212-3.057,27.17-8.839c9.549-6.938,16.05-17.254,18.254-28.762c10.264-5.652,18.065-15.022,21.714-26.249
		c3.647-11.226,2.843-23.392-2.14-33.998C470.554,324.946,471.359,312.779,467.712,301.552z M138.2,271.834v127.435
		c0,17.261-14.043,31.303-31.304,31.303c-8.95,0-17.493-3.852-23.44-10.568c-1.44-1.627-3.493-2.528-5.615-2.528
		c-0.539,0-1.082,0.058-1.621,0.177c-2.237,0.495-4.532,0.747-6.821,0.747c-6.627,0-12.974-2.066-18.354-5.975
		c-7.24-5.26-11.888-13.398-12.752-22.328c-0.262-2.712-1.974-5.068-4.472-6.155c-8.225-3.58-14.528-10.515-17.295-19.027
		c-2.766-8.512-1.741-17.828,2.809-25.559c1.382-2.348,1.382-5.261,0-7.608c-4.551-7.731-5.574-17.047-2.809-25.559
		c2.767-8.512,9.07-15.447,17.295-19.027c2.498-1.087,4.21-3.443,4.472-6.155c0.864-8.929,5.512-17.068,12.752-22.328
		c5.379-3.909,11.726-5.974,18.354-5.974c2.288,0,4.583,0.251,6.821,0.746c2.658,0.589,5.429-0.311,7.235-2.351
		c5.947-6.716,14.49-10.568,23.44-10.568C124.157,240.531,138.2,254.573,138.2,271.834z M234.986,54.4
		c-84.951,0-154.063,69.113-154.063,154.063c0,7.991,0.63,15.996,1.853,23.87c-2.69,1.643-5.227,3.555-7.552,5.736
		c-1.933-0.244-3.88-0.366-5.824-0.366c-0.312,0-0.622,0.012-0.933,0.018c-1.679-9.628-2.544-19.439-2.544-29.258
		c0-93.222,75.842-169.063,169.063-169.063s169.062,75.842,169.062,169.063c0,9.821-0.864,19.632-2.543,29.258
		c-0.311-0.006-0.621-0.018-0.932-0.018c-1.944,0-3.892,0.123-5.824,0.366c-2.326-2.181-4.862-4.093-7.552-5.736
		c1.223-7.871,1.852-15.875,1.852-23.871C389.048,123.513,319.936,54.4,234.986,54.4z M450.637,339.355
		c4.55,7.731,5.574,17.047,2.809,25.559c-2.767,8.512-9.07,15.448-17.295,19.027c-2.498,1.087-4.21,3.443-4.472,6.155
		c-0.864,8.929-5.512,17.067-12.752,22.328c-5.379,3.908-11.726,5.974-18.354,5.975c-2.287,0-4.583-0.251-6.82-0.747
		c-2.661-0.587-5.43,0.312-7.236,2.351c-5.947,6.716-14.49,10.568-23.44,10.568c-17.261,0-31.304-14.042-31.304-31.303V271.834
		c0-17.261,14.043-31.303,31.304-31.303c8.95,0,17.493,3.852,23.44,10.568c1.806,2.04,4.574,2.94,7.235,2.351
		c2.238-0.495,4.533-0.746,6.821-0.746c6.629,0,12.976,2.065,18.354,5.974c7.24,5.26,11.888,13.399,12.752,22.328
		c0.262,2.712,1.974,5.068,4.472,6.155c8.225,3.58,14.528,10.515,17.295,19.026c2.766,8.512,1.742,17.828-2.809,25.559
		C449.255,334.094,449.255,337.007,450.637,339.355z"/>
	<path d="M382.325,357.268c-4.411,0-8,3.589-8,8s3.589,8,8,8s8-3.589,8-8S386.736,357.268,382.325,357.268z"/>
	<path d="M52.325,317.268c-4.411,0-8,3.589-8,8s3.589,8,8,8s8-3.589,8-8S56.736,317.268,52.325,317.268z"/>
	<path d="M74.325,295.268c0,4.411,3.589,8,8,8s8-3.589,8-8s-3.589-8-8-8S74.325,290.857,74.325,295.268z"/>
</g>
</svg>