<svg width="600" height="600" viewBox="0 0 600 600" fill="none" xmlns="http://www.w3.org/2000/svg">
<g clip-path="url(#clip0_1393_339)">
<path d="M82.7441 284.899V355.852C71.5959 355.852 62.5332 346.791 62.5332 335.61V305.125C62.5332 293.96 71.5806 284.884 82.7441 284.884V284.899Z" fill="#37324C" stroke="#231F20" stroke-width="2" stroke-miterlimit="10"/>
<path d="M121.111 239.486H100.823C98.9771 239.486 97.4805 240.985 97.4805 242.834V257.009C97.4805 258.858 98.9771 260.357 100.823 260.357H121.111C122.957 260.357 124.454 258.858 124.454 257.009V242.834C124.454 240.985 122.957 239.486 121.111 239.486Z" fill="#CECECE" stroke="#231F20" stroke-width="2" stroke-linejoin="round"/>
<path d="M126.494 252.709H93.8464C92.0001 252.709 90.5034 254.208 90.5034 256.057V270.232C90.5034 272.081 92.0001 273.58 93.8464 273.58H126.494C128.34 273.58 129.837 272.081 129.837 270.232V256.057C129.837 254.208 128.34 252.709 126.494 252.709Z" fill="#CECECE" stroke="#231F20" stroke-width="2" stroke-linejoin="round"/>
<path d="M83.695 268.574H121.387C122.967 268.574 124.255 269.864 124.255 271.446V369.29C124.255 370.872 122.967 372.162 121.387 372.162H83.695C77.6072 372.162 72.6694 367.216 72.6694 361.119V279.601C72.6694 273.504 77.6072 268.558 83.695 268.558V268.574Z" fill="#CECECE" stroke="#231F20" stroke-width="2" stroke-linejoin="round"/>
<path d="M155.246 271.568C155.246 262.993 148.305 256.042 139.743 256.042C131.181 256.042 124.24 262.993 124.24 271.568V369.197C124.24 377.773 131.181 384.724 139.743 384.724C148.305 384.724 155.246 377.773 155.246 369.197V271.568Z" fill="#37324C" stroke="#231F20" stroke-width="2" stroke-miterlimit="10"/>
<path d="M147.609 373.313C139.911 373.313 133.64 367.032 133.64 359.323V261.694C133.64 260.496 133.808 259.328 134.1 258.223C129.331 260.45 126.003 265.287 126.003 270.893V368.522C126.003 376.231 132.275 382.513 139.973 382.513C146.475 382.513 151.934 378.028 153.482 371.993C151.688 372.822 149.71 373.313 147.609 373.313Z" fill="#28253A"/>
<path d="M140.724 303.728H131.401V296.786H140.724C142.641 296.786 144.19 298.337 144.19 300.257C144.19 302.176 142.641 303.728 140.724 303.728Z" fill="#28253A"/>
<path d="M140.724 320.375H131.401V313.434H140.724C142.641 313.434 144.19 314.985 144.19 316.904C144.19 318.824 142.641 320.375 140.724 320.375Z" fill="#28253A"/>
<path d="M140.724 350.292H131.401V343.351H140.724C142.641 343.351 144.19 344.902 144.19 346.821C144.19 348.741 142.641 350.292 140.724 350.292Z" fill="#28253A"/>
<path d="M94.046 274.164H85.6733" stroke="#231F20" stroke-width="2" stroke-miterlimit="10"/>
<path d="M118.014 274.164H101.851" stroke="#231F20" stroke-width="2" stroke-miterlimit="10"/>
<path d="M118.014 281.674V330.127" stroke="#231F20" stroke-width="2" stroke-miterlimit="10"/>
<path d="M118.014 345.562V337.177H100.395" stroke="#231F20" stroke-width="2" stroke-miterlimit="10"/>
<path d="M118.014 351.628V362.333" stroke="#231F20" stroke-width="2" stroke-miterlimit="10"/>
<path d="M94.046 337.177H85.6733" stroke="#231F20" stroke-width="2" stroke-miterlimit="10"/>
<path d="M477.041 355.852V284.899C487.898 284.899 496.715 293.73 496.715 304.603V336.163C496.715 347.036 487.898 355.867 477.041 355.867V355.852Z" fill="#37324C" stroke="#231F20" stroke-width="1.97" stroke-miterlimit="10"/>
<path d="M439.732 260.373H459.391C461.212 260.373 462.688 258.894 462.688 257.071V242.803C462.688 240.98 461.212 239.501 459.391 239.501H439.732C437.911 239.501 436.435 240.98 436.435 242.803V257.071C436.435 258.894 437.911 260.373 439.732 260.373Z" fill="#CECECE" stroke="#231F20" stroke-width="1.97" stroke-linejoin="round"/>
<path d="M434.488 273.58H466.185C468.005 273.58 469.481 272.102 469.481 270.278V256.011C469.481 254.187 468.005 252.709 466.185 252.709H434.488C432.667 252.709 431.191 254.187 431.191 256.011V270.278C431.191 272.102 432.667 273.58 434.488 273.58Z" fill="#CECECE" stroke="#231F20" stroke-width="1.97" stroke-linejoin="round"/>
<path d="M475.983 372.177H439.472C437.907 372.177 436.635 370.902 436.635 369.336V271.415C436.635 269.848 437.907 268.574 439.472 268.574H475.983C481.994 268.574 486.871 273.457 486.871 279.478V361.288C486.871 367.308 481.994 372.192 475.983 372.192V372.177Z" fill="#CECECE" stroke="#231F20" stroke-width="1.97" stroke-linejoin="round"/>
<path d="M406.471 369.597C406.471 377.943 413.227 384.709 421.561 384.709C429.894 384.709 436.65 377.943 436.65 369.597V271.138C436.65 262.792 429.894 256.026 421.561 256.026C413.227 256.026 406.471 262.792 406.471 271.138V369.597Z" fill="#37324C" stroke="#231F20" stroke-width="1.97" stroke-miterlimit="10"/>
<path d="M413.894 373.313C421.392 373.313 427.495 367.032 427.495 359.322V261.693C427.495 260.495 427.327 259.328 427.051 258.222C431.697 260.449 434.933 265.287 434.933 270.893V368.522C434.933 376.231 428.829 382.512 421.331 382.512C414.998 382.512 409.677 378.028 408.174 371.992C409.922 372.822 411.854 373.313 413.894 373.313Z" fill="#28253A"/>
<path d="M420.656 296.771H429.688V303.712H420.656C418.77 303.712 417.236 302.176 417.236 300.287V300.195C417.236 298.306 418.77 296.771 420.656 296.771Z" fill="#28253A"/>
<path d="M420.656 313.434H429.688V320.375H420.656C418.77 320.375 417.236 318.84 417.236 316.951V316.858C417.236 314.969 418.77 313.434 420.656 313.434Z" fill="#28253A"/>
<path d="M420.656 343.35H429.688V350.292H420.656C418.77 350.292 417.236 348.756 417.236 346.867V346.775C417.236 344.886 418.77 343.35 420.656 343.35Z" fill="#28253A"/>
<path d="M466.046 274.164H474.189" stroke="#231F20" stroke-width="1.97" stroke-miterlimit="10"/>
<path d="M442.707 274.164H458.456" stroke="#231F20" stroke-width="1.97" stroke-miterlimit="10"/>
<path d="M442.707 281.674V330.127" stroke="#231F20" stroke-width="1.97" stroke-miterlimit="10"/>
<path d="M442.707 345.562V337.177H459.851" stroke="#231F20" stroke-width="1.97" stroke-miterlimit="10"/>
<path d="M442.707 351.628V362.333" stroke="#231F20" stroke-width="1.97" stroke-miterlimit="10"/>
<path d="M466.046 337.177H474.189" stroke="#231F20" stroke-width="1.97" stroke-miterlimit="10"/>
<path d="M105.577 239.486V239.44C105.577 145.466 181.913 69 275.76 69H283.995C377.842 69 454.178 145.466 454.178 239.44H444.977C444.977 150.534 372.766 78.2146 283.995 78.2146H275.76C186.988 78.2146 114.778 150.534 114.778 239.44L105.577 239.486Z" fill="#37324C" stroke="#231F20" stroke-width="2" stroke-linejoin="round"/>
</g>
<defs>
<clipPath id="clip0_1393_339">
<rect width="600" height="600" fill="white"/>
</clipPath>
</defs>
</svg>
