<svg width="600" height="600" viewBox="0 0 600 600" fill="none" xmlns="http://www.w3.org/2000/svg">
<g clip-path="url(#clip0_1396_447)">
<g clip-path="url(#clip1_1396_447)">
<path d="M434.787 272.265C433.321 284.943 362.187 298.07 275.056 301.488C187.951 304.914 118.324 285.936 121.28 259.312C124.271 232.687 197.452 219.844 282.991 230.357C368.571 240.869 436.152 259.579 434.787 272.273V272.265Z" fill="#CECECE" stroke="#221F20" stroke-width="2.83" stroke-miterlimit="10" stroke-linecap="round"/>
<path d="M431.451 106.725C427.829 114.379 381.67 101.945 328.072 78.8487C274.483 55.7603 235.45 26.7422 241.371 14.198C247.293 1.66155 294.051 14.3161 345.332 42.2868C396.63 70.2653 435.057 99.0628 431.451 106.725Z" fill="#558CE5" stroke="#221F20" stroke-width="2.83" stroke-miterlimit="10" stroke-linecap="round"/>
<path d="M401.313 184.495C401.338 181.211 401.397 177.919 401.481 174.612C403.023 172.636 404.572 170.683 406.131 168.745C413.4 146.279 422.228 124.238 432.563 102.756C433.237 102.417 433.717 101.961 433.995 101.402C437.684 93.779 399.645 64.4066 348.734 35.6878C297.841 6.9848 251.285 -6.32333 245.212 6.16583C245.195 6.15796 245.187 6.15796 245.212 6.16583C221.762 54.4373 203.399 104.622 190.309 156.004C189.778 160.8 189.29 165.588 188.852 170.375C186.797 176.203 184.809 182.061 182.88 187.96C178.323 209.615 174.701 231.459 172.014 253.429C172.022 253.429 172.031 253.429 172.047 253.429C171.769 266.824 218.342 278.014 276.724 278.604C335.973 279.187 384.592 272.887 385.62 264.588C385.696 263.973 385.527 263.359 385.14 262.729C388.484 236.294 393.892 210.15 401.296 184.503L401.313 184.495Z" fill="#CECECE"/>
<path d="M245.212 6.16583C251.285 -6.32333 297.841 6.9848 348.734 35.6878C399.645 64.4066 437.684 93.779 433.995 101.402C433.717 101.961 433.237 102.417 432.563 102.756C422.228 124.238 413.4 146.279 406.131 168.745C404.572 170.683 403.023 172.636 401.481 174.612C401.397 177.919 401.338 181.211 401.313 184.495L401.296 184.503C393.892 210.15 388.484 236.294 385.14 262.729C385.527 263.359 385.696 263.973 385.62 264.588C384.592 272.887 335.973 279.187 276.724 278.604C218.342 278.014 171.769 266.824 172.047 253.429C172.031 253.429 172.022 253.429 172.014 253.429C174.701 231.459 178.323 209.615 182.88 187.96C184.809 182.061 186.797 176.203 188.852 170.375C189.29 165.588 189.778 160.8 190.309 156.004C203.399 104.622 221.762 54.4373 245.212 6.16583ZM245.212 6.16583C245.187 6.15796 245.195 6.15796 245.212 6.16583Z" stroke="#221F20" stroke-width="2.83" stroke-miterlimit="10" stroke-linecap="round"/>
<path d="M251.858 21.7891C250.797 20.5922 249.837 19.4267 249.003 18.3085C245.238 13.2294 243.89 8.89833 245.389 5.8036C251.463 -6.68556 298.01 6.64619 348.895 35.3965C399.78 64.1467 437.811 93.5427 434.113 101.173C431.637 106.252 411.943 102.26 383.868 92.8104" stroke="#221F20" stroke-width="2.83" stroke-miterlimit="10" stroke-linecap="round"/>
<path d="M354.193 81.715C346.747 78.6912 339.039 75.3838 331.189 71.793C304.066 59.4141 280.573 45.9485 265.024 33.7743" stroke="#221F20" stroke-width="2.83" stroke-miterlimit="10" stroke-linecap="round"/>
<path d="M394.473 211.993C386.808 218.316 341.086 217.891 287.026 210.103C234.995 202.567 193.426 187.92 187.563 175.092C186.013 179.565 184.514 184.054 183.04 188.566C178.5 210.213 174.895 232.05 172.233 254.012C172.241 254.012 172.25 254.012 172.267 254.012C172.005 267.407 218.578 278.541 276.977 279.077C336.226 279.604 384.845 273.265 385.873 264.973C385.949 264.359 385.78 263.745 385.393 263.123C387.558 245.94 390.59 228.876 394.473 212.001V211.993Z" fill="#FFBD29" stroke="#221F20" stroke-width="2.83" stroke-miterlimit="10" stroke-linecap="round"/>
<path opacity="0.5" d="M272.984 37.9163C256.895 26.8052 246.568 16.4186 244.74 9.22907C244.53 8.42586 243.603 8.57547 243.165 9.48893C220.582 56.5556 202.818 105.418 190.048 155.422C189.509 160.217 189.02 165.013 188.574 169.801C186.51 175.628 184.522 181.494 182.593 187.393C178.02 209.064 174.381 230.916 171.677 252.894C171.685 252.894 171.702 252.894 171.71 252.894C171.567 260.233 186.123 267.352 209.278 271.942C217.272 191.283 238.768 112.308 272.984 37.9163Z" fill="#221F20"/>
</g>
</g>
<defs>
<clipPath id="clip0_1396_447">
<rect width="600" height="600" fill="white"/>
</clipPath>
<clipPath id="clip1_1396_447">
<rect width="316" height="303" fill="white" transform="translate(120)"/>
</clipPath>
</defs>
</svg>
