<svg width="600" height="600" viewBox="0 0 600 600" fill="none" xmlns="http://www.w3.org/2000/svg">
<g clip-path="url(#clip0_1620_389)">
<path d="M111.071 268.654C111.071 264.216 107.473 260.618 103.035 260.618C98.5975 260.618 95 264.216 95 268.654V290.349C95 294.787 98.5975 298.384 103.035 298.384C107.473 298.384 111.071 294.787 111.071 290.349V268.654Z" fill="#F0F0F1" stroke="#221F20" stroke-width="2.83" stroke-miterlimit="10" stroke-linecap="round"/>
<path d="M467.035 268.654C467.035 264.216 463.437 260.618 459 260.618C454.562 260.618 450.964 264.216 450.964 268.654V290.349C450.964 294.787 454.562 298.384 459 298.384C463.437 298.384 467.035 294.787 467.035 290.349V268.654Z" fill="#F0F0F1" stroke="#221F20" stroke-width="2.83" stroke-miterlimit="10" stroke-linecap="round"/>
<path d="M329.823 106.662C326.256 98.956 317.337 93.492 306.883 93.492H253.528C243.074 93.492 234.155 98.956 230.587 106.662C157.345 124.629 103.838 181.358 103.838 248.565V408.669C103.838 413.096 106.386 417.251 110.684 419.814L128.153 430.26C133.706 433.578 141.13 433.659 146.779 430.461L165.646 419.782C170.146 417.235 172.846 412.984 172.846 408.428V369.248C172.846 365.495 171.006 361.903 167.759 359.316L153.103 347.641C142.456 339.164 136.422 327.384 136.422 315.074V315.058C136.422 292.687 156.06 273.732 182.48 270.574C247.293 262.836 313.102 262.844 377.923 270.59C404.335 273.748 423.973 292.703 423.973 315.066C423.973 327.376 417.947 339.156 407.292 347.633L392.635 359.308C389.389 361.895 387.549 365.487 387.549 369.24V408.42C387.549 412.968 390.249 417.227 394.749 419.774L413.616 430.453C419.264 433.651 426.689 433.57 432.241 430.252L449.71 419.806C454.009 417.235 456.556 413.08 456.556 408.661V248.557C456.556 181.342 403.057 124.621 329.807 106.646L329.823 106.662Z" fill="#2E3941" stroke="#221F20" stroke-width="2.83" stroke-miterlimit="10" stroke-linecap="round"/>
<path d="M329.021 105.858C325.453 98.1525 316.534 92.6885 306.08 92.6885H252.726C242.272 92.6885 233.353 98.1525 229.785 105.858C200.794 112.97 174.904 126.156 154.197 143.656C164.554 200.563 233.754 244.548 317.579 244.548C369.873 244.548 416.469 227.425 446.642 200.731C428.394 155.115 384.344 119.422 329.013 105.85L329.021 105.858Z" fill="#374254" stroke="#221F20" stroke-width="2.83" stroke-miterlimit="10" stroke-linecap="round"/>
<path d="M350.837 458.327H212.469C192.084 458.327 174.293 447.062 168.195 430.3L113.209 279.019C111.843 275.267 113.779 271.121 117.532 269.755C121.284 268.397 125.431 270.325 126.797 274.078L181.782 425.358C185.744 436.254 198.359 443.864 212.461 443.864H350.829C365.019 443.864 377.659 436.19 381.564 425.206L435.778 272.631C437.12 268.871 441.25 266.902 445.011 268.236C448.772 269.57 450.74 273.708 449.406 277.469L395.192 430.043C389.182 446.957 371.351 458.319 350.829 458.319L350.837 458.327Z" fill="#D1461C" stroke="#221F20" stroke-width="4" stroke-miterlimit="10"/>
<path d="M435.006 365.062H409.092C405.099 365.062 401.861 361.823 401.861 357.83V344.089H158.961V357.83C158.961 361.823 155.723 365.062 151.729 365.062H127.599C123.606 365.062 120.368 361.823 120.368 357.83C120.368 353.836 123.606 350.598 127.599 350.598H144.498V336.858C144.498 332.864 147.736 329.626 151.729 329.626H409.084C413.078 329.626 416.316 332.864 416.316 336.858V350.598H434.998C438.992 350.598 442.23 353.836 442.23 357.83C442.23 361.823 438.992 365.062 434.998 365.062H435.006Z" fill="#D1461C" stroke="#221F20" stroke-width="4" stroke-miterlimit="10"/>
<path d="M427.405 415.25H136.985C135.289 415.25 133.642 414.655 132.34 413.562L118.938 402.329C115.876 399.766 115.474 395.202 118.038 392.14C120.601 389.079 125.165 388.677 128.226 391.24L139.612 400.786H424.93L434.597 393.305C437.755 390.863 442.295 391.441 444.745 394.599C447.188 397.757 446.609 402.297 443.452 404.748L431.833 413.739C430.563 414.72 429.012 415.25 427.405 415.25Z" fill="#D1461C" stroke="#221F20" stroke-width="4" stroke-miterlimit="10"/>
<path d="M246.9 457.202C244.015 457.202 241.291 455.467 240.174 452.622L195.498 339.501C194.027 335.789 195.851 331.586 199.564 330.116C203.276 328.645 207.479 330.469 208.949 334.182L253.625 447.303C255.096 451.015 253.272 455.217 249.559 456.688C248.692 457.033 247.792 457.194 246.908 457.194L246.9 457.202Z" fill="#D1461C" stroke="#221F20" stroke-width="4" stroke-miterlimit="10"/>
<path d="M315.707 457.202C314.823 457.202 313.923 457.042 313.055 456.696C309.343 455.226 307.519 451.031 308.989 447.311L353.665 334.19C355.136 330.477 359.33 328.653 363.051 330.124C366.763 331.594 368.587 335.789 367.117 339.509L322.44 452.63C321.315 455.475 318.591 457.21 315.715 457.21L315.707 457.202Z" fill="#D1461C" stroke="#221F20" stroke-width="4" stroke-miterlimit="10"/>
<path d="M127.326 361.574H117.901C113.84 361.574 110.548 364.866 110.548 368.926V385.688C110.548 389.749 113.84 393.04 117.901 393.04H127.326C131.387 393.04 134.678 389.749 134.678 385.688V368.926C134.678 364.866 131.387 361.574 127.326 361.574Z" fill="#D1461C" stroke="#221F20" stroke-width="4" stroke-miterlimit="10"/>
<path d="M446.344 361.574H436.919C432.858 361.574 429.566 364.866 429.566 368.926V385.688C429.566 389.749 432.858 393.04 436.919 393.04H446.344C450.405 393.04 453.696 389.749 453.696 385.688V368.926C453.696 364.866 450.405 361.574 446.344 361.574Z" fill="#D1461C" stroke="#221F20" stroke-width="4" stroke-miterlimit="10"/>
<path d="M442.68 387.175C442.182 387.175 441.676 387.118 441.161 387.014C437.256 386.178 434.765 382.337 435.601 378.432L449.711 312.318C450.932 306.612 450.844 300.835 449.462 295.154C445.171 277.525 428.731 263.27 407.574 258.818C374.035 251.772 331.833 248.188 282.127 248.164C232.42 248.188 190.219 251.772 156.679 258.818C135.522 263.262 119.082 277.525 114.783 295.146C113.401 300.827 113.313 306.604 114.534 312.31L128.644 378.432C129.48 382.337 126.989 386.178 123.084 387.014C119.179 387.841 115.338 385.359 114.502 381.453L100.392 315.339C98.7126 307.488 98.8332 299.549 100.729 291.731C106.33 268.726 127.125 250.253 153.698 244.668C188.081 237.445 231.094 233.756 281.556 233.708C281.588 233.708 281.612 233.708 281.645 233.708H282.601C282.601 233.708 282.657 233.708 282.689 233.708C333.151 233.756 376.164 237.445 410.547 244.668C437.128 250.253 457.915 268.726 463.516 291.731C465.42 299.549 465.533 307.488 463.853 315.339L449.743 381.461C449.02 384.86 446.015 387.183 442.68 387.183V387.175Z" fill="#D1461C" stroke="#221F20" stroke-width="4" stroke-miterlimit="10"/>
<path d="M221.95 207.585C230.379 207.585 237.217 214.423 237.217 222.852V254.07C237.217 257.685 234.284 260.618 230.668 260.618H213.231C209.616 260.618 206.683 257.685 206.683 254.07V222.852C206.683 214.423 213.521 207.585 221.95 207.585Z" fill="#F0F0F1" stroke="#221F20" stroke-width="2.83" stroke-miterlimit="10" stroke-linecap="round"/>
<path d="M338.462 207.585C346.891 207.585 353.729 214.423 353.729 222.852V254.07C353.729 257.685 350.796 260.618 347.18 260.618H329.744C326.128 260.618 323.195 257.685 323.195 254.07V222.852C323.195 214.423 330.033 207.585 338.462 207.585Z" fill="#F0F0F1" stroke="#221F20" stroke-width="2.83" stroke-miterlimit="10" stroke-linecap="round"/>
<path d="M221.958 233.298C226.396 233.298 229.993 229.701 229.993 225.263C229.993 220.825 226.396 217.228 221.958 217.228C217.52 217.228 213.923 220.825 213.923 225.263C213.923 229.701 217.52 233.298 221.958 233.298Z" fill="#F0F0F1" stroke="#221F20" stroke-width="2.83" stroke-miterlimit="10" stroke-linecap="round"/>
<path d="M339.273 233.298C343.711 233.298 347.308 229.701 347.308 225.263C347.308 220.825 343.711 217.228 339.273 217.228C334.835 217.228 331.238 220.825 331.238 225.263C331.238 229.701 334.835 233.298 339.273 233.298Z" fill="#F0F0F1" stroke="#221F20" stroke-width="2.83" stroke-miterlimit="10" stroke-linecap="round"/>
<path d="M302.239 168.429C298.647 173.918 290.419 177.333 280.785 177.333C274.34 177.333 268.33 175.717 263.87 172.785C259.941 170.197 257.78 166.935 257.78 163.6C257.78 160.266 259.941 157.003 263.87 154.416C268.33 151.483 274.332 149.868 280.785 149.868C290.427 149.868 298.647 153.283 302.239 158.771L304.063 161.551H341.283L338.06 153.186C334.886 144.966 328.137 137.775 318.527 132.391C307.976 126.477 294.573 123.215 280.785 123.215C255.514 123.215 233.023 134.078 224.819 150.237C223.115 153.596 220.729 156.545 217.925 158.771L211.842 163.592L217.925 168.413C220.729 170.639 223.115 173.588 224.819 176.947C233.023 193.114 255.514 203.97 280.785 203.97C294.565 203.97 307.968 200.715 318.527 194.793C328.137 189.41 334.895 182.218 338.06 173.998L341.283 165.633H304.063L302.239 168.413V168.429Z" fill="white"/>
<path d="M281.194 199.47C257.506 199.47 236.558 189.554 229.069 174.801C227.084 170.888 224.296 167.441 221.01 164.838L219.186 163.391L221.01 161.945C224.296 159.341 227.084 155.894 229.069 151.981C236.558 137.228 257.506 127.313 281.194 127.313C294.251 127.313 306.907 130.374 316.831 135.935C325.557 140.828 331.648 147.256 334.452 154.52L335.416 157.027H306.795L306.248 156.192C301.869 149.498 292.267 145.344 281.194 145.344C273.914 145.344 267.068 147.208 261.917 150.599C256.743 154.006 253.89 158.546 253.89 163.383C253.89 168.221 256.743 172.76 261.917 176.167C267.068 179.558 273.914 181.423 281.194 181.423C292.267 181.423 301.869 177.268 306.248 170.575L306.795 169.739H335.416L334.452 172.246C331.648 179.518 325.549 185.946 316.831 190.84C306.907 196.4 294.251 199.462 281.194 199.462V199.47Z" fill="white"/>
<path d="M281.195 128.341C294.084 128.341 306.554 131.354 316.325 136.835C324.843 141.608 330.781 147.851 333.497 154.898L333.931 156.015H307.358L307.117 155.645C302.553 148.671 292.621 144.331 281.203 144.331C273.73 144.331 266.683 146.26 261.364 149.755C255.884 153.355 252.871 158.2 252.871 163.391C252.871 168.582 255.884 173.427 261.364 177.027C266.683 180.523 273.73 182.451 281.203 182.451C292.621 182.451 302.553 178.112 307.117 171.137L307.358 170.768H333.931L333.497 171.885C330.781 178.932 324.843 185.175 316.325 189.948C306.554 195.428 294.076 198.441 281.195 198.441C257.885 198.441 237.298 188.751 229.986 174.335C227.937 170.294 225.052 166.734 221.645 164.034L220.834 163.391L221.645 162.748C225.052 160.049 227.937 156.489 229.986 152.447C237.306 138.024 257.885 128.341 281.195 128.341ZM281.195 126.292C257.129 126.292 235.812 136.433 228.154 151.523C226.233 155.3 223.542 158.626 220.368 161.141L219.556 161.784L217.531 163.391L219.556 164.998L220.368 165.641C223.542 168.156 226.233 171.483 228.154 175.267C235.812 190.358 257.129 200.498 281.195 200.498C294.429 200.498 307.262 197.389 317.33 191.74C326.265 186.734 332.517 180.121 335.409 172.624L335.843 171.507L336.92 168.719H306.249L305.638 169.643L305.397 170.012C301.203 176.416 291.93 180.402 281.195 180.402C274.116 180.402 267.471 178.594 262.481 175.316C257.603 172.102 254.912 167.867 254.912 163.391C254.912 158.916 257.603 154.681 262.481 151.467C267.471 148.188 274.116 146.38 281.195 146.38C291.93 146.38 301.203 150.358 305.397 156.77L305.638 157.14L306.249 158.064H336.92L335.843 155.276L335.409 154.159C332.517 146.662 326.265 140.049 317.33 135.043C307.262 129.394 294.429 126.284 281.195 126.284V126.292Z" fill="#2E3941"/>
<path d="M281.13 197.63C258.117 197.63 237.828 188.124 230.652 173.974C228.531 169.787 225.598 166.179 222.095 163.399C225.606 160.619 228.531 157.011 230.652 152.825C237.836 138.675 258.117 129.169 281.13 129.169C293.874 129.169 306.208 132.15 315.859 137.558C324.175 142.218 330.041 148.405 332.661 155.203H307.727C303.059 148.068 292.789 143.52 281.122 143.52C273.489 143.52 266.281 145.497 260.833 149.08C255.12 152.841 251.97 157.927 251.97 163.399C251.97 168.871 255.12 173.966 260.833 177.718C266.281 181.302 273.489 183.279 281.122 183.279C292.789 183.279 303.05 178.731 307.727 171.595H332.661C330.041 178.385 324.167 184.58 315.859 189.241C306.208 194.649 293.874 197.63 281.13 197.63Z" fill="#D1461C"/>
<path d="M281.13 198.449C257.82 198.449 237.233 188.759 229.921 174.343C227.872 170.302 224.988 166.742 221.581 164.042L220.769 163.399L221.581 162.756C224.988 160.057 227.872 156.497 229.921 152.455C237.241 138.032 257.82 128.349 281.13 128.349C294.019 128.349 306.49 131.362 316.261 136.843C324.778 141.615 330.716 147.859 333.432 154.906L333.866 156.023H307.293L307.052 155.653C302.488 148.679 292.557 144.339 281.138 144.339C273.665 144.339 266.619 146.268 261.299 149.763C255.819 153.363 252.806 158.208 252.806 163.399C252.806 168.59 255.819 173.435 261.299 177.035C266.619 180.53 273.665 182.459 281.138 182.459C292.557 182.459 302.488 178.12 307.052 171.145L307.293 170.776H333.866L333.432 171.893C330.716 178.939 324.778 185.183 316.261 189.956C306.49 195.436 294.011 198.449 281.13 198.449ZM223.381 163.399C226.627 166.155 229.383 169.659 231.384 173.604C238.431 187.489 258.423 196.818 281.13 196.818C293.738 196.818 305.935 193.877 315.465 188.534C323.067 184.275 328.699 178.586 331.439 172.423H308.169C303.203 179.639 292.894 184.106 281.13 184.106C273.336 184.106 265.968 182.081 260.391 178.409C254.437 174.496 251.159 169.161 251.159 163.399C251.159 157.638 254.437 152.31 260.391 148.389C265.976 144.717 273.336 142.692 281.13 142.692C292.894 142.692 303.203 147.16 308.169 154.376H331.439C328.691 148.212 323.067 142.532 315.465 138.265C305.935 132.921 293.746 129.98 281.13 129.98C258.423 129.98 238.431 139.309 231.384 153.194C229.383 157.132 226.635 160.643 223.381 163.399Z" fill="white"/>
</g>
<defs>
<clipPath id="clip0_1620_389">
<rect width="600" height="600" fill="white"/>
</clipPath>
</defs>
</svg>
