<svg width="600" height="600" viewBox="0 0 600 600" fill="none" xmlns="http://www.w3.org/2000/svg">
<path d="M244.443 134.149C244.002 120.802 254.465 109.625 267.813 109.185C281.16 108.744 292.337 119.207 292.777 132.554L292.903 136.351L244.568 137.946L244.443 134.149Z" fill="#CECECE" stroke="#231F20" stroke-width="2" stroke-miterlimit="10"/>
<path d="M145.971 230.565C144.095 173.71 188.664 126.1 245.518 124.224L301.34 122.383C358.194 120.507 405.805 165.076 407.68 221.93L409.263 269.904L147.554 278.539L145.971 230.565Z" fill="#CECECE" stroke="#231F20" stroke-width="2" stroke-miterlimit="10"/>
<path d="M198.884 202.935C197.479 160.361 230.854 124.708 273.429 123.303C316.004 121.899 351.656 155.274 353.061 197.848L355.497 271.678L201.32 276.765L198.884 202.935Z" fill="#CECECE" stroke="#231F20" stroke-width="2" stroke-miterlimit="10"/>
<path d="M111.528 311.295C107.813 315.116 112.171 320.737 117.065 318.627C163.2 298.736 218.149 285.881 277.524 283.009C335.417 280.209 390.035 287.263 437.066 301.842C442.156 303.42 445.887 297.368 441.788 293.963C399.32 258.698 339.586 238.166 274.435 241.317C208.497 244.506 150.417 271.305 111.528 311.295Z" fill="#CECECE" stroke="#231F20" stroke-width="2" stroke-miterlimit="10"/>
</svg>
