<svg width="600" height="600" viewBox="0 0 600 600" fill="none" xmlns="http://www.w3.org/2000/svg">
<g clip-path="url(#clip0_1207_991)">
<path d="M148.536 230.877C148.536 230.877 151.756 147.79 185.074 127.54C218.394 107.274 360.997 52.289 378.355 57.3935C390.56 60.9775 447.475 107.79 480.192 135.271C486.2 140.31 481.368 150.012 473.718 148.27L416.64 135.325L375.712 163.145L392.387 199.033L148.536 230.877Z" fill="#CECECE"/>
<path d="M148.536 230.877C148.536 230.877 151.756 147.79 185.074 127.54C218.394 107.274 360.997 52.289 378.355 57.3935C390.56 60.9775 447.475 107.79 480.192 135.271C486.2 140.31 481.368 150.012 473.718 148.27L416.64 135.325L375.712 163.145L392.387 199.033L148.536 230.877Z" stroke="#231F20" stroke-width="2" stroke-linejoin="round"/>
<path d="M285.923 291.202C329.281 288.291 370.922 291.708 409.045 300.334C373.468 266.941 327.195 248.043 277.839 251.363C226.268 254.831 181.261 281.855 150.315 322.61C190.592 305.642 236.628 294.513 285.923 291.202Z" fill="black" fill-opacity="0.6"/>
<path d="M185.074 127.54C185.074 127.54 201.392 117.047 224.638 119.113" stroke="#231F20" stroke-width="2" stroke-linecap="round" stroke-linejoin="round"/>
<path d="M375.711 163.16C375.711 163.16 372.655 156.588 361.208 150.033" stroke="#231F20" stroke-width="2" stroke-linecap="round" stroke-linejoin="round"/>
<path fill-rule="evenodd" clip-rule="evenodd" d="M375.815 161.8C376.418 161.932 376.727 162.008 376.727 162.008L392.384 199.062C392.384 199.062 252.946 217.259 155.276 207.965C214.687 169.553 273.222 158.923 315.178 157.429L396.334 118.886C403.467 115.494 411.77 115.619 418.805 119.222L470.733 145.792C471.134 145.992 470.915 146.601 470.475 146.502L416.347 134.239L375.815 161.8Z" fill="black" fill-opacity="0.6"/>
<path d="M425.556 237.599C424.559 237.016 423.502 236.444 422.474 235.873L422.829 235.591L423.151 235.335C430.594 229.456 430.56 218.214 423.132 212.286C402.122 195.513 354.759 168.661 271.026 174.299C187.823 179.879 143.865 212.473 124.761 231.892C117.977 238.787 119.553 250.211 127.967 254.984L128.942 255.64C127.772 256.509 126.616 257.379 125.506 258.238C107.387 272.311 109.144 300.244 128.689 312.262L131.402 313.925C131.402 313.925 139.872 319.257 144.354 322.259C145.91 323.296 147.96 322.984 149.166 321.55C152.669 317.357 160.766 308.842 174.811 299.989C193.314 288.329 226.225 273.684 277.856 270.222C329.322 266.759 363.423 276.809 382.979 285.835C397.715 292.637 406.581 299.905 410.511 303.562C411.866 304.835 413.958 304.886 415.369 303.679C419.989 299.735 429.493 292.079 429.493 292.079C447.781 277.617 445.724 249.358 425.571 237.6L425.556 237.599Z" fill="#CECECE" stroke="#231F20" stroke-width="2" stroke-linejoin="round"/>
<path d="M159.871 239.532C159.871 239.532 147.012 244.989 134.958 253.526" stroke="black" stroke-width="2" stroke-miterlimit="10" stroke-linecap="round"/>
<path d="M389.63 225.831C389.63 225.831 403.256 228.942 416.612 235.248" stroke="black" stroke-width="2" stroke-miterlimit="10" stroke-linecap="round"/>
<path d="M124.996 301.054C124.996 301.054 163.191 246.666 273.763 239.238C384.335 231.81 428.742 280.639 428.742 280.639M137.287 288.168L151.555 305.45M157.411 273.614L170.463 291.102M177.757 262.627L188.621 281.806M199.863 254.43L207.445 273.961M220.202 248.067L226.245 267.894M241.47 243.911L245.584 264.36M262.129 240.689L265.426 261.918M283.431 238.84L284.844 259.858M305.058 241.256L304.359 259.407M326.675 241.083L324.099 261.641M347.948 243.946L343.917 263.672M369.068 249.534L364.427 267.2M391.139 257.901L384.406 274.498M413.073 269.848L404.982 284.858" stroke="black" stroke-width="2" stroke-miterlimit="10" stroke-linecap="round"/>
<path d="M422.651 102.067C422.651 102.067 421.565 115.978 417.297 130.115" stroke="black" stroke-width="2" stroke-miterlimit="10" stroke-linecap="round"/>
<path d="M402.964 121.823C402.964 121.823 411.161 126.517 414.406 130.966" stroke="black" stroke-width="2" stroke-miterlimit="10" stroke-linecap="round"/>
<path d="M379.761 223.442C379.761 223.442 360.838 216.732 333.675 214.572" stroke="black" stroke-width="2" stroke-miterlimit="10" stroke-linecap="round"/>
<path d="M233.259 119.865C233.259 119.865 243.565 120.376 248.989 125.423" stroke="#231F20" stroke-width="2" stroke-miterlimit="10" stroke-linecap="round"/>
</g>
<defs>
<clipPath id="clip0_1207_991">
<rect width="600" height="600" fill="white"/>
</clipPath>
</defs>
</svg>
