<svg width="600" height="600" viewBox="0 0 600 600" fill="none" xmlns="http://www.w3.org/2000/svg">
<g clip-path="url(#clip0_1207_1613)">
<path d="M147.558 348.682V266.764H406.122V348.682C406.122 362.955 394.528 374.536 380.216 374.536H321.838C320.702 374.536 319.576 374.207 318.605 373.598C318.602 373.596 318.599 373.594 318.596 373.592L284.868 352.014L284.865 352.013C280.928 349.5 275.91 349.5 271.973 352.013L271.97 352.014L238.224 373.604L238.22 373.606C237.276 374.212 236.159 374.536 235 374.536H173.463C159.152 374.536 147.558 362.955 147.558 348.682Z" fill="#EB1C24" fill-opacity="0.5" stroke="#FF0000" stroke-width="6"/>
<path d="M120.879 262.627L109.333 265.306L91.1438 183.84L102.706 181.161L120.879 262.627Z" fill="#BABCBE"/>
<path fill-rule="evenodd" clip-rule="evenodd" d="M103.389 180.076L121.955 263.304L108.65 266.391L90.0671 183.163L103.389 180.076ZM92.22 184.517L110.015 264.22L119.803 261.95L102.022 182.246L92.22 184.517Z" fill="#231F20"/>
<path d="M95.2098 187.34C102.007 187.34 107.517 181.731 107.517 174.812C107.517 167.894 102.007 162.285 95.2098 162.285C88.4128 162.285 82.9028 167.894 82.9028 174.812C82.9028 181.731 88.4128 187.34 95.2098 187.34Z" fill="#BABCBE"/>
<path fill-rule="evenodd" clip-rule="evenodd" d="M95.2099 163.188C88.9267 163.188 83.8059 168.377 83.8059 174.812C83.8059 181.247 88.9267 186.437 95.2099 186.437C101.493 186.437 106.614 181.247 106.614 174.812C106.614 168.377 101.493 163.188 95.2099 163.188ZM82 174.812C82 167.41 87.8992 161.382 95.2099 161.382C102.521 161.382 108.42 167.41 108.42 174.812C108.42 182.214 102.521 188.243 95.2099 188.243C87.8992 188.243 82 182.214 82 174.812Z" fill="#231F20"/>
<path d="M439.121 262.627L450.667 265.306L468.841 183.84L457.294 181.161L439.121 262.627Z" fill="#BABCBE"/>
<path fill-rule="evenodd" clip-rule="evenodd" d="M456.611 180.076L469.917 183.163L451.35 266.391L438.045 263.304L456.611 180.076ZM457.977 182.247L440.197 261.95L449.984 264.22L467.764 184.517L457.977 182.247Z" fill="#231F20"/>
<path d="M464.79 187.34C471.587 187.34 477.097 181.731 477.097 174.812C477.097 167.894 471.587 162.285 464.79 162.285C457.993 162.285 452.483 167.894 452.483 174.812C452.483 181.731 457.993 187.34 464.79 187.34Z" fill="#BABCBE"/>
<path fill-rule="evenodd" clip-rule="evenodd" d="M464.79 163.188C458.507 163.188 453.386 168.377 453.386 174.812C453.386 181.247 458.507 186.437 464.79 186.437C471.073 186.437 476.194 181.247 476.194 174.812C476.194 168.377 471.073 163.188 464.79 163.188ZM451.58 174.812C451.58 167.41 457.479 161.382 464.79 161.382C472.101 161.382 478 167.41 478 174.812C478 182.214 472.101 188.243 464.79 188.243C457.479 188.243 451.58 182.214 451.58 174.812Z" fill="#231F20"/>
<path d="M126.934 359.635C141.2 358.101 150.311 334.139 147.284 306.113C144.258 278.088 130.24 256.612 115.974 258.146C101.709 259.68 92.5978 283.642 95.6243 311.667C98.6508 339.693 112.669 361.168 126.934 359.635Z" fill="#CECECE"/>
<path fill-rule="evenodd" clip-rule="evenodd" d="M100.159 275.294C96.5367 284.82 95.0209 297.67 96.5222 311.571C98.0234 325.472 102.248 337.704 107.821 346.242C113.424 354.827 120.22 359.449 126.838 358.737C133.455 358.025 139.108 352.066 142.75 342.487C146.372 332.96 147.888 320.111 146.387 306.21C144.885 292.309 140.661 280.076 135.088 271.538C129.484 262.954 122.689 258.332 116.071 259.044C109.453 259.755 103.801 265.715 100.159 275.294ZM98.4708 274.651C102.194 264.859 108.23 258.071 115.877 257.248C123.525 256.426 130.872 261.776 136.6 270.552C142.359 279.374 146.657 291.893 148.182 306.017C149.708 320.141 148.181 333.285 144.438 343.13C140.715 352.922 134.679 359.71 127.031 360.532C119.384 361.355 112.037 356.005 106.309 347.229C100.55 338.406 96.2519 325.888 94.7266 311.764C93.2013 297.64 94.7278 284.495 98.4708 274.651Z" fill="#231F20"/>
<path d="M464.365 311.664C467.391 283.638 458.28 259.676 444.015 258.142C429.749 256.609 415.731 278.084 412.705 306.11C409.678 334.135 418.789 358.097 433.055 359.631C447.32 361.165 461.338 339.689 464.365 311.664Z" fill="#CECECE"/>
<path fill-rule="evenodd" clip-rule="evenodd" d="M417.239 342.484C420.881 352.062 426.534 358.022 433.151 358.733C439.769 359.445 446.565 354.823 452.168 346.239C457.741 337.701 461.966 325.469 463.467 311.567C464.968 297.666 463.452 284.817 459.83 275.29C456.188 265.711 450.536 259.752 443.918 259.04C437.3 258.329 430.505 262.95 424.901 271.535C419.328 280.073 415.103 292.305 413.602 306.206C412.101 320.107 413.617 332.957 417.239 342.484ZM415.551 343.126C411.808 333.282 410.281 320.137 411.807 306.013C413.332 291.889 417.63 279.371 423.389 270.548C429.117 261.772 436.464 256.422 444.111 257.245C451.759 258.067 457.795 264.855 461.518 274.648C465.261 284.492 466.788 297.636 465.262 311.76C463.737 325.884 459.439 338.403 453.68 347.225C447.952 356.001 440.605 361.351 432.958 360.529C425.31 359.707 419.274 352.918 415.551 343.126Z" fill="#231F20"/>
<path d="M279.146 118.989C185.487 119.655 109.922 195.686 110.403 288.781C110.621 332.835 127.832 372.817 155.813 402.641H166.553V281.302C196.397 254.528 235.832 238.083 279.146 237.774C323.066 237.464 363.184 253.77 393.432 280.791V402.657H403.659C432.323 372.229 449.814 331.287 449.581 286.365C449.115 193.255 372.806 118.324 279.146 119.005V118.989Z" fill="#CECECE"/>
<path fill-rule="evenodd" clip-rule="evenodd" d="M280.049 118.098V118.08L279.14 118.087C184.987 118.756 109.017 195.187 109.5 288.785M280.049 118.098C373.788 117.903 450.017 193.047 450.484 286.361C450.718 331.524 433.132 372.687 404.316 403.276L404.049 403.56H392.529V281.195C362.478 254.479 322.695 238.37 279.153 238.677C236.212 238.984 197.106 255.232 167.456 281.705V403.544H155.422L155.155 403.259C127.024 373.276 109.719 333.077 109.5 288.785M278.243 119.901C185.497 121.047 110.829 196.486 111.306 288.776C111.522 332.453 128.53 372.104 156.205 401.738H165.65V280.899L165.95 280.63C195.951 253.715 235.596 237.182 279.14 236.871C323.291 236.56 363.624 252.952 394.033 280.117L394.334 280.387V401.754H403.268C431.623 371.516 448.909 330.91 448.678 286.37C448.215 193.764 372.318 119.23 279.153 119.908L278.243 119.914V119.901Z" fill="#231F20"/>
<path d="M393.447 160.86C393.447 151.508 389.195 142.774 382.103 137.463C353.469 116.047 317.79 103.458 279.147 103.737C241.077 104.016 206.003 116.744 177.804 137.989C170.759 143.301 166.537 152.003 166.537 161.325V279.505H393.432V160.86H393.447Z" fill="white"/>
<path d="M236.716 210.489C236.716 235.854 229.593 259.158 217.674 277.647H342.326C330.407 259.158 323.284 235.854 323.284 210.489C323.284 173.961 338.058 141.659 360.67 121.978C336.429 108.986 308.664 101.677 279.146 101.879C250.342 102.08 223.261 109.435 199.578 122.195C222.05 141.907 236.716 174.1 236.716 210.489Z" fill="white"/>
<path fill-rule="evenodd" clip-rule="evenodd" d="M279.14 100.976C308.813 100.773 336.726 108.121 361.097 121.182L362.25 121.8L361.263 122.659C361.158 122.75 361.053 122.842 360.949 122.934C368.544 126.997 375.794 131.617 382.643 136.74C389.976 142.231 394.35 151.24 394.35 160.86V161.763H394.335V280.408H165.635V161.325C165.635 151.736 169.976 142.76 177.261 137.268C184.213 132.031 191.581 127.308 199.306 123.158C199.199 123.063 199.091 122.968 198.983 122.874L198.006 122.016L199.15 121.4C222.959 108.572 250.185 101.178 279.14 100.976ZM200.729 124.445C192.878 128.624 185.397 133.4 178.348 138.711C171.541 143.842 167.44 152.27 167.44 161.325V278.602H392.529V159.958H392.531C392.267 151.217 388.186 143.146 381.561 138.186C374.611 132.987 367.244 128.312 359.518 124.218C338.108 143.835 324.187 175.147 324.187 210.489C324.187 235.686 331.264 258.82 343.085 277.158L343.983 278.55H216.018L216.915 277.158C228.737 258.82 235.813 235.686 235.813 210.489C235.813 175.288 222 144.087 200.729 124.445ZM357.818 123.329C334.292 111.204 307.527 104.435 279.153 104.64C251.484 104.842 225.406 111.656 202.424 123.556C223.831 143.592 237.619 175.092 237.619 210.489C237.619 235.39 230.8 258.334 219.316 276.744H340.685C329.201 258.334 322.381 235.39 322.381 210.489C322.381 174.954 336.273 143.345 357.818 123.329ZM279.153 102.782C291.267 102.699 303.083 103.888 314.479 106.22ZM314.479 106.22C303.071 103.916 291.25 102.747 279.14 102.834C265.747 102.932 252.723 104.563 240.235 107.557C252.718 104.527 265.748 102.875 279.153 102.782" fill="#231F20"/>
<path d="M180.551 164.561C182.977 164.561 184.943 162.599 184.943 160.179C184.943 157.759 182.977 155.797 180.551 155.797C178.126 155.797 176.159 157.759 176.159 160.179C176.159 162.599 178.126 164.561 180.551 164.561Z" fill="white"/>
<path fill-rule="evenodd" clip-rule="evenodd" d="M180.552 156.7C178.623 156.7 177.062 158.26 177.062 160.179C177.062 162.099 178.623 163.658 180.552 163.658C182.48 163.658 184.041 162.099 184.041 160.179C184.041 158.26 182.48 156.7 180.552 156.7ZM175.257 160.179C175.257 157.258 177.629 154.894 180.552 154.894C183.474 154.894 185.847 157.258 185.847 160.179C185.847 163.1 183.474 165.464 180.552 165.464C177.629 165.464 175.257 163.1 175.257 160.179Z" fill="#231F20"/>
<path d="M180.551 261.109C182.977 261.109 184.943 259.147 184.943 256.727C184.943 254.307 182.977 252.345 180.551 252.345C178.126 252.345 176.159 254.307 176.159 256.727C176.159 259.147 178.126 261.109 180.551 261.109Z" fill="white"/>
<path fill-rule="evenodd" clip-rule="evenodd" d="M180.552 253.248C178.623 253.248 177.062 254.808 177.062 256.727C177.062 258.647 178.623 260.207 180.552 260.207C182.48 260.207 184.041 258.647 184.041 256.727C184.041 254.808 182.48 253.248 180.552 253.248ZM175.257 256.727C175.257 253.806 177.629 251.442 180.552 251.442C183.474 251.442 185.847 253.806 185.847 256.727C185.847 259.648 183.474 262.012 180.552 262.012C177.629 262.012 175.257 259.648 175.257 256.727Z" fill="#231F20"/>
<path d="M376.407 164.561C378.833 164.561 380.799 162.599 380.799 160.179C380.799 157.759 378.833 155.797 376.407 155.797C373.981 155.797 372.015 157.759 372.015 160.179C372.015 162.599 373.981 164.561 376.407 164.561Z" fill="white"/>
<path fill-rule="evenodd" clip-rule="evenodd" d="M376.407 156.7C374.478 156.7 372.918 158.26 372.918 160.179C372.918 162.099 374.478 163.658 376.407 163.658C378.336 163.658 379.896 162.099 379.896 160.179C379.896 158.26 378.336 156.7 376.407 156.7ZM371.112 160.179C371.112 157.258 373.485 154.894 376.407 154.894C379.329 154.894 381.702 157.258 381.702 160.179C381.702 163.1 379.329 165.464 376.407 165.464C373.485 165.464 371.112 163.1 371.112 160.179Z" fill="#231F20"/>
<path d="M376.407 261.109C378.833 261.109 380.799 259.147 380.799 256.727C380.799 254.307 378.833 252.345 376.407 252.345C373.981 252.345 372.015 254.307 372.015 256.727C372.015 259.147 373.981 261.109 376.407 261.109Z" fill="white"/>
<path fill-rule="evenodd" clip-rule="evenodd" d="M376.407 253.248C374.478 253.248 372.918 254.808 372.918 256.727C372.918 258.647 374.478 260.207 376.407 260.207C378.336 260.207 379.896 258.647 379.896 256.727C379.896 254.808 378.336 253.248 376.407 253.248ZM371.112 256.727C371.112 253.806 373.485 251.442 376.407 251.442C379.329 251.442 381.702 253.806 381.702 256.727C381.702 259.648 379.329 262.012 376.407 262.012C373.485 262.012 371.112 259.648 371.112 256.727Z" fill="#231F20"/>
<path d="M312.932 276.811L319.125 267.04L309.316 259.313L314.997 250.549" fill="white"/>
<path d="M311.613 275.99L317.805 266.204L318.162 268.248C317.495 267.721 307.345 259.731 307.082 259.515C307.314 259.267 314.484 251.106 314.996 250.549L310.62 260.149L310.279 258.09C310.868 258.554 320.909 266.467 321.173 266.684L320.428 267.861L314.236 277.647L311.613 275.99Z" fill="#231F20"/>
<path fill-rule="evenodd" clip-rule="evenodd" d="M204.542 280.326V129.55H206.347V280.326H204.542Z" fill="#231F20"/>
<path fill-rule="evenodd" clip-rule="evenodd" d="M352.458 279.691V130.2H354.263V279.691H352.458Z" fill="#231F20"/>
<path fill-rule="evenodd" clip-rule="evenodd" d="M186.324 203.619H167.189V201.813H186.324V203.619Z" fill="#231F20"/>
<path fill-rule="evenodd" clip-rule="evenodd" d="M195.885 211.253H166.553V209.447H195.885V211.253Z" fill="#231F20"/>
<path fill-rule="evenodd" clip-rule="evenodd" d="M405.646 187.081H394.813V185.275H405.646V187.081Z" fill="#231F20"/>
<path fill-rule="evenodd" clip-rule="evenodd" d="M405.646 194.08H394.813V192.274H405.646V194.08Z" fill="#231F20"/>
<path fill-rule="evenodd" clip-rule="evenodd" d="M405.646 201.08H394.813V199.274H405.646V201.08Z" fill="#231F20"/>
<path fill-rule="evenodd" clip-rule="evenodd" d="M405.646 208.063H394.813V206.257H405.646V208.063Z" fill="#231F20"/>
<path fill-rule="evenodd" clip-rule="evenodd" d="M405.646 215.062H394.813V213.256H405.646V215.062Z" fill="#231F20"/>
<path fill-rule="evenodd" clip-rule="evenodd" d="M405.646 222.061H394.813V220.256H405.646V222.061Z" fill="#231F20"/>
<path fill-rule="evenodd" clip-rule="evenodd" d="M405.646 229.061H394.813V227.255H405.646V229.061Z" fill="#231F20"/>
<path fill-rule="evenodd" clip-rule="evenodd" d="M405.646 236.06H394.813V234.254H405.646V236.06Z" fill="#231F20"/>
<path fill-rule="evenodd" clip-rule="evenodd" d="M405.646 243.059H394.813V241.253H405.646V243.059Z" fill="#231F20"/>
<path fill-rule="evenodd" clip-rule="evenodd" d="M231.749 132.899L214.382 115.572L215.658 114.293L233.024 131.621C236.021 134.611 240.09 136.297 244.336 136.297H316.75C321.511 136.297 326.02 134.186 329.061 130.522L342.485 114.356L343.874 115.509L330.45 131.675C327.066 135.754 322.046 138.103 316.75 138.103H244.336C239.612 138.103 235.084 136.227 231.749 132.899Z" fill="#231F20"/>
<path d="M243.778 129.488C246.203 129.488 248.17 127.526 248.17 125.106C248.17 122.686 246.203 120.724 243.778 120.724C241.352 120.724 239.385 122.686 239.385 125.106C239.385 127.526 241.352 129.488 243.778 129.488Z" fill="white"/>
<path fill-rule="evenodd" clip-rule="evenodd" d="M243.778 121.627C241.849 121.627 240.289 123.186 240.289 125.106C240.289 127.026 241.849 128.585 243.778 128.585C245.706 128.585 247.267 127.026 247.267 125.106C247.267 123.186 245.706 121.627 243.778 121.627ZM238.483 125.106C238.483 122.185 240.855 119.821 243.778 119.821C246.7 119.821 249.073 122.185 249.073 125.106C249.073 128.027 246.7 130.391 243.778 130.391C240.855 130.391 238.483 128.027 238.483 125.106Z" fill="#231F20"/>
<path d="M316.455 129.488C318.881 129.488 320.847 127.526 320.847 125.106C320.847 122.686 318.881 120.724 316.455 120.724C314.029 120.724 312.063 122.686 312.063 125.106C312.063 127.526 314.029 129.488 316.455 129.488Z" fill="white"/>
<path fill-rule="evenodd" clip-rule="evenodd" d="M316.455 121.627C314.526 121.627 312.966 123.186 312.966 125.106C312.966 127.026 314.526 128.585 316.455 128.585C318.384 128.585 319.944 127.026 319.944 125.106C319.944 123.186 318.384 121.627 316.455 121.627ZM311.16 125.106C311.16 122.185 313.533 119.821 316.455 119.821C319.378 119.821 321.75 122.185 321.75 125.106C321.75 128.027 319.378 130.391 316.455 130.391C313.533 130.391 311.16 128.027 311.16 125.106Z" fill="#231F20"/>
<path d="M313.103 227.879C313.523 227.879 313.863 227.539 313.863 227.12C313.863 226.701 313.523 226.361 313.103 226.361C312.683 226.361 312.343 226.701 312.343 227.12C312.343 227.539 312.683 227.879 313.103 227.879Z" fill="#FF270A"/>
</g>
<defs>
<clipPath id="clip0_1207_1613">
<rect width="600" height="600" fill="white"/>
</clipPath>
</defs>
</svg>
