<svg width="600" height="600" viewBox="0 0 600 600" fill="none" xmlns="http://www.w3.org/2000/svg">
<g clip-path="url(#clip0_1369_1689)">
<path d="M148.517 228.97C148.517 228.97 153.053 145.032 186.975 125.068C220.913 105.103 365.611 51.7316 383.025 57.162C395.27 60.9743 451.961 109.18 484.544 137.463C490.524 142.649 485.501 152.385 477.805 150.505L420.428 136.547L378.713 164.035L394.98 200.581L148.517 228.985L148.517 228.97Z" fill="#CECECE"/>
<path d="M148.517 228.97C148.517 228.97 153.053 145.032 186.975 125.068C220.913 105.103 365.611 51.7316 383.025 57.162C395.27 60.9743 451.961 109.18 484.544 137.463C490.524 142.649 485.501 152.385 477.805 150.505L420.428 136.547L378.713 164.035L394.98 200.581L148.517 228.985L148.517 228.97Z" stroke="#231F20" stroke-width="2" stroke-linejoin="round"/>
<path d="M286.165 292.071C329.942 289.803 371.902 293.894 410.214 303.207C374.837 268.897 328.463 249.078 278.627 251.67C226.552 254.38 180.745 281 148.891 321.718C189.783 305.19 236.39 294.66 286.165 292.071Z" fill="#221F20"/>
<path d="M186.99 125.067C186.99 125.067 203.618 114.708 227.028 117.163" stroke="#231F20" stroke-width="2" stroke-linecap="round" stroke-linejoin="round"/>
<path d="M378.728 164.035C378.728 164.035 375.738 157.338 364.304 150.532" stroke="#231F20" stroke-width="2" stroke-linecap="round" stroke-linejoin="round"/>
<path d="M306.365 163.592L401.4 120.151C408.646 116.831 417.021 117.095 424.05 120.83L476.014 148.494C476.415 148.702 476.187 149.316 475.745 149.2L421.34 135.965L366.696 171.983L306.365 163.592Z" fill="#525252"/>
<path d="M379.76 162.871C379.76 162.871 270.067 134.254 155.67 205.906C254.045 216.818 394.979 200.566 394.979 200.566L379.76 162.871Z" fill="#221F20"/>
<path d="M427.851 240.045C426.859 239.442 425.807 238.841 424.77 238.24L425.133 237.952L425.468 237.695C433.066 231.855 433.207 220.503 425.814 214.401C404.887 197.109 357.525 169.248 272.978 173.646C188.942 178.021 144.101 210.269 124.526 229.604C117.578 236.471 118.984 248.038 127.394 252.992L128.359 253.672C127.163 254.526 125.982 255.395 124.861 256.247C106.364 270.191 107.708 298.447 127.223 310.916L129.924 312.648C129.924 312.648 138.376 318.173 142.858 321.271C144.399 322.347 146.481 322.055 147.711 320.626C151.316 316.447 159.606 307.965 173.912 299.221C192.763 287.719 226.178 273.436 278.328 270.722C330.298 268.017 364.544 278.694 384.13 288.128C398.878 295.234 407.721 302.718 411.631 306.476C412.987 307.787 415.085 307.871 416.537 306.673C421.27 302.759 430.972 295.163 430.972 295.163C449.647 280.832 448.001 252.229 427.866 240.029L427.851 240.045Z" fill="#CECECE" stroke="#231F20" stroke-width="2" stroke-linejoin="round"/>
<path d="M139.703 257.194C139.703 257.194 127.39 264.066 116.226 273.947" stroke="#231F20" stroke-width="2" stroke-miterlimit="10" stroke-linecap="round"/>
<path d="M430.105 242.189C429.113 241.586 428.06 240.986 427.023 240.385L427.387 240.097L427.721 239.84C435.319 233.999 435.461 222.648 428.067 216.546C411.809 203.127 379.616 183.334 326.441 177.209C326.962 177.396 359.496 188.86 362.355 223.85C362.355 223.85 397.335 241.99 370.793 283.838C376.766 285.932 381.96 288.137 386.399 290.271C401.146 297.378 409.989 304.862 413.899 308.62C415.255 309.93 417.354 310.015 418.806 308.817C423.538 304.903 433.24 297.306 433.24 297.306C451.916 282.976 450.27 254.373 430.134 242.173L430.105 242.189Z" fill="#525252" stroke="#231F20" stroke-width="2" stroke-miterlimit="10"/>
<path d="M391.792 227.596C391.792 227.596 405.478 230.95 418.86 237.531" stroke="#231F20" stroke-width="2" stroke-miterlimit="10" stroke-linecap="round"/>
<path d="M123.686 299.538C123.686 299.538 163.064 245.153 274.702 239.359C386.354 233.549 430.395 283.603 430.395 283.603" stroke="#231F20" stroke-width="2" stroke-miterlimit="10" stroke-linecap="round"/>
<path d="M136.282 286.709L150.401 304.39" stroke="#231F20" stroke-width="2" stroke-miterlimit="10" stroke-linecap="round"/>
<path d="M156.807 272.294L169.715 290.181" stroke="#231F20" stroke-width="2" stroke-miterlimit="10" stroke-linecap="round"/>
<path d="M177.498 261.507L188.163 281.081" stroke="#231F20" stroke-width="2" stroke-miterlimit="10" stroke-linecap="round"/>
<path d="M199.934 253.566L207.266 273.43" stroke="#231F20" stroke-width="2" stroke-miterlimit="10" stroke-linecap="round"/>
<path d="M220.554 247.459L226.331 267.59" stroke="#231F20" stroke-width="2" stroke-miterlimit="10" stroke-linecap="round"/>
<path d="M242.06 243.574L245.892 264.323" stroke="#231F20" stroke-width="2" stroke-miterlimit="10" stroke-linecap="round"/>
<path d="M262.947 240.638L265.939 262.149" stroke="#231F20" stroke-width="2" stroke-miterlimit="10" stroke-linecap="round"/>
<path d="M284.47 239.106L285.568 260.372" stroke="#231F20" stroke-width="2" stroke-miterlimit="10" stroke-linecap="round"/>
<path d="M306.252 241.876L305.256 260.222" stroke="#231F20" stroke-width="2" stroke-miterlimit="10" stroke-linecap="round"/>
<path d="M328.048 242.021L325.129 262.763" stroke="#231F20" stroke-width="2" stroke-miterlimit="10" stroke-linecap="round"/>
<path d="M349.475 245.261L345.099 265.135" stroke="#231F20" stroke-width="2" stroke-miterlimit="10" stroke-linecap="round"/>
<path d="M370.681 251.241L365.727 269.014" stroke="#231F20" stroke-width="2" stroke-miterlimit="10" stroke-linecap="round"/>
<path d="M392.814 260.03L385.76 276.708" stroke="#231F20" stroke-width="2" stroke-miterlimit="10" stroke-linecap="round"/>
<path d="M414.754 272.449L406.358 287.483" stroke="#231F20" stroke-width="2" stroke-miterlimit="10" stroke-linecap="round"/>
<path d="M427.024 103.009C427.024 103.009 425.71 117.054 421.18 131.278" stroke="#231F20" stroke-width="2" stroke-miterlimit="10" stroke-linecap="round"/>
<path d="M406.86 122.658C406.86 122.658 415.056 127.531 418.263 132.075" stroke="#231F20" stroke-width="2" stroke-miterlimit="10" stroke-linecap="round"/>
<path d="M381.878 225.02C381.878 225.02 362.897 217.941 335.532 215.337" stroke="#231F20" stroke-width="2" stroke-miterlimit="10" stroke-linecap="round"/>
<path d="M235.703 118.046C235.703 118.046 246.086 118.716 251.478 123.899" stroke="#231F20" stroke-width="2" stroke-miterlimit="10" stroke-linecap="round"/>
<path opacity="0.7" d="M414.83 231.169L417.019 199.131L284.29 188.303L282.27 214.194C279.067 239.279 306.141 263.41 342.749 268.109C379.356 272.793 411.628 256.269 414.831 231.184L414.83 231.169Z" fill="#231F20" stroke="#221F20" stroke-width="2.25" stroke-miterlimit="10"/>
<path opacity="0.7" d="M263.631 215.865L253.476 185.405L126.634 225.977L134.611 250.684C141.188 275.108 175.404 287.099 211.022 277.481C246.656 267.863 270.207 240.274 263.631 215.865Z" fill="#231F20" stroke="#221F20" stroke-width="2.25" stroke-miterlimit="10"/>
<path d="M135.321 206.255L111.329 216.431C100.704 220.937 95.7403 233.213 100.242 243.851L100.248 243.865C104.751 254.502 117.013 259.472 127.638 254.966L151.631 244.791C162.256 240.285 167.219 228.008 162.717 217.371L162.711 217.357C158.209 206.72 145.946 201.749 135.321 206.255Z" fill="#37324C" stroke="#231F20" stroke-width="2.37" stroke-miterlimit="10"/>
<path d="M436.894 206.248L413.292 195.189C402.84 190.292 390.403 194.804 385.512 205.267L385.506 205.281C380.615 215.744 385.123 228.196 395.575 233.093L419.177 244.152C429.628 249.049 442.066 244.537 446.957 234.074L446.963 234.06C451.854 223.597 447.345 211.145 436.894 206.248Z" fill="#231F20" stroke="#221F20" stroke-width="2.25" stroke-miterlimit="10"/>
<path d="M135.323 206.276L128.199 209.297C117.574 213.803 112.61 226.08 117.113 236.717L117.118 236.731C121.621 247.368 133.884 252.339 144.509 247.833L151.633 244.811C162.258 240.305 167.221 228.029 162.719 217.391L162.713 217.377C158.211 206.74 145.948 201.77 135.323 206.276Z" fill="#231F20" stroke="#221F20" stroke-width="2.25" stroke-miterlimit="10"/>
<path d="M288.079 182.879L248.816 184.683C243.883 184.91 240.068 189.098 240.295 194.036C240.522 198.975 244.705 202.795 249.638 202.568L288.901 200.764C293.834 200.537 297.649 196.35 297.422 191.411C297.195 186.472 293.012 182.653 288.079 182.879Z" fill="#231F20" stroke="#221F20" stroke-width="2.25" stroke-miterlimit="10"/>
<path d="M412.583 219.973L414.772 187.934L282.042 177.107L280.022 202.997C276.82 228.082 303.893 252.213 340.501 256.913C377.109 261.597 409.381 245.073 412.583 219.988L412.583 219.973Z" fill="#FFBE2E" stroke="#221F20" stroke-width="2.25" stroke-miterlimit="10"/>
<path d="M412.583 219.973L414.772 187.934L353.24 182.917L351.16 257.675C355.142 257.748 359.037 257.569 362.814 257.139L363.813 215.908L373.353 211.336L372.846 255.411C394.45 250.36 410.36 237.183 412.567 219.958L412.583 219.973Z" fill="#231F20" stroke="#221F20" stroke-width="2.25" stroke-miterlimit="10"/>
<path d="M414.618 194.094C417.821 169.013 390.742 144.879 354.136 140.19C317.529 135.5 285.257 152.031 282.054 177.112C278.851 202.193 305.929 226.327 342.536 231.017C379.143 235.706 411.415 219.175 414.618 194.094Z" fill="#FFBE2E" stroke="#221F20" stroke-width="2.25" stroke-miterlimit="10"/>
<path d="M405.242 191.167C407.863 170.643 384.605 150.753 353.292 146.742C321.98 142.731 294.471 156.117 291.85 176.641C289.229 197.165 312.488 217.055 343.8 221.066C375.113 225.077 402.621 211.691 405.242 191.167Z" fill="#FFBE2E" stroke="#221F20" stroke-width="2.25" stroke-miterlimit="10"/>
<path d="M395.565 188.406C397.605 172.439 378.293 156.81 352.431 153.497C326.57 150.184 303.952 160.442 301.913 176.409C299.874 192.375 319.186 208.005 345.047 211.317C370.908 214.63 393.526 204.372 395.565 188.406Z" fill="#CECECE" stroke="#221F20" stroke-width="2.25" stroke-miterlimit="10"/>
<path d="M395.566 188.41C397.606 172.445 378.292 156.813 352.432 153.506C326.572 150.199 303.942 160.456 301.903 176.421C299.864 192.385 319.178 208.017 345.038 211.324C370.898 214.632 393.527 204.374 395.566 188.41ZM342.199 194.483C324.297 192.198 310.931 181.376 312.352 170.328C313.773 159.28 329.42 152.18 347.308 154.481C365.195 156.781 378.576 167.587 377.155 178.635C375.749 189.682 360.087 196.784 342.199 194.483ZM384.788 184.726C381.923 183.696 380.278 181.011 381.092 178.726C381.906 176.44 384.903 175.413 387.753 176.443C390.603 177.474 392.264 180.158 391.45 182.444C390.635 184.729 387.639 185.757 384.788 184.726Z" fill="#231F20" stroke="#221F20" stroke-width="2.25" stroke-miterlimit="10"/>
<path d="M261.383 204.669L251.228 174.208L124.386 214.781L132.363 239.488C138.94 263.912 173.156 275.902 208.775 266.285C244.408 256.667 267.96 229.078 261.383 204.669Z" fill="#FFBE2E" stroke="#221F20" stroke-width="2.25" stroke-miterlimit="10"/>
<path d="M261.384 204.669L251.229 174.208L192.434 193.022L218.945 262.951C222.66 261.498 226.186 259.842 229.523 258.03L214.779 219.528L221.862 211.659L238.15 252.609C256.197 239.696 265.907 221.448 261.384 204.684L261.384 204.669Z" fill="#231F20" stroke="#221F20" stroke-width="2.25" stroke-miterlimit="10"/>
<path d="M200.817 241.578C236.449 231.96 260.002 204.373 253.425 179.959C246.848 155.545 212.631 143.549 176.999 153.167C141.368 162.784 117.815 190.372 124.392 214.786C130.969 239.2 165.186 251.195 200.817 241.578Z" fill="#FFBE2E" stroke="#221F20" stroke-width="2.25" stroke-miterlimit="10"/>
<path d="M198.195 231.892C228.673 223.666 249.018 200.802 243.636 180.824C238.254 160.846 209.183 151.319 178.705 159.545C148.227 167.772 127.883 190.636 133.265 210.614C138.647 230.592 167.717 240.119 198.195 231.892Z" fill="#FFBE2E" stroke="#221F20" stroke-width="2.25" stroke-miterlimit="10"/>
<path d="M195.642 222.412C220.814 215.618 237.826 197.51 233.639 181.968C229.452 166.426 205.652 159.335 180.479 166.129C155.307 172.924 138.295 191.031 142.482 206.573C146.669 222.115 170.469 229.206 195.642 222.412Z" fill="#CECECE" stroke="#221F20" stroke-width="2.25" stroke-miterlimit="10"/>
<path d="M233.637 181.971C229.457 166.429 205.654 159.346 180.468 166.13C155.283 172.915 138.274 191.031 142.469 206.573C146.649 222.116 170.452 229.199 195.638 222.414C220.823 215.63 237.832 197.514 233.637 181.971ZM186.608 207.924C169.194 212.631 152.723 207.716 149.818 196.957C146.927 186.198 158.694 173.678 176.108 168.971C193.523 164.263 209.993 169.179 212.899 179.937C215.789 190.697 204.023 203.216 186.608 207.924ZM222.277 182.675C219.239 182.814 216.683 180.955 216.571 178.532C216.46 176.108 218.835 174.022 221.873 173.883C224.911 173.743 227.467 175.602 227.579 178.026C227.69 180.45 225.315 182.535 222.277 182.675Z" fill="#231F20" stroke="#221F20" stroke-width="2.25" stroke-miterlimit="10"/>
<path d="M287.636 173.244L248.373 175.049C243.44 175.275 239.625 179.463 239.852 184.401C240.079 189.34 244.262 193.16 249.195 192.933L288.458 191.129C293.391 190.902 297.206 186.715 296.979 181.776C296.752 176.837 292.569 173.018 287.636 173.244Z" fill="#FFBE2E" stroke="#221F20" stroke-width="2.1" stroke-miterlimit="10"/>
<path d="M250.814 186.824C253.131 186.718 254.946 185.263 254.869 183.576C254.791 181.888 252.85 180.606 250.533 180.712C248.216 180.819 246.4 182.273 246.478 183.961C246.555 185.649 248.497 186.931 250.814 186.824Z" fill="#FFBE2E" stroke="#221F20" stroke-width="1.92" stroke-miterlimit="10"/>
<path d="M286.197 185.199C288.514 185.092 290.329 183.637 290.252 181.95C290.174 180.262 288.233 178.98 285.916 179.086C283.599 179.193 281.783 180.647 281.861 182.335C281.938 184.023 283.879 185.305 286.197 185.199Z" fill="#FFBE2E" stroke="#221F20" stroke-width="1.92" stroke-miterlimit="10"/>
<path d="M98.6399 234.264L117.813 227.167L119.775 214.435L117.234 214.551L104.303 220.109C104.303 220.109 99.5183 226.816 98.6549 234.263L98.6399 234.264Z" fill="#221F20"/>
</g>
<defs>
<clipPath id="clip0_1369_1689">
<rect width="600" height="600" fill="white"/>
</clipPath>
</defs>
</svg>
