<svg width="600" height="600" viewBox="0 0 600 600" fill="none" xmlns="http://www.w3.org/2000/svg">
<g clip-path="url(#clip0_1396_414)">
<path d="M148.536 230.877C148.536 230.877 151.756 147.79 185.074 127.54C218.394 107.274 360.997 52.289 378.355 57.3935C390.56 60.9775 447.475 107.79 480.192 135.271C486.2 140.31 481.368 150.012 473.718 148.27L416.64 135.325L375.712 163.145L392.387 199.033L148.536 230.877Z" fill="#CECECE"/>
<path d="M148.536 230.877C148.536 230.877 151.756 147.79 185.074 127.54C218.394 107.274 360.997 52.289 378.355 57.3935C390.56 60.9775 447.475 107.79 480.192 135.271C486.2 140.31 481.368 150.012 473.718 148.27L416.64 135.325L375.712 163.145L392.387 199.033L148.536 230.877Z" stroke="#231F20" stroke-width="2" stroke-linejoin="round"/>
<path d="M285.923 291.202C329.281 288.291 370.922 291.708 409.045 300.334C373.468 266.941 327.195 248.043 277.839 251.364C226.268 254.832 181.261 281.855 150.315 322.61C190.592 305.642 236.628 294.513 285.923 291.202Z" fill="black" fill-opacity="0.6"/>
<path d="M185.074 127.54C185.074 127.54 201.392 117.047 224.638 119.113" stroke="#231F20" stroke-width="2" stroke-linecap="round" stroke-linejoin="round"/>
<path d="M375.711 163.16C375.711 163.16 372.655 156.588 361.208 150.033" stroke="#231F20" stroke-width="2" stroke-linecap="round" stroke-linejoin="round"/>
<path fill-rule="evenodd" clip-rule="evenodd" d="M375.815 161.8C376.418 161.932 376.727 162.008 376.727 162.008L392.384 199.062C392.384 199.062 252.946 217.259 155.276 207.965C214.687 169.553 273.222 158.923 315.178 157.429L396.334 118.886C403.467 115.494 411.77 115.619 418.805 119.222L470.733 145.792C471.134 145.992 470.915 146.601 470.475 146.502L416.347 134.239L375.815 161.8Z" fill="black" fill-opacity="0.6"/>
<path d="M425.556 237.599C424.559 237.016 423.502 236.444 422.474 235.873L422.829 235.591L423.151 235.335C430.594 229.456 430.56 218.214 423.132 212.286C402.122 195.513 354.759 168.661 271.026 174.299C187.823 179.879 143.865 212.473 124.761 231.892C117.977 238.787 119.553 250.211 127.967 254.984L128.942 255.64C127.772 256.508 126.616 257.379 125.506 258.238C107.387 272.311 109.144 300.244 128.689 312.262L131.402 313.925C131.402 313.925 139.872 319.257 144.354 322.259C145.91 323.296 147.96 322.984 149.166 321.55C152.669 317.356 160.766 308.842 174.811 299.989C193.314 288.329 226.225 273.684 277.856 270.222C329.322 266.759 363.423 276.809 382.979 285.835C397.715 292.637 406.581 299.905 410.511 303.562C411.866 304.835 413.958 304.886 415.369 303.679C419.989 299.735 429.493 292.079 429.493 292.079C447.781 277.617 445.723 249.358 425.571 237.6L425.556 237.599Z" fill="#CECECE" stroke="#231F20" stroke-width="2" stroke-linejoin="round"/>
<path d="M159.871 239.532C159.871 239.532 147.012 244.989 134.958 253.526" stroke="black" stroke-width="2" stroke-miterlimit="10" stroke-linecap="round"/>
<path d="M389.63 225.831C389.63 225.831 403.256 228.942 416.612 235.248" stroke="black" stroke-width="2" stroke-miterlimit="10" stroke-linecap="round"/>
<path d="M124.996 301.054C124.996 301.054 163.191 246.666 273.763 239.238C384.335 231.81 428.742 280.639 428.742 280.639M137.287 288.168L151.555 305.45M157.411 273.614L170.463 291.102M177.757 262.627L188.621 281.806M199.863 254.43L207.445 273.961M220.202 248.067L226.245 267.894M241.47 243.911L245.584 264.36M262.129 240.689L265.426 261.918M283.431 238.84L284.844 259.858M305.058 241.256L304.359 259.407M326.675 241.082L324.099 261.641M347.948 243.946L343.917 263.671M369.068 249.534L364.427 267.2M391.139 257.901L384.406 274.498M413.073 269.848L404.982 284.857" stroke="black" stroke-width="2" stroke-miterlimit="10" stroke-linecap="round"/>
<path d="M422.651 102.067C422.651 102.067 421.565 115.978 417.297 130.115" stroke="black" stroke-width="2" stroke-miterlimit="10" stroke-linecap="round"/>
<path d="M402.964 121.823C402.964 121.823 411.161 126.517 414.406 130.966" stroke="black" stroke-width="2" stroke-miterlimit="10" stroke-linecap="round"/>
<path d="M379.761 223.442C379.761 223.442 360.838 216.732 333.675 214.572" stroke="black" stroke-width="2" stroke-miterlimit="10" stroke-linecap="round"/>
<path d="M233.259 119.865C233.259 119.865 243.565 120.376 248.989 125.423" stroke="#231F20" stroke-width="2" stroke-miterlimit="10" stroke-linecap="round"/>
<mask id="path-15-inside-1_1396_414" fill="white">
<path fill-rule="evenodd" clip-rule="evenodd" d="M483 102C480.174 102 477.713 103.563 476.434 105.872C475.981 106.69 474.459 107.018 473.71 106.458C471.595 104.88 468.709 104.468 466.133 105.63C463.882 106.646 462.376 108.636 461.888 110.876C461.746 111.531 461.079 111.991 460.417 111.893C458.148 111.557 455.755 112.262 454.008 114.009C452.01 116.007 451.375 118.853 452.104 121.389C452.362 122.288 451.517 123.596 450.592 123.73C447.98 124.11 445.648 125.859 444.649 128.503C443.775 130.813 444.117 133.284 445.357 135.214C445.719 135.777 445.573 136.574 445.035 136.973C443.194 138.34 442 140.53 442 143C442 145.826 443.563 148.287 445.872 149.566C446.69 150.019 447.018 151.541 446.458 152.29C444.88 154.405 444.468 157.292 445.63 159.867C446.646 162.118 448.636 163.624 450.877 164.112C451.531 164.254 451.991 164.921 451.893 165.583C451.557 167.852 452.262 170.245 454.009 171.991C456.007 173.99 458.853 174.625 461.389 173.896C462.288 173.638 463.596 174.483 463.731 175.408C464.11 178.02 465.86 180.352 468.503 181.351C470.813 182.225 473.284 181.883 475.214 180.643C475.777 180.281 476.574 180.427 476.973 180.965C478.34 182.806 480.53 184 483 184C485.826 184 488.287 182.437 489.566 180.128C490.019 179.31 491.541 178.982 492.29 179.542C494.406 181.12 497.292 181.532 499.868 180.37C502.119 179.354 503.624 177.364 504.112 175.124C504.255 174.469 504.921 174.009 505.583 174.107C507.852 174.443 510.245 173.738 511.991 171.991C513.989 169.993 514.624 167.148 513.896 164.611C513.638 163.712 514.482 162.404 515.408 162.27C518.02 161.89 520.352 160.141 521.351 157.497C522.225 155.187 521.883 152.716 520.643 150.786C520.281 150.223 520.427 149.426 520.965 149.027C522.806 147.66 524 145.47 524 143C524 140.174 522.437 137.713 520.128 136.434C519.31 135.981 518.982 134.459 519.542 133.71C521.12 131.595 521.532 128.708 520.37 126.133C519.354 123.882 517.364 122.376 515.124 121.888C514.469 121.746 514.009 121.079 514.107 120.417C514.443 118.148 513.738 115.755 511.991 114.009C509.993 112.01 507.148 111.375 504.611 112.104C503.712 112.362 502.404 111.517 502.27 110.592C501.891 107.98 500.141 105.648 497.498 104.649C495.187 103.775 492.716 104.117 490.786 105.357C490.223 105.719 489.426 105.573 489.027 105.035C487.66 103.194 485.47 102 483 102Z"/>
</mask>
<path fill-rule="evenodd" clip-rule="evenodd" d="M483 102C480.174 102 477.713 103.563 476.434 105.872C475.981 106.69 474.459 107.018 473.71 106.458C471.595 104.88 468.709 104.468 466.133 105.63C463.882 106.646 462.376 108.636 461.888 110.876C461.746 111.531 461.079 111.991 460.417 111.893C458.148 111.557 455.755 112.262 454.008 114.009C452.01 116.007 451.375 118.853 452.104 121.389C452.362 122.288 451.517 123.596 450.592 123.73C447.98 124.11 445.648 125.859 444.649 128.503C443.775 130.813 444.117 133.284 445.357 135.214C445.719 135.777 445.573 136.574 445.035 136.973C443.194 138.34 442 140.53 442 143C442 145.826 443.563 148.287 445.872 149.566C446.69 150.019 447.018 151.541 446.458 152.29C444.88 154.405 444.468 157.292 445.63 159.867C446.646 162.118 448.636 163.624 450.877 164.112C451.531 164.254 451.991 164.921 451.893 165.583C451.557 167.852 452.262 170.245 454.009 171.991C456.007 173.99 458.853 174.625 461.389 173.896C462.288 173.638 463.596 174.483 463.731 175.408C464.11 178.02 465.86 180.352 468.503 181.351C470.813 182.225 473.284 181.883 475.214 180.643C475.777 180.281 476.574 180.427 476.973 180.965C478.34 182.806 480.53 184 483 184C485.826 184 488.287 182.437 489.566 180.128C490.019 179.31 491.541 178.982 492.29 179.542C494.406 181.12 497.292 181.532 499.868 180.37C502.119 179.354 503.624 177.364 504.112 175.124C504.255 174.469 504.921 174.009 505.583 174.107C507.852 174.443 510.245 173.738 511.991 171.991C513.989 169.993 514.624 167.148 513.896 164.611C513.638 163.712 514.482 162.404 515.408 162.27C518.02 161.89 520.352 160.141 521.351 157.497C522.225 155.187 521.883 152.716 520.643 150.786C520.281 150.223 520.427 149.426 520.965 149.027C522.806 147.66 524 145.47 524 143C524 140.174 522.437 137.713 520.128 136.434C519.31 135.981 518.982 134.459 519.542 133.71C521.12 131.595 521.532 128.708 520.37 126.133C519.354 123.882 517.364 122.376 515.124 121.888C514.469 121.746 514.009 121.079 514.107 120.417C514.443 118.148 513.738 115.755 511.991 114.009C509.993 112.01 507.148 111.375 504.611 112.104C503.712 112.362 502.404 111.517 502.27 110.592C501.891 107.98 500.141 105.648 497.498 104.649C495.187 103.775 492.716 104.117 490.786 105.357C490.223 105.719 489.426 105.573 489.027 105.035C487.66 103.194 485.47 102 483 102Z" fill="white"/>
<path d="M466.133 105.63L466.956 107.453L466.133 105.63ZM444.649 128.503L442.778 127.796L444.649 128.503ZM445.63 159.867L447.453 159.045L445.63 159.867ZM454.009 171.991L455.423 170.577H455.423L454.009 171.991ZM468.503 181.351L469.21 179.481L469.21 179.481L468.503 181.351ZM499.868 180.37L500.69 182.193L499.868 180.37ZM521.351 157.497L523.222 158.205L521.351 157.497ZM520.37 126.133L522.193 125.31L522.193 125.31L520.37 126.133ZM511.991 114.009L513.406 112.594L511.991 114.009ZM497.498 104.649L496.79 106.519L497.498 104.649ZM490.786 105.357L489.705 103.674L490.786 105.357ZM489.027 105.035L487.421 106.227L489.027 105.035ZM504.611 112.104L505.163 114.026L504.611 112.104ZM515.124 121.888L514.698 123.842L515.124 121.888ZM514.107 120.417L512.128 120.124L514.107 120.417ZM520.128 136.434L519.159 138.184L520.128 136.434ZM519.542 133.71L517.939 132.514L519.542 133.71ZM513.896 164.611L511.974 165.163L513.896 164.611ZM515.408 162.27L515.12 160.291L515.408 162.27ZM504.112 175.124L506.066 175.549L504.112 175.124ZM489.566 180.128L487.816 179.159L489.566 180.128ZM492.29 179.542L493.486 177.939L492.29 179.542ZM475.214 180.643L476.295 182.326L475.214 180.643ZM476.973 180.965L478.579 179.773L476.973 180.965ZM461.389 173.896L460.837 171.974L461.389 173.896ZM463.731 175.408L461.751 175.696L463.731 175.408ZM446.458 152.29L448.061 153.486L446.458 152.29ZM445.357 135.214L443.674 136.295L445.357 135.214ZM445.035 136.973L443.844 135.367L445.035 136.973ZM461.888 110.876L459.934 110.451L461.888 110.876ZM450.592 123.73L450.304 121.751L450.592 123.73ZM450.877 164.112L450.451 166.066L450.877 164.112ZM451.893 165.583L449.915 165.29L451.893 165.583ZM520.643 150.786L518.96 151.867L520.643 150.786ZM520.965 149.027L522.156 150.633L520.965 149.027ZM476.434 105.872L478.184 106.841L476.434 105.872ZM473.71 106.458L474.906 104.856L473.71 106.458ZM478.184 106.841C479.124 105.143 480.93 104 483 104V100C479.418 100 476.301 101.984 474.685 104.903L478.184 106.841ZM466.956 107.453C468.842 106.602 470.958 106.9 472.514 108.061L474.906 104.856C472.232 102.86 468.575 102.334 465.31 103.807L466.956 107.453ZM463.842 111.302C464.201 109.653 465.306 108.198 466.956 107.453L465.31 103.807C462.458 105.095 460.551 107.618 459.934 110.451L463.842 111.302ZM455.423 115.423C456.702 114.143 458.454 113.624 460.124 113.872L460.71 109.915C457.842 109.49 454.807 110.381 452.594 112.594L455.423 115.423ZM454.026 120.837C453.49 118.971 453.959 116.886 455.423 115.423L452.594 112.594C450.061 115.128 449.26 118.734 450.181 121.941L454.026 120.837ZM446.519 129.21C447.251 127.274 448.958 125.989 450.88 125.71L450.304 121.751C447.002 122.231 444.044 124.445 442.778 127.796L446.519 129.21ZM447.039 134.133C446.127 132.713 445.879 130.903 446.519 129.21L442.778 127.796C441.671 130.723 442.107 133.855 443.674 136.295L447.039 134.133ZM444 143C444 141.19 444.872 139.585 446.227 138.579L443.844 135.367C441.515 137.095 440 139.871 440 143H444ZM446.841 147.816C445.143 146.876 444 145.07 444 143H440C440 146.582 441.984 149.699 444.903 151.315L446.841 147.816ZM447.453 159.045C446.602 157.158 446.9 155.042 448.061 153.486L444.855 151.094C442.86 153.768 442.334 157.425 443.807 160.69L447.453 159.045ZM451.302 162.158C449.653 161.799 448.198 160.694 447.453 159.045L443.807 160.69C445.095 163.543 447.618 165.449 450.451 166.066L451.302 162.158ZM455.423 170.577C454.143 169.298 453.625 167.546 453.872 165.876L449.915 165.29C449.49 168.158 450.382 171.193 452.594 173.406L455.423 170.577ZM460.837 171.974C458.971 172.51 456.887 172.041 455.423 170.577L452.594 173.406C455.128 175.939 458.734 176.74 461.941 175.818L460.837 171.974ZM469.21 179.481C467.274 178.749 465.989 177.041 465.71 175.12L461.751 175.696C462.231 178.998 464.445 181.955 467.796 183.222L469.21 179.481ZM474.133 178.961C472.713 179.873 470.903 180.12 469.21 179.481L467.796 183.222C470.723 184.329 473.855 183.893 476.295 182.326L474.133 178.961ZM483 182C481.19 182 479.585 181.128 478.579 179.773L475.367 182.156C477.095 184.485 479.871 186 483 186V182ZM487.816 179.159C486.876 180.857 485.07 182 483 182V186C486.582 186 489.699 184.016 491.315 181.097L487.816 179.159ZM499.045 178.547C497.158 179.398 495.042 179.1 493.486 177.939L491.094 181.144C493.769 183.14 497.425 183.666 500.69 182.193L499.045 178.547ZM502.158 174.698C501.799 176.347 500.694 177.802 499.045 178.547L500.69 182.193C503.543 180.905 505.45 178.382 506.066 175.549L502.158 174.698ZM510.577 170.577C509.297 171.857 507.546 172.376 505.876 172.128L505.291 176.085C508.158 176.51 511.193 175.618 513.405 173.406L510.577 170.577ZM511.974 165.163C512.509 167.029 512.041 169.114 510.577 170.577L513.405 173.406C515.938 170.872 516.739 167.266 515.818 164.059L511.974 165.163ZM519.481 156.79C518.749 158.726 517.041 160.011 515.12 160.291L515.695 164.249C518.998 163.769 521.955 161.556 523.222 158.205L519.481 156.79ZM518.96 151.867C519.873 153.287 520.12 155.097 519.481 156.79L523.222 158.205C524.329 155.277 523.893 152.145 522.326 149.705L518.96 151.867ZM522 143C522 144.81 521.128 146.415 519.773 147.421L522.156 150.633C524.485 148.906 526 146.13 526 143H522ZM519.159 138.184C520.857 139.124 522 140.93 522 143H526C526 139.418 524.016 136.301 521.097 134.685L519.159 138.184ZM518.547 126.955C519.398 128.842 519.1 130.958 517.939 132.514L521.144 134.906C523.14 132.231 523.666 128.575 522.193 125.31L518.547 126.955ZM514.698 123.842C516.347 124.201 517.802 125.306 518.547 126.955L522.193 125.31C520.905 122.457 518.382 120.551 515.549 119.934L514.698 123.842ZM510.577 115.423C511.857 116.702 512.376 118.454 512.128 120.124L516.085 120.71C516.51 117.842 515.619 114.807 513.406 112.594L510.577 115.423ZM505.163 114.026C507.029 113.49 509.114 113.959 510.577 115.423L513.406 112.594C510.873 110.061 507.266 109.26 504.059 110.182L505.163 114.026ZM496.79 106.519C498.727 107.251 500.012 108.959 500.291 110.88L504.249 110.305C503.769 107.002 501.556 104.045 498.205 102.778L496.79 106.519ZM491.868 107.04C493.287 106.127 495.098 105.879 496.79 106.519L498.205 102.778C495.277 101.671 492.145 102.107 489.705 103.674L491.868 107.04ZM483 104C484.81 104 486.415 104.872 487.421 106.227L490.633 103.844C488.906 101.515 486.13 100 483 100V104ZM489.705 103.674C489.891 103.555 490.074 103.542 490.205 103.566C490.335 103.59 490.502 103.667 490.633 103.844L487.421 106.227C488.447 107.61 490.419 107.97 491.868 107.04L489.705 103.674ZM504.059 110.182C504.147 110.156 504.218 110.151 504.261 110.151C504.304 110.151 504.328 110.156 504.33 110.157C504.33 110.157 504.293 110.146 504.239 110.112C504.185 110.077 504.16 110.047 504.16 110.047C504.162 110.049 504.176 110.068 504.194 110.108C504.212 110.147 504.236 110.213 504.249 110.305L500.291 110.88C500.471 112.12 501.335 112.998 502.069 113.472C502.803 113.946 503.959 114.372 505.163 114.026L504.059 110.182ZM515.549 119.934C515.764 119.981 515.903 120.101 515.978 120.21C516.054 120.319 516.117 120.492 516.085 120.71L512.128 120.124C511.876 121.827 513.016 123.476 514.698 123.842L515.549 119.934ZM521.097 134.685C521.177 134.729 521.231 134.775 521.262 134.806C521.292 134.837 521.305 134.857 521.306 134.859C521.306 134.859 521.287 134.825 521.274 134.762C521.26 134.7 521.264 134.661 521.264 134.661C521.263 134.664 521.26 134.687 521.245 134.728C521.229 134.768 521.2 134.832 521.144 134.906L517.939 132.514C517.189 133.518 517.179 134.75 517.363 135.604C517.547 136.458 518.063 137.577 519.159 138.184L521.097 134.685ZM515.818 164.059C515.844 164.147 515.849 164.218 515.849 164.261C515.849 164.304 515.843 164.328 515.843 164.33C515.843 164.33 515.853 164.293 515.888 164.239C515.923 164.185 515.953 164.16 515.953 164.16C515.951 164.162 515.932 164.176 515.892 164.194C515.853 164.212 515.787 164.236 515.695 164.249L515.12 160.291C513.88 160.471 513.002 161.335 512.528 162.069C512.054 162.803 511.628 163.959 511.974 165.163L515.818 164.059ZM506.066 175.549C506.02 175.764 505.899 175.903 505.79 175.978C505.681 176.054 505.508 176.117 505.291 176.085L505.876 172.128C504.173 171.876 502.524 173.016 502.158 174.698L506.066 175.549ZM491.315 181.097C491.271 181.178 491.225 181.231 491.194 181.262C491.163 181.292 491.143 181.305 491.141 181.306C491.141 181.306 491.175 181.287 491.238 181.274C491.3 181.26 491.339 181.264 491.339 181.264C491.337 181.263 491.313 181.26 491.273 181.245C491.232 181.229 491.168 181.2 491.094 181.144L493.486 177.939C492.482 177.189 491.25 177.179 490.396 177.363C489.542 177.547 488.423 178.063 487.816 179.159L491.315 181.097ZM476.295 182.326C476.11 182.445 475.926 182.458 475.796 182.434C475.665 182.41 475.498 182.333 475.367 182.156L478.579 179.773C477.553 178.39 475.582 178.03 474.133 178.961L476.295 182.326ZM461.941 175.818C461.853 175.844 461.783 175.849 461.739 175.849C461.696 175.849 461.673 175.844 461.67 175.843C461.67 175.843 461.708 175.854 461.762 175.888C461.815 175.923 461.841 175.953 461.841 175.953C461.839 175.951 461.825 175.932 461.807 175.893C461.789 175.853 461.765 175.787 461.751 175.696L465.71 175.12C465.53 173.88 464.665 173.002 463.932 172.528C463.198 172.054 462.041 171.628 460.837 171.974L461.941 175.818ZM444.903 151.315C444.822 151.271 444.769 151.225 444.738 151.194C444.708 151.163 444.695 151.143 444.694 151.141C444.694 151.141 444.713 151.175 444.726 151.238C444.74 151.3 444.736 151.339 444.736 151.339C444.737 151.336 444.74 151.313 444.755 151.272C444.771 151.232 444.8 151.168 444.855 151.094L448.061 153.486C448.811 152.482 448.821 151.25 448.637 150.396C448.453 149.542 447.937 148.423 446.841 147.816L444.903 151.315ZM443.674 136.295C443.555 136.11 443.542 135.926 443.566 135.796C443.59 135.665 443.667 135.498 443.844 135.367L446.227 138.579C447.61 137.553 447.97 135.581 447.039 134.133L443.674 136.295ZM459.934 110.451C459.981 110.236 460.101 110.097 460.211 110.022C460.32 109.946 460.492 109.883 460.71 109.915L460.124 113.872C461.827 114.124 463.476 112.985 463.842 111.302L459.934 110.451ZM450.181 121.941C450.156 121.853 450.151 121.783 450.151 121.739C450.151 121.696 450.156 121.673 450.157 121.67C450.157 121.67 450.146 121.708 450.111 121.761C450.077 121.815 450.047 121.84 450.047 121.84C450.049 121.839 450.068 121.824 450.107 121.807C450.147 121.789 450.213 121.764 450.304 121.751L450.88 125.71C452.119 125.529 452.998 124.665 453.472 123.931C453.946 123.197 454.372 122.041 454.026 120.837L450.181 121.941ZM450.451 166.066C450.236 166.019 450.097 165.899 450.022 165.79C449.946 165.681 449.883 165.508 449.915 165.29L453.872 165.876C454.124 164.173 452.985 162.524 451.302 162.158L450.451 166.066ZM522.326 149.705C522.445 149.891 522.458 150.074 522.434 150.205C522.41 150.335 522.333 150.502 522.156 150.633L519.773 147.421C518.39 148.447 518.03 150.419 518.96 151.867L522.326 149.705ZM474.685 104.903C474.729 104.823 474.775 104.769 474.806 104.739C474.836 104.708 474.857 104.695 474.859 104.694C474.859 104.694 474.825 104.713 474.762 104.726C474.7 104.74 474.661 104.736 474.661 104.736C474.664 104.737 474.688 104.74 474.728 104.755C474.768 104.771 474.832 104.8 474.906 104.856L472.514 108.061C473.518 108.811 474.75 108.821 475.604 108.637C476.458 108.453 477.577 107.937 478.184 106.841L474.685 104.903Z" fill="black" mask="url(#path-15-inside-1_1396_414)"/>
</g>
<defs>
<clipPath id="clip0_1396_414">
<rect width="600" height="600" fill="white"/>
</clipPath>
</defs>
</svg>
