<svg width="42" height="18" viewBox="0 0 42 18" fill="none" xmlns="http://www.w3.org/2000/svg">
<path fill-rule="evenodd" clip-rule="evenodd" d="M30.5455 10.9091V14.0909C30.5455 16.1997 28.836 17.9091 26.7273 17.9091H14.6364C12.5276 17.9091 10.8182 16.1997 10.8182 14.0909V3.90912C10.8182 1.8004 12.5276 0.0909424 14.6364 0.0909424H26.7273C28.836 0.0909424 30.5455 1.8004 30.5455 3.90912V7.09094C31.5998 7.09094 32.4545 7.94567 32.4545 9.00003C32.4545 10.0544 31.5998 10.9091 30.5455 10.9091ZM14.6364 3.90912H26.7273V7.09094L20.3636 7.09094C19.3093 7.09094 18.4545 7.94567 18.4545 9.00003C18.4545 10.0544 19.3093 10.9091 20.3636 10.9091L26.7273 10.9091V14.0909H14.6364V3.90912Z" fill="#5C36B3"/>
<path d="M0 6.45458C0 5.75167 0.569819 5.18185 1.27273 5.18185H7C7.70291 5.18185 8.27273 5.75167 8.27273 6.45458V12.1819C8.27273 12.8848 7.70291 13.4546 7 13.4546H1.27273C0.569819 13.4546 0 12.8848 0 12.1819V6.45458Z" fill="#5C36B3"/>
<path d="M35 5.18185C34.2971 5.18185 33.7273 5.75167 33.7273 6.45458V12.1819C33.7273 12.8848 34.2971 13.4546 35 13.4546H40.7273C41.4302 13.4546 42 12.8848 42 12.1819V6.45458C42 5.75167 41.4302 5.18185 40.7273 5.18185H35Z" fill="#5C36B3"/>
</svg>
