<svg width="40" height="40" viewBox="0 0 40 40" fill="none" xmlns="http://www.w3.org/2000/svg">
<g clip-path="url(#clip0_1351_148)">
<path d="M20.2154 9.73913C22.7797 9.73913 24.9537 8.07867 25.7078 5.7808C26.0197 4.83037 26.8069 4 27.8129 4C29.5092 4 31.1197 4.74087 32.2171 6.02604L39.657 14.7388C40.1744 15.3447 40.0977 16.2528 39.4861 16.7646L34.8562 20.6387C34.2401 21.1542 33.3186 21.0692 32.8085 20.4498L31.7678 19.1859C31.3381 18.6641 30.487 18.9659 30.487 19.6401V35.5652C30.487 36.3576 29.8405 37 29.0431 37H10.9936C10.1961 37 9.54961 36.3576 9.54961 35.5652V19.486C9.54961 18.8303 8.73731 18.5183 8.29341 19.0035L6.92967 20.494C6.386 21.0883 5.45736 21.1234 4.86977 20.572L0.452512 16.4267C-0.111744 15.8971 -0.153806 15.0191 0.357279 14.4388L7.82374 5.95988C8.9205 4.71441 10.505 4 12.1705 4H12.2737C13.4699 4 14.4011 4.99679 14.8395 6.10268C15.6838 8.23213 17.7725 9.73913 20.2154 9.73913Z" fill="#5C36B3"/>
</g>
<defs>
<clipPath id="clip0_1351_148">
<rect width="40" height="40" fill="white"/>
</clipPath>
</defs>
</svg>
