<svg width="16" height="18" viewBox="0 0 16 18" fill="none" xmlns="http://www.w3.org/2000/svg">
<path d="M14.8914 7.07778C14.8914 7.07778 14.014 7.89669 12.5224 8.86184C12.113 6.49283 10.9723 3.56813 8.74955 0C8.74955 0 8.01837 3.83136 5.59087 7.42874C4.53798 5.79091 4.07003 4.50404 4.07003 4.50404C-3.53419 12.1375 2.78316 17.5482 6.76075 17.5482C11.8497 17.5482 16.3245 15.0915 14.8914 7.07778Z" fill="#FF9D33"/>
<path d="M11.8789 13.8631C12.3176 12.8979 12.6393 11.6403 12.6978 10.0609C12.6978 10.0609 12.0837 10.5874 11.0308 11.2601C10.7383 9.68073 9.94862 7.75043 8.39853 5.35217C8.39853 5.35217 7.90134 7.89666 6.20501 10.3242C5.47383 9.24202 5.15212 8.36461 5.15212 8.36461C3.8945 10.3534 3.3973 11.9327 3.36805 13.1904C2.66612 12.9271 2.22742 12.7224 2.22742 12.7224C3.42654 16.2906 5.91254 17.0802 7.02393 17.0802C9.01272 17.0802 11.0308 16.4953 13.0196 13.6583C13.0196 13.6291 12.5809 13.7461 11.8789 13.8631Z" fill="#FFCE31"/>
<path d="M4.62569 12.2545C4.62569 12.2545 5.4446 13.3659 6.05879 13.1027C6.05879 13.1027 7.22867 11.2601 8.925 10.2365C8.925 10.2365 8.57403 13.0442 8.98349 13.5414C9.50994 14.214 10.943 12.8102 10.943 12.8102C10.943 14.4773 9.12972 16.5538 7.49189 16.5538C5.91255 16.5538 3.63129 14.7405 4.62569 12.2545Z" fill="#FFDF85"/>
<path d="M12.7856 4.70879C13.3998 3.83138 13.8093 2.89548 13.8093 2.89548C14.8329 4.59181 14.2187 5.61545 13.78 5.93717C13.1658 6.40512 12.0837 5.73244 12.7856 4.70879ZM1.61325 4.41632C0.999064 3.39268 0.94057 2.10581 0.94057 2.10581C-0.52178 4.29934 0.0339128 5.52771 0.531112 5.87867C1.17455 6.37587 2.28593 5.61545 1.61325 4.41632ZM5.0059 2.13506C5.09364 1.43313 4.80117 0.731201 4.80117 0.731201C6.17578 1.63786 6.17578 2.39828 6.0003 2.72C5.73708 3.10021 4.91816 2.92473 5.0059 2.13506Z" fill="#FF9D33"/>
</svg>
