<svg width="40" height="40" viewBox="0 0 40 40" fill="none" xmlns="http://www.w3.org/2000/svg">
<g clip-path="url(#clip0_1351_156)">
<path fill-rule="evenodd" clip-rule="evenodd" d="M9.93648 8.12997C8.66044 6.08138 8.52952 3.82016 9.81619 2.35877C11.614 0.31684 15.4986 0.609641 18.4927 3.01276C19.3841 3.72828 20.0961 4.55021 20.6091 5.40566C21.122 4.55021 21.834 3.72828 22.7255 3.01276C25.7196 0.609641 29.6042 0.31684 31.402 2.35877C32.6886 3.82016 32.5577 6.08138 31.2817 8.12997H36C36.5523 8.12997 37 8.57768 37 9.12997V12.6532C37 13.2055 36.5523 13.6532 36 13.6532H6C5.44772 13.6532 5 13.2055 5 12.6532V9.12997C5 8.57768 5.44772 8.12997 6 8.12997H9.93648ZM18.3061 8.12997H14.1598C14.1258 8.10369 14.0918 8.07694 14.0579 8.04972C13.0065 7.20582 12.4172 6.23053 12.2088 5.45608C11.9979 4.67256 12.2158 4.37284 12.2612 4.32124C12.3067 4.26964 12.5785 4.01319 13.4231 4.07685C14.258 4.13978 15.3656 4.5264 16.417 5.3703C17.4684 6.21419 18.0577 7.18949 18.2661 7.96394C18.2817 8.0219 18.2949 8.07721 18.3061 8.12997ZM27.0583 8.12997H22.9121C22.9232 8.07721 22.9365 8.0219 22.9521 7.96394C23.1605 7.18949 23.7498 6.21419 24.8012 5.3703C25.8526 4.5264 26.9602 4.13978 27.795 4.07685C28.6397 4.01319 28.9115 4.26964 28.9569 4.32124C29.0023 4.37284 29.2202 4.67256 29.0094 5.45608C28.8009 6.23053 28.2117 7.20582 27.1602 8.04972C27.1263 8.07694 27.0923 8.10369 27.0583 8.12997Z" fill="#5C36B3"/>
<path d="M6.56098 18.3874H18.2683V37.3243H9.56098C7.90412 37.3243 6.56098 35.9812 6.56098 34.3243V18.3874Z" fill="#5C36B3"/>
<path d="M22.9512 18.3874H35.439V34.3243C35.439 35.9812 34.0959 37.3243 32.439 37.3243H22.9512V18.3874Z" fill="#5C36B3"/>
</g>
<defs>
<clipPath id="clip0_1351_156">
<rect width="40" height="40" fill="white"/>
</clipPath>
</defs>
</svg>
