<svg width="40" height="40" viewBox="0 0 40 40" fill="none" xmlns="http://www.w3.org/2000/svg">
<g clip-path="url(#clip0_1351_144)">
<path d="M3 16.7439C3 15.2285 4.32985 14 5.9703 14H16.3168C17.9573 14 19.2871 15.2285 19.2871 16.7439V19.282C19.2871 23.4368 15.6411 26.8049 11.1436 26.8049C6.646 26.8049 3 23.4368 3 19.282V16.7439Z" fill="#5C36B3"/>
<path d="M21.7129 16.7439C21.7129 15.2285 23.0427 14 24.6832 14H35.0297C36.6702 14 38 15.2285 38 16.7439V19.282C38 23.4368 34.354 26.8049 29.8564 26.8049C25.3589 26.8049 21.7129 23.4368 21.7129 19.282V16.7439Z" fill="#5C36B3"/>
<path d="M11.6634 14H31.4158V18.1616H11.6634V14Z" fill="#5C36B3"/>
</g>
<defs>
<clipPath id="clip0_1351_144">
<rect width="40" height="40" fill="white"/>
</clipPath>
</defs>
</svg>
