<svg width="476" height="532" viewBox="0 0 476 532" fill="none" xmlns="http://www.w3.org/2000/svg">
<g clip-path="url(#clip0_1_81)">
<path d="M373.46 537.479C372.637 461.485 325.866 400.214 268.281 400.214C210.696 400.214 163.921 461.485 163.102 537.479H373.464H373.46Z" fill="#161616"/>
<path d="M371.924 535.953C371.426 533.916 371.035 532.362 370.961 530.503L370.928 530.136L370.8 528.668C368.663 500.467 360.192 472.39 344.301 448.877C322.567 416.136 285.103 394.969 245.698 406.786C198.824 421.237 171.967 470.489 165.782 516.802C165.334 520.62 164.835 524.764 164.617 528.602C164.378 530.799 164.353 535.281 164.234 537.491L163.102 536.345C231.22 536.687 303.794 536.481 371.924 535.953ZM375 539C305.26 538.476 231.599 538.266 161.94 538.617C162.006 535.916 162.076 531.117 162.262 528.458C162.793 517.47 164.362 506.458 166.837 495.742C177.658 447.157 214.411 397.253 268.281 396.911C310.918 396.73 345.109 429.375 361.296 466.68C369.935 486.094 374.556 507.196 375.445 528.392C375.696 531.855 375.449 535.714 374.996 539H375Z" fill="black"/>
<path opacity="0.2" d="M208.328 537.479C208.938 468.275 240.555 411.304 281.104 403.178C277.019 402.523 272.864 402.176 268.652 402.176C212.236 402.176 166.244 462.684 165.424 537.479H208.328Z" fill="black"/>
<path d="M205.121 533.62C206.582 517.276 209.362 501.275 208.044 484.866C209.803 492.852 210.532 501.09 210.919 509.294C211.302 517.503 211.347 525.699 211.709 533.776L205.121 533.62Z" fill="black"/>
<path d="M326.401 533.908C326.43 517.441 327.537 500.999 330.058 484.862C329.728 501.193 330.832 517.433 332.977 533.479L326.401 533.904V533.908Z" fill="black"/>
<path d="M208.539 514.015C187.237 501.399 165.939 507.15 165.939 507.15" stroke="black" stroke-width="6" stroke-miterlimit="10"/>
<path d="M370.565 506.804C365.274 505.773 347.402 503.431 329.531 514.019" stroke="black" stroke-width="6" stroke-miterlimit="10"/>
<path d="M268.281 431.964C284.712 431.964 298.033 418.628 298.033 402.176C298.033 385.725 284.712 372.388 268.281 372.388C251.849 372.388 238.529 385.725 238.529 402.176C238.529 418.628 251.849 431.964 268.281 431.964Z" fill="#48486E" stroke="black" stroke-width="6" stroke-miterlimit="10"/>
<g opacity="0.2">
<path d="M244.632 527.926C247.704 526.404 251.468 527.031 253.304 530.004C253.975 531.121 254.35 532.222 254.445 533.681C253.123 534.312 251.978 534.523 250.681 534.481C247.197 534.329 244.809 531.352 244.632 527.922V527.926Z" fill="black"/>
</g>
<path d="M372.13 537.479C372.081 536.415 371.364 521.754 369.26 508.276C344.973 504.627 331.355 515.334 331.355 515.334L331.845 537.483H372.13V537.479Z" fill="#3E3E63"/>
<path d="M205.693 537.479L207.558 515.573C207.558 515.573 191.585 504.627 167.294 508.272C165.189 521.754 164.473 536.411 164.423 537.475H205.697L205.693 537.479Z" fill="#3E3E63"/>
<path d="M287.367 443.335C386.489 434.041 460.895 362.917 453.558 284.475C446.221 206.033 359.919 149.977 260.798 159.271C161.676 168.564 87.2697 239.689 94.6066 318.131C101.944 396.573 188.245 452.629 287.367 443.335Z" fill="#48486E"/>
<path d="M455.633 284.268C462.485 351.402 409.307 408.398 350.136 431.408C320.208 443.472 287.676 448.794 255.462 447.384C181.369 444.902 99.3031 398.494 91.7961 318.394C85.4958 251.05 138.95 194.702 198.417 172.137C238.204 156.544 282.479 152.516 324.416 160.683C386.753 172.31 449.246 217.064 455.637 284.273L455.633 284.268ZM451.494 284.656C448.04 242.252 418.992 205.871 382.767 185.437C336.967 159.158 280.803 154.058 229.877 166.229C189.271 176.021 150.612 197.687 124.612 230.806C98.3765 263.555 88.7324 308.433 104.681 347.935C116.079 377.109 139.275 400.407 166.223 415.737C220.946 446.704 289.822 448.386 347.921 425.834C405.518 403.85 457.449 350.033 451.494 284.66V284.656Z" fill="black"/>
<path opacity="0.3" d="M311.062 410.608C213.702 419.74 128.935 364.682 121.729 287.633C119.242 261.036 126.321 235.296 140.663 212.616C110.846 240.907 94.1928 277.808 97.8124 316.526C105.019 393.572 189.79 448.629 287.145 439.501C350.898 433.523 404.237 401.504 431.444 358.477C401.923 386.488 359.496 406.064 311.062 410.608Z" fill="#1A1A2C"/>
<path d="M268.281 407.074C257.607 407.074 247.729 399.876 240.456 386.81C233.526 374.35 229.709 357.859 229.709 340.369C229.709 322.88 233.526 306.388 240.456 293.928C247.729 280.859 257.607 273.664 268.281 273.664C278.955 273.664 288.833 280.863 296.106 293.928C303.036 306.388 306.853 322.88 306.853 340.369C306.853 357.859 303.036 374.35 296.106 386.81C288.833 399.88 278.955 407.074 268.281 407.074Z" fill="white"/>
<path d="M268.281 276.958C287.767 276.958 303.563 305.349 303.563 340.365C303.563 375.381 287.767 403.772 268.281 403.772C248.795 403.772 232.999 375.381 232.999 340.365C232.999 305.349 248.795 276.958 268.281 276.958ZM268.281 270.362C262.046 270.362 256.084 272.489 250.566 276.686C245.637 280.434 241.268 285.695 237.578 292.32C230.376 305.262 226.41 322.327 226.41 340.369C226.41 358.411 230.376 375.476 237.578 388.418C241.263 395.043 245.633 400.3 250.566 404.052C256.088 408.249 262.046 410.377 268.281 410.377C274.515 410.377 280.478 408.249 285.996 404.052C290.925 400.304 295.294 395.043 298.98 388.418C306.182 375.476 310.148 358.411 310.148 340.369C310.148 322.327 306.182 305.262 298.98 292.32C295.294 285.695 290.925 280.438 285.996 276.686C280.474 272.489 274.515 270.362 268.281 270.362Z" fill="black"/>
<g style="mix-blend-mode:multiply" opacity="0.1">
<path d="M268.281 407.074C257.607 407.074 247.729 399.876 240.456 386.81C233.526 374.35 229.709 357.859 229.709 340.369C229.709 322.88 233.526 306.388 240.456 293.928C247.729 280.859 257.607 273.664 268.281 273.664C278.955 273.664 288.833 280.863 296.106 293.928C303.036 306.388 306.853 322.88 306.853 340.369C306.853 357.859 303.036 374.35 296.106 386.81C288.833 399.88 278.955 407.074 268.281 407.074Z" fill="black"/>
<path d="M268.281 276.958C287.767 276.958 303.563 305.349 303.563 340.365C303.563 375.381 287.767 403.772 268.281 403.772C248.795 403.772 232.999 375.381 232.999 340.365C232.999 305.349 248.795 276.958 268.281 276.958ZM268.281 270.362C262.046 270.362 256.084 272.489 250.566 276.686C245.637 280.434 241.268 285.695 237.578 292.32C230.376 305.262 226.41 322.327 226.41 340.369C226.41 358.411 230.376 375.476 237.578 388.418C241.263 395.043 245.633 400.3 250.566 404.052C256.088 408.249 262.046 410.377 268.281 410.377C274.515 410.377 280.478 408.249 285.996 404.052C290.925 400.304 295.294 395.043 298.98 388.418C306.182 375.476 310.148 358.411 310.148 340.369C310.148 322.327 306.182 305.262 298.98 292.32C295.294 285.695 290.925 280.438 285.996 276.686C280.474 272.489 274.515 270.362 268.281 270.362Z" fill="black"/>
</g>
<path d="M362.577 347.428C357.619 347.428 354.081 345.564 351.751 341.734C349.399 337.862 348.304 331.901 348.304 322.966C348.304 307.151 351.759 292.23 358.035 280.954C364.648 269.067 373.654 262.524 383.397 262.524C393.14 262.524 402.146 269.071 408.759 280.954C415.035 292.23 418.489 307.151 418.489 322.966C418.489 335.063 416.793 347.428 404.217 347.428C401.359 347.428 398.275 346.834 395.005 346.203C391.274 345.482 387.42 344.74 383.401 344.74C379.382 344.74 375.523 345.482 371.792 346.203C368.527 346.834 365.439 347.428 362.585 347.428H362.577Z" fill="white"/>
<path d="M383.393 265.822C400.951 265.822 415.187 291.405 415.187 322.966C415.187 340.217 410.933 344.129 404.209 344.129C398.633 344.129 391.352 341.441 383.393 341.441C375.433 341.441 368.152 344.129 362.577 344.129C355.852 344.129 351.598 340.221 351.598 322.966C351.598 291.405 365.834 265.822 383.393 265.822ZM383.393 259.226C377.628 259.226 372.126 261.188 367.032 265.06C362.515 268.494 358.521 273.301 355.156 279.35C348.613 291.108 345.01 306.598 345.01 322.966C345.01 332.527 346.257 339.037 348.938 343.445C351.874 348.277 356.462 350.726 362.581 350.726C365.752 350.726 368.988 350.103 372.414 349.44C375.993 348.751 379.691 348.034 383.397 348.034C387.103 348.034 390.801 348.747 394.379 349.44C397.805 350.099 401.042 350.726 404.213 350.726C410.328 350.726 414.919 348.277 417.855 343.445C420.536 339.033 421.784 332.527 421.784 322.966C421.784 306.598 418.181 291.108 411.637 279.35C408.273 273.301 404.274 268.494 399.761 265.06C394.667 261.188 389.166 259.226 383.401 259.226H383.393Z" fill="black"/>
<g style="mix-blend-mode:multiply" opacity="0.1">
<path d="M362.577 347.428C357.619 347.428 354.081 345.564 351.751 341.734C349.399 337.862 348.304 331.901 348.304 322.966C348.304 307.151 351.759 292.23 358.035 280.954C364.648 269.067 373.654 262.524 383.397 262.524C393.14 262.524 402.146 269.071 408.759 280.954C415.035 292.23 418.489 307.151 418.489 322.966C418.489 335.063 416.793 347.428 404.217 347.428C401.359 347.428 398.275 346.834 395.005 346.203C391.274 345.482 387.42 344.74 383.401 344.74C379.382 344.74 375.523 345.482 371.792 346.203C368.527 346.834 365.439 347.428 362.585 347.428H362.577Z" fill="black"/>
<path d="M383.393 265.822C400.951 265.822 415.187 291.405 415.187 322.966C415.187 340.217 410.933 344.129 404.209 344.129C398.633 344.129 391.352 341.441 383.393 341.441C375.433 341.441 368.152 344.129 362.577 344.129C355.852 344.129 351.598 340.221 351.598 322.966C351.598 291.405 365.834 265.822 383.393 265.822ZM383.393 259.226C377.628 259.226 372.126 261.188 367.032 265.06C362.515 268.494 358.521 273.301 355.156 279.35C348.613 291.108 345.01 306.598 345.01 322.966C345.01 332.527 346.257 339.037 348.938 343.445C351.874 348.277 356.462 350.726 362.581 350.726C365.752 350.726 368.988 350.103 372.414 349.44C375.993 348.751 379.691 348.034 383.397 348.034C387.103 348.034 390.801 348.747 394.379 349.44C397.805 350.099 401.042 350.726 404.213 350.726C410.328 350.726 414.919 348.277 417.855 343.445C420.536 339.033 421.784 332.527 421.784 322.966C421.784 306.598 418.181 291.108 411.637 279.35C408.273 273.301 404.274 268.494 399.761 265.06C394.667 261.188 389.166 259.226 383.401 259.226H383.393Z" fill="black"/>
</g>
<path d="M388.631 272.295C379.481 272.295 370.957 270.679 364.631 267.74C359.151 265.192 355.972 261.918 355.91 258.752C355.848 255.486 359.064 252.011 364.734 249.215C371.274 245.991 380.086 244.119 389.553 243.942C390.027 243.934 390.492 243.93 390.945 243.93C409.092 243.93 410.74 250.741 410.871 257.717C410.962 262.466 409.978 265.538 407.684 267.678C404.583 270.572 398.662 272.122 390.088 272.283C389.602 272.291 389.112 272.295 388.631 272.295Z" fill="#252528"/>
<path d="M390.949 247.224C399.844 247.224 403.653 248.997 405.279 250.481C406.3 251.417 407.486 253.087 407.577 257.774C407.668 262.528 406.548 264.227 405.436 265.262C403.723 266.857 399.662 268.799 390.027 268.985C389.561 268.993 389.092 268.997 388.631 268.997C380.074 268.997 371.834 267.447 366.019 264.746C361.349 262.578 359.233 260.141 359.204 258.686C359.175 257.168 361.325 254.567 366.192 252.171C372.217 249.203 380.757 247.401 389.615 247.236C390.064 247.228 390.508 247.224 390.945 247.224M390.945 240.627C390.471 240.627 389.985 240.631 389.491 240.639C368.943 241.027 352.434 249.162 352.615 258.809C352.792 268.218 368.778 275.594 388.626 275.594C389.129 275.594 389.639 275.59 390.146 275.581C410.694 275.194 414.343 267.302 414.162 257.651C413.984 248.234 410.225 240.627 390.945 240.627Z" fill="black"/>
<path d="M260.914 279.098C260.432 279.098 259.942 279.094 259.456 279.086C240.032 278.719 238.537 271.689 238.673 264.515C238.805 257.539 240.452 250.728 258.6 250.728C259.053 250.728 259.518 250.732 259.992 250.741C279.976 251.116 293.758 258.85 293.635 265.55C293.577 268.717 290.398 271.994 284.913 274.542C278.588 277.482 270.068 279.098 260.918 279.098H260.914Z" fill="#252528"/>
<path d="M258.6 254.027C259.032 254.027 259.477 254.031 259.93 254.039C268.792 254.208 277.328 256.006 283.352 258.974C288.22 261.374 290.365 263.975 290.341 265.488C290.312 266.944 288.195 269.38 283.525 271.549C277.711 274.25 269.471 275.8 260.914 275.8C260.453 275.8 259.983 275.796 259.518 275.787C249.882 275.606 245.818 273.664 244.109 272.064C243.001 271.03 241.881 269.331 241.968 264.577C242.054 259.889 243.24 258.216 244.265 257.284C245.892 255.795 249.701 254.027 258.6 254.027ZM258.6 247.43C239.316 247.43 235.56 255.037 235.383 264.454C235.202 274.101 238.85 281.997 259.399 282.384C259.905 282.392 260.416 282.397 260.918 282.397C280.771 282.397 296.752 275.025 296.929 265.612C297.11 255.964 280.602 247.83 260.053 247.442C259.559 247.434 259.073 247.43 258.6 247.43Z" fill="black"/>
<path d="M409.661 124.595C409.661 124.595 377.698 32.229 333.385 20.8044C289.08 9.38381 110.248 -3.83021 92.5127 7.82534C80.0437 16.0217 32.1278 88.0907 4.77264 130.161C-0.247071 137.883 8.48699 147.139 16.4839 142.579L55.7934 117.001L111.224 134.342L104.755 180.407L409.661 124.595Z" fill="#FF5C00"/>
<path d="M409.661 124.595C409.661 124.595 377.698 32.229 333.385 20.8044C289.08 9.38381 110.248 -3.83021 92.5127 7.82534C80.0437 16.0217 32.1278 88.0907 4.77264 130.161C-0.247071 137.883 8.48699 147.139 16.4839 142.579L55.7934 117.001L111.224 134.342L104.755 180.407L409.661 124.595Z" stroke="black" stroke-width="6" stroke-miterlimit="10"/>
<path d="M95.9882 325.918C95.8482 324.438 95.7452 322.966 95.6629 321.49L78.6106 331.781C78.6106 331.781 79.3889 346.15 99.616 345.729C97.8453 339.31 96.6182 332.701 95.984 325.918H95.9882Z" fill="#5C000C" stroke="black" stroke-width="6" stroke-miterlimit="10"/>
<path d="M73.3727 289.138C73.3727 289.138 69.1065 323.684 79.7884 335.174C90.3961 346.587 311.877 115.088 451.725 258.195C453.376 259.885 456.115 259.848 457.684 258.088C490.758 220.973 469.844 168.954 437.362 143.948C403.904 118.192 357.75 112.218 316.749 113.319C244.138 115.269 171.955 137.191 111.274 177.332C93.5339 189.066 71.149 202.49 61.3031 222.152C60.9037 222.956 60.5248 223.768 60.1666 224.593C46.8781 255.408 76.9635 282.471 73.3686 289.142L73.3727 289.138Z" fill="#FF5C00"/>
<path d="M75.2546 289.74C75.3657 289.373 75.3163 289.542 75.3246 289.628C75.2422 292.255 75.1763 295.095 75.1887 297.722C75.3246 307.897 75.5675 324.446 81.7897 332.428L82.0532 332.746L82.185 332.907C82.185 332.907 81.9667 332.696 81.8638 332.63C81.5714 332.437 81.349 332.354 81.172 332.317C81.032 332.28 80.9331 332.288 80.9249 332.284C82.3868 331.971 83.7127 331.196 85.2075 330.379C93.5998 325.407 101.366 319.412 109.318 313.702C202.959 243.484 350.182 152.837 452.034 256.801L452.409 257.181L452.594 257.366C453.677 258.529 455.744 258.529 456.782 257.309C461.101 252.34 464.873 246.816 467.521 240.788C474.443 225.554 474.143 207.837 468.765 192.183C453.142 147.045 411.048 125.63 366.266 118.984C341.419 115.166 315.839 115.611 290.831 117.796C288.533 117.97 284.802 118.464 282.459 118.704C279.959 119.005 276.537 119.318 274.1 119.722C263.274 121.227 251.616 123.239 240.955 125.675C238.476 126.17 235.157 126.966 232.756 127.593C227.996 128.755 221.115 130.536 216.486 131.951C215.119 132.313 211.734 133.348 210.416 133.703C209.127 134.119 201.859 136.498 200.41 136.972C195.744 138.448 189.226 140.996 184.556 142.666C182.048 143.705 175.295 146.406 172.849 147.416C170.102 148.537 164.082 151.365 161.306 152.553C157.057 154.495 152.263 156.96 148.042 158.985C145.036 160.588 138.95 163.817 135.965 165.425C132.942 167.156 127.157 170.554 124.13 172.302C120.168 174.858 113.798 178.75 109.882 181.36C83.1774 198.594 48.4059 220.878 62.0526 257.638C64.7663 265.526 69.1148 272.802 73.0762 280.232C74.3363 282.883 76.5599 286.713 75.2587 289.744L75.2546 289.74ZM71.4908 288.536C71.5608 288.367 71.6843 288.086 71.6555 288.111C71.672 288.082 71.672 288.008 71.6843 287.946C71.6843 287.187 71.4743 286.524 71.1778 285.716C69.6583 281.931 67.34 278.401 65.3593 274.74C58.19 262.268 52.3879 247.587 55.2375 232.892C60.9078 205.421 89.0825 189.094 110.582 174.685C112.699 173.291 119.139 169.243 121.383 167.783C123.99 166.274 129.948 162.72 132.427 161.277C134.717 159.921 141.231 156.515 143.682 155.146C145.757 154.025 149.142 152.355 151.308 151.291C155.591 149.09 162.307 146.014 166.779 144.039C168.982 143.029 172.334 141.59 174.636 140.683C184.696 136.461 196.333 132.247 206.718 128.941C208.971 128.162 212.586 127.164 214.897 126.471C221.197 124.521 229.124 122.563 235.527 120.959C241.984 119.582 249.952 117.726 256.446 116.667C261.367 115.669 268.306 114.725 273.317 113.975C275.792 113.542 279.296 113.245 281.796 112.931C283.579 112.75 287.425 112.28 289.225 112.09L290.291 112.004L298.807 111.332C303.658 110.866 310.979 110.684 315.867 110.429C356.309 109.365 399.156 114.502 433.47 137.624C452.133 150.178 466.269 169.362 472.664 190.942C479.022 212.043 476.498 235.045 463.259 252.992C462.11 254.682 460.574 256.492 459.244 258.067L458.544 258.9C457.004 260.636 454.307 261.11 452.264 260.042C451.692 259.749 451.14 259.32 450.695 258.85C445.157 253.219 439.252 247.937 432.989 243.126C365.731 190.525 279.457 215.419 211.54 253.243C177.02 272.172 144.674 295.347 113.09 318.843C106.213 323.89 99.3854 329.035 92.2121 333.744C88.263 336.123 81.172 341.416 77.3506 337.38C67.6159 326.627 68.983 301.976 71.4867 288.523L71.4908 288.536Z" fill="black"/>
<path d="M381.404 215.263C382.343 215.527 383.286 215.791 384.233 216.063C388.375 208.155 387.832 197.967 385.55 189.362C385.534 195.794 384.743 202.597 381.848 208.262C380.601 210.637 379.032 212.661 377.105 214.191C378.599 214.508 380.049 214.888 381.408 215.267L381.404 215.263Z" fill="black"/>
<path d="M402.459 222.915C404.427 219.476 405.535 215.531 405.699 211.626C405.695 211.296 405.691 209.664 405.683 209.293C405.695 208.213 405.432 206.753 405.345 205.656C405.127 204.465 404.867 203.298 404.633 202.148C404.456 203.327 404.303 204.494 404.11 205.636C403.842 206.621 403.587 208.027 403.233 208.975C403.023 209.528 402.615 210.826 402.347 211.342C400.914 214.661 398.588 217.72 395.598 219.633C397.966 220.548 400.239 221.686 402.463 222.923L402.459 222.915Z" fill="black"/>
<path d="M422.476 235.333C423.966 233.725 425.214 231.882 426.276 229.986C428.237 226.366 429.192 222.684 429.904 218.858C429.954 218.45 430.217 216.38 430.267 215.914C430.452 214.545 430.435 212.649 430.534 211.251C430.534 208.493 430.291 204.877 429.983 202.102C429.538 204.811 428.817 208.283 428.084 210.892C427.466 212.847 426.663 215.205 425.819 217.069C423.596 221.892 420.561 226.543 415.854 228.984C415.492 229.136 415.166 229.305 414.808 229.371L415.315 230.584C417.748 232.105 420.132 233.68 422.476 235.329V235.333Z" fill="black"/>
<path d="M130.681 162.411C130.55 162.493 130.422 162.584 130.29 162.671C129.965 163.013 129.211 163.627 129.038 163.771C129.018 163.804 129.001 163.833 128.981 163.87C128.013 165.47 126.741 166.719 125.291 167.622C124.41 173.526 125.633 179.682 127.997 185.099C128.561 186.373 129.215 187.598 129.817 188.826L131.925 192.339L130.842 188.431C130.459 186.522 130.047 184.46 129.899 182.527C129.434 177.678 130.043 172.343 132.386 168.121C133.008 166.979 133.823 165.804 134.762 164.918C134.845 164.847 134.935 164.744 135.005 164.703C135.034 164.687 135.075 164.654 135.104 164.629C134.911 164.448 133.428 163.046 131.937 161.64C131.513 161.891 131.093 162.147 130.681 162.415V162.411Z" fill="black"/>
<path d="M143.92 174.718C143.488 171.65 143.525 168.401 144.011 165.4C144.336 163.582 144.715 161.669 145.547 160.077C145.547 160.077 140.943 158.807 138.769 158.21C138.217 158.44 138.221 158.436 138.769 158.21C138.744 158.201 138.711 158.193 138.687 158.185C138.308 158.374 137.929 158.593 137.595 158.746C137.381 158.84 137.171 158.939 136.961 159.038C136.743 164.81 138.242 170.595 140.774 175.703C142.261 178.75 144.291 181.628 146.482 184.188C146.099 183.133 145.679 182.11 145.349 181.059C144.719 179.039 144.184 176.82 143.925 174.714L143.92 174.718Z" fill="black"/>
<path d="M166.375 181.455C165.593 180.214 164.366 178.482 163.645 177.212C163.225 176.425 162.262 174.705 161.866 173.926C161.393 172.834 160.849 171.63 160.388 170.541C158.617 165.742 157.625 160.617 158.288 155.629C158.506 154.28 158.798 152.808 159.313 151.559C159.4 151.345 159.466 151.172 159.601 150.924C159.601 150.92 159.606 150.92 159.61 150.916L158.028 150.298C155.644 151.37 153.215 152.351 150.785 153.307C150.789 154.054 150.818 154.8 150.867 155.542C151.637 164.311 156.06 172.199 161.883 178.527C162.883 179.641 164.481 181.104 165.556 182.184L169.484 185.491L166.375 181.455Z" fill="black"/>
<path opacity="0.2" d="M248.717 215.366C206.475 223.307 146 256.669 119.596 272.102C118.34 272.835 116.738 272.011 116.623 270.564C116.083 263.72 116.841 256.356 117.426 252.114C117.5 251.586 117.78 251.12 118.204 250.798C122.94 247.24 129.948 242.454 139.774 236.846C141.483 235.869 140.503 233.243 138.575 233.63C131.019 235.156 124.953 237.308 120.197 239.53C118.044 240.536 115.486 239.638 114.465 237.49C109.903 227.904 103.755 213.733 111.117 199.253C111.426 198.651 111.751 198.058 112.089 197.468C114.177 193.881 116.841 190.628 119.876 187.639C120.51 187.012 119.748 185.99 118.974 186.431C118.954 186.443 118.933 186.456 118.912 186.464C104.986 194.458 87.4765 203.508 79.1171 217.852C78.7795 218.437 78.4542 219.035 78.1453 219.637C66.6605 242.223 88.0447 264.054 85.0181 268.91C85.0181 268.91 80.159 294.741 87.6576 303.91C89.2389 305.844 98.496 299.985 113.032 290.659C134.923 276.616 156.472 261.675 179.511 249.553C201.995 237.725 225.5 227.706 249.948 220.717C253.308 219.757 252.147 214.714 248.713 215.358L248.717 215.366Z" fill="black" stroke="black" stroke-width="6" stroke-miterlimit="10"/>
<path opacity="0.2" d="M164.349 209.705C182.946 195.093 204.795 185.083 227.131 177.657C256.195 168.249 287.297 163.903 317.741 167.569C323.613 168.319 329.428 169.403 335.18 170.772C335.209 170.78 335.234 170.789 335.263 170.797C336.848 171.242 336.597 173.572 334.95 173.654C315.612 174.635 296.937 176.388 277.929 179.62C239.188 186.081 201.662 197.448 164.353 209.705H164.349Z" fill="black" stroke="black" stroke-width="6" stroke-miterlimit="10"/>
<path opacity="0.2" d="M236.849 63.8973C211.174 71.533 192.763 97.5281 164.584 97.1735C141.956 96.8891 121.313 81.1642 117.867 58.2777C114.379 35.1192 77.7294 58.2571 68.6 64.2725C47.467 78.1957 27.4623 100.183 18.1517 124.443C17.2169 126.879 16.3892 129.341 15.6768 131.819C14.775 134.964 14.5568 137.319 14.8533 139.034C15.0344 138.91 15.2115 138.786 15.3968 138.667C24.1597 133.08 32.8773 127.502 42.7767 124.109C51.8773 120.988 61.5337 121.12 70.8649 122.967C78.5695 124.492 85.9982 126.385 93.1139 129.827C100.983 133.637 107.197 140.609 109.816 148.97C109.997 149.547 110.154 150.12 110.294 150.693C111.681 152.334 113.012 154.033 114.284 155.785C116.306 158.572 119.37 160.803 123.047 162.646C126.115 161.137 129.388 160.391 132.872 160.399C146.362 157.942 159.309 153.25 171.972 148.014C173.713 147.267 175.455 146.513 177.197 145.758C182.83 142.369 188.974 139.693 195.283 137.933C200.85 135.575 206.447 133.286 212.109 131.167C220.888 127.877 229.746 125.337 238.801 123.56C241.136 108.136 246.328 92.9228 251.682 80.7106C255.915 71.0506 246.946 60.8917 236.849 63.8932V63.8973Z" fill="black"/>
<path d="M121.305 373.175C116.664 373.175 111.747 370.537 107.465 365.75C102.877 360.621 99.4225 353.464 97.7383 345.597C95.8852 336.947 96.3176 328.396 98.9572 321.519C101.407 315.129 105.459 311.026 110.368 309.971C111.196 309.793 112.052 309.703 112.904 309.703C117.545 309.703 122.462 312.341 126.745 317.128C131.332 322.257 134.787 329.415 136.471 337.281C138.324 345.931 137.892 354.482 135.252 361.359C132.802 367.75 128.75 371.852 123.842 372.907C123.014 373.085 122.157 373.175 121.305 373.175Z" fill="white"/>
<path d="M112.9 313.005C116.59 313.005 120.638 315.252 124.286 319.334C128.499 324.042 131.678 330.66 133.247 337.978C134.943 345.894 134.552 353.987 132.176 360.184C129.425 367.358 125.341 369.217 123.15 369.687C122.549 369.815 121.927 369.881 121.305 369.881C117.611 369.881 113.567 367.634 109.919 363.553C105.706 358.844 102.527 352.227 100.958 344.909C99.2619 336.993 99.6531 328.899 102.029 322.702C104.78 315.529 108.865 313.669 111.056 313.199C111.657 313.071 112.279 313.005 112.9 313.005ZM112.9 306.409C111.821 306.409 110.743 306.52 109.672 306.751C97.1988 309.427 90.4084 327.13 94.514 346.29C98.2654 363.804 109.816 376.474 121.305 376.474C122.384 376.474 123.463 376.362 124.533 376.132C137.007 373.456 143.797 355.752 139.691 336.593C135.94 319.078 124.389 306.409 112.9 306.409Z" fill="black"/>
</g>
<defs>
<clipPath id="clip0_1_81">
<rect width="476" height="539" fill="white"/>
</clipPath>
</defs>
</svg>
