<svg width="197" height="46" viewBox="0 0 197 46" fill="none" xmlns="http://www.w3.org/2000/svg">
  <g clip-path="url(#clip0_126_328)">
    <path d="M19.8099 43.4622C26.6289 42.3907 31.4348 36.9281 30.5443 31.261C29.6539 25.594 23.4042 21.8686 16.5853 22.9401C9.76635 24.0115 4.9604 29.4742 5.85087 35.1412C6.74134 40.8082 12.991 44.5336 19.8099 43.4622Z" fill="#5D4AAC" />
    <path d="M14.6449 40.0202C15.9625 39.8132 16.7487 37.8514 16.401 35.6384C16.0533 33.4255 14.7033 31.7994 13.3857 32.0064C12.0681 32.2134 11.2819 34.1752 11.6296 36.3882C11.9773 38.6011 13.3273 40.2273 14.6449 40.0202Z" fill="white" />
    <path d="M25.0293 38.3887C26.3469 38.1817 27.1331 36.2199 26.7854 34.0069C26.4377 31.7939 25.0877 30.1678 23.7701 30.3749C22.4525 30.5819 21.6663 32.5437 22.014 34.7566C22.3617 36.9696 23.7117 38.5957 25.0293 38.3887Z" fill="white" />
    <path d="M4.01726 18.477C4.01726 18.477 3.62158 10.5371 6.61911 8.32652C9.61664 6.11597 22.7179 -0.325868 24.4116 0.0128688C25.603 0.250861 31.4126 4.22664 34.7576 6.56714C35.3723 6.9964 34.9942 7.96005 34.251 7.86076L28.7129 7.11174L25.0555 10.1078L26.9448 13.3842L4.01726 18.477Z" fill="#FFC400" />
    <path d="M2.51912 18.5516L4.01726 18.477C2.51912 18.5516 2.5191 18.5513 2.51909 18.5509L2.51905 18.5501L2.51894 18.5479L2.51862 18.5412L2.51764 18.5194L2.51457 18.4426C2.51215 18.3771 2.50914 18.2835 2.50649 18.1651C2.50119 17.9285 2.49727 17.5921 2.50239 17.1831C2.51258 16.368 2.55878 15.2493 2.70514 14.0491C2.85048 12.8574 3.10048 11.5342 3.53861 10.3316C3.96803 9.15292 4.63769 7.92397 5.72883 7.1193L6.61911 8.32652L5.72883 7.1193C7.35819 5.91772 11.5069 3.69945 15.3578 1.86018C17.3061 0.929645 19.2325 0.0701094 20.7929 -0.539161C21.5702 -0.84261 22.2839 -1.09475 22.8775 -1.26176C23.1733 -1.345 23.4662 -1.4148 23.7381 -1.45652C23.9768 -1.49316 24.3371 -1.53165 24.7054 -1.45807L2.51912 18.5516ZM2.51912 18.5516C2.54111 18.9929 2.75658 19.4021 3.10803 19.67M2.51912 18.5516L3.10803 19.67M3.10803 19.67C3.45948 19.9378 3.91115 20.0371 4.34252 19.9413M3.10803 19.67L4.34252 19.9413M4.34252 19.9413L27.27 14.8485C27.7363 14.745 28.1253 14.4256 28.3177 13.9884C28.5101 13.5513 28.4828 13.0486 28.2442 12.6349L26.9909 10.4614L29.1586 8.68568L34.05 9.34723L34.0524 9.34755M4.34252 19.9413L34.0524 9.34755M34.0524 9.34755C36.3336 9.65231 37.5361 6.67935 35.6176 5.33811M34.0524 9.34755L35.6176 5.33811M35.6176 5.33811C33.9408 4.16486 31.6363 2.5747 29.5961 1.24492M35.6176 5.33811L29.5961 1.24492M29.5961 1.24492C28.5777 0.581177 27.61 -0.0276621 26.8122 -0.489761M29.5961 1.24492L26.8122 -0.489761M26.8122 -0.489761C26.4142 -0.720229 26.0422 -0.923764 25.7177 -1.08178M26.8122 -0.489761L25.7177 -1.08178M25.7177 -1.08178C25.4296 -1.22206 25.059 -1.38737 24.7057 -1.458L25.7177 -1.08178Z" stroke="#302C40" stroke-width="3" stroke-linejoin="round" />
    <path d="M-0.634515 25.8523C-1.27794 24.7666 -1.23501 23.3252 -0.387381 22.2637L-0.387314 22.2636C1.67991 19.6752 6.3844 15.444 15.6157 13.9503C24.9083 12.4455 30.6043 15.0422 33.301 16.8848L-0.634515 25.8523ZM-0.634515 25.8523C-2.3038 28.3368 -1.50206 31.907 1.28012 33.3381L1.5769 33.4909L1.57997 33.4925L1.61046 33.5087L1.72394 33.5689C1.82024 33.6201 1.95385 33.6913 2.10304 33.7712C2.40398 33.9324 2.75695 34.1231 2.99684 34.2577C3.88859 34.7608 4.95114 34.4462 5.47948 33.6692L5.48158 33.6661C5.74164 33.2816 6.42225 32.3846 7.69879 31.3822L6.7724 30.2025L7.6988 31.3822C9.36748 30.0719 12.5061 28.246 17.7321 27.3999C22.939 26.5571 26.4136 27.303 28.3451 28.0163L28.3455 28.0164C29.8103 28.5569 30.6884 29.1832 31.0342 29.4608C31.8052 30.0801 32.9043 29.9945 33.5763 29.2946L33.5795 29.2912C33.7962 29.0641 34.1357 28.7202 34.4283 28.426C34.5731 28.2804 34.7038 28.1495 34.7983 28.0551L34.91 27.9436L34.9401 27.9135L34.9455 27.9082C37.2015 25.7018 36.9299 22.0404 34.5948 20.1578C34.8546 18.9548 34.4011 17.6363 33.3013 16.885L-0.634515 25.8523Z" fill="#FFC400" stroke="#302C40" stroke-width="3" stroke-linejoin="round" />
    <g clip-path="url(#clip1_126_328)">
      <path d="M167.394 15.8237H165.332C164.882 15.8237 164.52 16.1787 164.52 16.6189V17.1917C163.458 16.5953 162.231 16.245 160.923 16.245C156.823 16.245 153.505 19.5965 153.679 23.6533C153.834 27.3645 157.002 30.3941 160.792 30.4604C162.154 30.484 163.429 30.1337 164.525 29.5136C164.535 29.9444 164.892 30.2947 165.336 30.2947H167.398C167.847 30.2947 168.21 29.9396 168.21 29.4994V16.6189C168.21 16.1787 167.847 15.8237 167.398 15.8237H167.394ZM160.923 26.8533C158.957 26.8533 157.354 25.2864 157.354 23.355C157.354 21.4237 158.953 19.8568 160.923 19.8568C162.893 19.8568 164.491 21.4237 164.491 23.355C164.491 25.2864 162.893 26.8533 160.923 26.8533Z" fill="#FFC400" />
      <path d="M124.271 25.6888C123.904 25.329 123.3 25.3101 122.938 25.6793C122.161 26.4651 121.016 26.9053 119.78 26.7207C118.196 26.484 116.936 25.187 116.757 23.6296C116.516 21.4947 118.22 19.6817 120.345 19.6817C121.311 19.6817 122.19 20.0556 122.837 20.6663C123.199 21.0071 123.783 20.974 124.14 20.6284L125.435 19.3598C125.821 18.9811 125.797 18.3752 125.401 18.0107C123.899 16.6095 121.794 15.8189 119.505 16.0698C116.139 16.4343 113.42 19.0994 113.048 22.3941C112.556 26.7302 116.018 30.4178 120.345 30.4178C122.397 30.4178 124.256 29.5846 125.589 28.245C125.946 27.8852 125.922 27.3077 125.56 26.9527L124.271 25.6888Z" fill="#FFC400" />
      <path d="M137.406 17.1302C137.57 16.7373 137.357 16.2781 136.942 16.1598C136.338 15.9894 135.701 15.8994 135.044 15.8994C133.765 15.8994 132.562 16.2402 131.519 16.8367V16.813C131.519 16.3633 131.147 16.0036 130.693 16.0036H128.593C128.134 16.0036 127.767 16.3681 127.767 16.813V29.4568C127.767 29.9065 128.139 30.2663 128.593 30.2663H130.693C131.152 30.2663 131.519 29.9018 131.519 29.4568V22.858C131.707 20.9834 133.214 19.516 135.044 19.516C135.266 19.516 135.484 19.5397 135.691 19.5823C136.054 19.6533 136.416 19.4876 136.556 19.1562L137.406 17.1302Z" fill="#FFC400" />
      <path d="M150.594 24.6C151.656 24.6 152.487 23.7195 152.429 22.6781C152.414 22.4272 152.385 22.1763 152.346 21.9255C152.202 21.026 151.883 20.1408 151.386 19.3266C150.077 17.1775 147.687 15.7337 144.953 15.7337C140.82 15.7337 137.454 19.0331 137.454 23.0852C137.454 23.0899 137.454 23.0947 137.454 23.0994C137.454 23.1041 137.454 23.1136 137.454 23.1184C137.454 23.2367 137.459 23.3503 137.464 23.4592C137.464 23.5255 137.478 23.5917 137.483 23.658C137.493 23.7716 137.502 23.8805 137.517 23.9894C137.526 24.0604 137.526 24.1314 137.536 24.1976C137.555 24.316 137.575 24.4296 137.604 24.5479C137.604 24.5527 137.604 24.5621 137.604 24.5669C137.604 24.5763 137.604 24.5858 137.608 24.5953C137.628 24.6947 137.652 24.7846 137.671 24.884C137.671 24.8982 137.676 24.9124 137.686 24.9266C137.705 24.9976 137.729 25.0639 137.748 25.1302C137.773 25.2107 137.797 25.2864 137.821 25.3669C137.835 25.4047 137.845 25.4473 137.86 25.4852C137.908 25.632 137.971 25.7787 138.029 25.9207C138.029 25.9255 138.033 25.9349 138.038 25.9397C138.294 26.5456 138.627 27.1278 139.062 27.6675C140.346 29.258 142.167 30.1811 144.074 30.4036V30.3799H144.079C144.364 30.413 144.649 30.432 144.944 30.432C146.494 30.432 147.938 29.9681 149.13 29.1728C149.763 28.7562 149.816 27.8615 149.28 27.3314L148.28 26.3515C147.885 25.9633 147.281 25.9207 146.798 26.1953C146.252 26.5077 145.615 26.6876 144.939 26.6876C143.456 26.6876 142.181 25.826 141.597 24.5858H150.584L150.594 24.6ZM142.66 20.2781C144.258 19.0379 146.581 19.303 147.841 20.8651C148.107 21.1917 148.305 21.5515 148.435 21.9255H141.472C141.689 21.3006 142.09 20.7231 142.66 20.2781Z" fill="#FFC400" />
      <path d="M195.184 24.5006C196.232 24.5006 197.058 23.6296 196.995 22.6024C196.981 22.3515 196.952 22.1053 196.913 21.8592C196.768 20.9692 196.454 20.0935 195.962 19.2888C194.668 17.1633 192.306 15.7385 189.602 15.7385C185.517 15.7385 182.19 19 182.19 23.0047C182.19 23.0095 182.19 23.0142 182.19 23.0189C182.19 23.0237 182.19 23.0331 182.19 23.0379C182.19 23.1562 182.194 23.2651 182.199 23.3787C182.199 23.445 182.214 23.5065 182.219 23.5728C182.228 23.6817 182.238 23.7905 182.252 23.8994C182.262 23.9657 182.262 24.0414 182.272 24.1077C182.291 24.2213 182.31 24.3396 182.339 24.4533C182.339 24.458 182.339 24.4675 182.339 24.4722C182.339 24.4817 182.339 24.4911 182.344 24.5006C182.363 24.5953 182.388 24.6899 182.407 24.7846C182.407 24.7988 182.412 24.813 182.421 24.8272C182.441 24.8935 182.465 24.9598 182.484 25.026C182.508 25.1018 182.532 25.1823 182.557 25.258C182.571 25.2959 182.581 25.3385 182.595 25.3763C182.643 25.5231 182.706 25.6651 182.764 25.8071C182.764 25.8118 182.769 25.8213 182.774 25.826C183.025 26.4225 183.358 27 183.788 27.5349C185.058 29.1065 186.859 30.0201 188.742 30.2379V30.2142H188.747C189.027 30.2473 189.312 30.2663 189.602 30.2663C191.133 30.2663 192.562 29.8071 193.745 29.0213C194.368 28.6095 194.426 27.7243 193.895 27.2036L192.91 26.2379C192.519 25.8544 191.92 25.8118 191.447 26.0864C190.906 26.3988 190.278 26.574 189.607 26.574C188.144 26.574 186.878 25.7219 186.299 24.4959H195.179L195.184 24.5006ZM187.337 20.226C188.916 19 191.21 19.2651 192.461 20.8083C192.722 21.1302 192.92 21.4852 193.05 21.8592H186.164C186.381 21.2391 186.777 20.671 187.337 20.2308V20.226Z" fill="#FFC400" />
      <path d="M172.396 19.4118H170.924C170.532 19.4118 170.238 19.0568 170.238 18.7065V16.5243C170.238 16.1077 170.532 15.8189 170.924 15.8189H172.396V11.7053C172.396 11.3219 172.759 11 173.116 11H175.801C176.192 11 176.491 11.3219 176.491 11.7053V15.8142H180.026C180.417 15.8142 180.746 16.103 180.746 16.5195V18.7018C180.746 19.0568 180.417 19.4071 180.026 19.4071H176.491V26.0864C176.491 27.0805 176.984 27.3077 177.737 27.3077C178.394 27.3077 179.635 26.9527 180.031 26.8249C180.456 26.6639 180.818 26.858 180.881 27.2083L181.306 29.168C181.402 29.5515 181.238 29.8402 180.881 30.0343C180.355 30.3231 178.196 30.9953 176.622 30.9953C173.246 30.9953 172.396 28.7799 172.396 26.2142V19.4071V19.4118Z" fill="#FFC400" />
    </g>
    <g clip-path="url(#clip2_126_328)">
      <path d="M103.853 16.1906C99.9101 16.1906 96.7053 19.3615 96.7053 23.2623C96.7053 27.1631 99.9101 30.334 103.853 30.334C107.795 30.334 111 27.1631 111 23.2623C111 19.3615 107.795 16.1906 103.853 16.1906ZM103.853 26.74C101.917 26.74 100.338 25.1778 100.338 23.2623C100.338 21.3468 101.917 19.7846 103.853 19.7846C105.789 19.7846 107.368 21.3468 107.368 23.2623C107.368 25.1778 105.789 26.74 103.853 26.74Z" fill="white" />
      <path d="M72.1337 16.1906C68.1911 16.1906 64.9863 19.3615 64.9863 23.2623C64.9863 27.1631 68.1911 30.334 72.1337 30.334C76.0762 30.334 79.281 27.1631 79.281 23.2623C79.281 19.3615 76.0715 16.1906 72.1337 16.1906ZM72.1337 26.74C70.1976 26.74 68.6187 25.1778 68.6187 23.2623C68.6187 21.3468 70.1976 19.7846 72.1337 19.7846C74.0697 19.7846 75.6486 21.3468 75.6486 23.2623C75.6486 25.1778 74.0697 26.74 72.1337 26.74Z" fill="white" />
      <path d="M94.2336 16.0837H92.1566C91.7289 16.0837 91.3765 16.4277 91.3765 16.8555V17.1112C90.338 16.53 89.1397 16.1953 87.8616 16.1953C83.919 16.1953 80.7142 19.3661 80.7142 23.2669C80.7142 27.1678 83.919 30.3386 87.8616 30.3386C89.1397 30.3386 90.338 30.0039 91.3765 29.4227V32.9795C91.3765 34.8996 89.7741 36.4572 87.824 36.4107C85.9584 36.3688 84.4312 34.7555 84.4312 32.9097V32.1054C84.4312 31.6823 84.0835 31.3336 83.6512 31.3336H81.5742C81.1466 31.3336 80.7941 31.6776 80.7941 32.1054V32.8725C80.7941 36.6432 83.7546 39.8233 87.5561 40C91.6256 40.186 94.9948 36.9686 94.9948 32.9795V16.8555C94.9948 16.4324 94.6471 16.0837 94.2148 16.0837H94.2336ZM87.8663 26.74C85.9302 26.74 84.3513 25.1778 84.3513 23.2623C84.3513 21.3468 85.9302 19.7846 87.8663 19.7846C89.8023 19.7846 91.3812 21.3468 91.3812 23.2623C91.3812 25.1778 89.8023 26.74 87.8663 26.74Z" fill="white" />
      <path d="M62.5146 16H60.4376C60.01 16 59.6576 16.3441 59.6576 16.7718V17.0275C58.6238 16.4417 57.4255 16.1069 56.1473 16.1069C52.2048 16.1069 49 19.2824 49 23.1786C49 27.0748 52.2048 30.2503 56.1473 30.2503C57.4255 30.2503 58.6238 29.9155 59.6623 29.3344V32.8911C59.6623 34.8113 58.0599 36.3688 56.1097 36.3224C54.2442 36.2805 52.717 34.6672 52.717 32.8214V32.017C52.717 31.594 52.3693 31.2453 51.9369 31.2453H49.8693C49.4417 31.2453 49.0893 31.5893 49.0893 32.017V32.7842C49.0893 36.5548 52.0497 39.735 55.8513 39.9117C59.9207 40.0976 63.29 36.8803 63.29 32.8911V16.7718C63.29 16.3487 62.9422 16 62.5099 16H62.5146ZM56.1473 26.6563C54.2113 26.6563 52.6324 25.0941 52.6324 23.1786C52.6324 21.2631 54.2113 19.7009 56.1473 19.7009C58.0834 19.7009 59.6623 21.2631 59.6623 23.1786C59.6623 25.0941 58.0834 26.6563 56.1473 26.6563Z" fill="white" />
    </g>
  </g>
  <defs>
    <clipPath id="clip0_126_328">
      <rect width="197" height="45.4022" fill="white" />
    </clipPath>
    <clipPath id="clip1_126_328">
      <rect width="84" height="20" fill="white" transform="translate(113 11)" />
    </clipPath>
    <clipPath id="clip2_126_328">
      <rect width="62" height="24" fill="white" transform="translate(49 16)" />
    </clipPath>
  </defs>
</svg>