<svg width="40" height="40" viewBox="0 0 40 40" fill="none" xmlns="http://www.w3.org/2000/svg">
<g clip-path="url(#clip0_1351_142)">
<path d="M7.12703 25.1341C7.12703 25.1341 6.70791 16.0524 9.88301 13.5239C13.0581 10.9955 26.9355 3.62727 28.7295 4.01472C29.9915 4.28694 36.1453 8.83446 39.6885 11.5115C40.3396 12.0025 39.939 13.1048 39.1518 12.9912L33.2857 12.1345L29.4115 15.5614L31.4128 19.309L7.12703 25.1341Z" fill="#5C36B3"/>
<path d="M35.1014 23.1851C34.9962 23.1317 34.8849 23.0799 34.775 23.0265L34.8075 22.9914L34.8385 22.9597C35.536 22.2466 35.4308 21.0224 34.6312 20.4496C32.3639 18.8247 27.3515 16.3597 18.9645 17.7842C10.63 19.1987 6.49293 23.1734 4.74067 25.4748C4.11895 26.2914 4.37877 27.5206 5.2696 27.9598L5.37322 28.0216C5.26341 28.1268 5.15515 28.2337 5.05153 28.3372C3.35185 30.0457 3.7787 33.0701 5.85575 34.1907L6.14341 34.346C6.14341 34.346 7.04351 34.8454 7.52295 35.1276C7.68843 35.2261 7.89258 35.171 8.00084 35.004C8.31634 34.5147 9.0556 33.5077 10.3918 32.4071C12.1518 30.9575 15.3362 29.0453 20.5095 28.1669C25.6642 27.2918 29.1904 28.055 31.2427 28.8499C32.7877 29.4478 33.7481 30.1542 34.1765 30.5149C34.325 30.6402 34.5353 30.6252 34.6683 30.4799C35.0998 30.0056 35.9876 29.0787 35.9876 29.0787C37.7012 27.3268 37.2403 24.269 35.1045 23.1835L35.1014 23.1851Z" fill="#5C36B3"/>
</g>
<defs>
<clipPath id="clip0_1351_142">
<rect width="40" height="40" fill="white"/>
</clipPath>
</defs>
</svg>
