<svg width="51" height="45" viewBox="0 0 51 45" fill="none" xmlns="http://www.w3.org/2000/svg">
<path d="M25.449 0C13.1973 0 3.26532 9.93197 3.26532 22.1837V23.6017C2.87593 23.9666 2.63263 24.4855 2.63263 25.0613V27H2C0.895431 27 0 27.8954 0 29V43C0 44.1046 0.895431 45 2 45H9C10.1046 45 11 44.1046 11 43V29C11 27.8954 10.1046 27 9 27H7.89794V25.0613C7.89794 24.4855 7.65467 23.9666 7.26532 23.6017V22.1837C7.26532 12.1411 15.4064 4 25.449 4C35.4916 4 43.6327 12.1411 43.6327 22.1837V23.6017C43.2433 23.9666 43 24.4855 43 25.0613V27.449H42.3674C41.2628 27.449 40.3674 28.3444 40.3674 29.449V43C40.3674 44.1046 41.2628 45 42.3674 45H48.898C50.0026 45 50.898 44.1046 50.898 43V29.449C50.898 28.3444 50.0026 27.449 48.898 27.449H48.2653V25.0613C48.2653 24.4855 48.022 23.9666 47.6327 23.6017V22.1837C47.6327 9.93197 37.7007 0 25.449 0Z" fill="#5C36B3"/>
</svg>
