<svg width="23" height="19" viewBox="0 0 23 19" fill="none" xmlns="http://www.w3.org/2000/svg">
<path d="M19.4832 1.59125C17.9944 0.847875 16.4024 0.307624 14.7381 0C14.5337 0.394363 14.2949 0.924789 14.1303 1.34674C12.3611 1.0628 10.6081 1.0628 8.87144 1.34674C8.70683 0.924789 8.46262 0.394363 8.25639 0C6.59027 0.307624 4.99652 0.84986 3.50768 1.59518C0.504699 6.43786 -0.309361 11.1603 0.0976701 15.8156C2.08941 17.4029 4.01964 18.3671 5.9173 18.998C6.38584 18.3099 6.80372 17.5784 7.16371 16.8074C6.4781 16.5294 5.82142 16.1863 5.20095 15.788C5.36556 15.6579 5.52657 15.5218 5.68213 15.3818C9.4666 17.2708 13.5785 17.2708 17.3178 15.3818C17.4752 15.5218 17.6362 15.6579 17.799 15.788C17.1767 16.1883 16.5182 16.5313 15.8326 16.8094C16.1926 17.5784 16.6087 18.3119 17.079 19C18.9785 18.369 20.9105 17.4049 22.9022 15.8156C23.3798 10.4189 22.0864 5.73984 19.4832 1.59125ZM7.67929 12.9526C6.54323 12.9526 5.61157 11.8208 5.61157 10.4425C5.61157 9.06425 6.52334 7.93049 7.67929 7.93049C8.83528 7.93049 9.76691 9.06227 9.74702 10.4425C9.74881 11.8208 8.83528 12.9526 7.67929 12.9526ZM15.3206 12.9526C14.1846 12.9526 13.2529 11.8208 13.2529 10.4425C13.2529 9.06425 14.1646 7.93049 15.3206 7.93049C16.4766 7.93049 17.4082 9.06227 17.3883 10.4425C17.3883 11.8208 16.4766 12.9526 15.3206 12.9526Z" fill="white"/>
</svg>
