<?xml version="1.0" encoding="UTF-8"?>
<svg xmlns="http://www.w3.org/2000/svg" viewBox="0 0 600 600">
  <defs>
    <style>
      .cls-1, .cls-2 {
        stroke-width: 0px;
      }

      .cls-2 {
        fill: #fff;
        opacity: 0;
      }
    </style>
  </defs>
  <g id="bg">
    <rect class="cls-2" width="600.22" height="600.22"/>
  </g>
  <g id="eyebrows-1">
    <g>
      <path class="cls-1" d="m454.73,364.49c-16.09,0-34.14-5.81-34.29-14.16-.13-7,14.32-15.08,35.27-15.48.49,0,.98-.01,1.46-.01,19.01,0,20.73,7.12,20.87,14.41.14,7.49-1.42,14.84-21.77,15.22-.51,0-1.02.01-1.53.01Z"/>
      <path class="cls-1" d="m457.17,338.35c9.31,0,13.28,1.84,14.98,3.39,1.13,1.03,2.29,2.73,2.38,7.58.09,4.95-1.07,6.71-2.21,7.78-1.78,1.66-6.03,3.69-16.11,3.88-.49,0-.98.01-1.46.01-18.98,0-30.72-6.94-30.79-10.71-.03-1.51,2.24-4.26,7.28-6.74,6.31-3.11,15.26-4.99,24.55-5.17.47,0,.94-.01,1.39-.01h0m0-7.01c-.5,0-1.01,0-1.53.01-21.57.41-38.9,8.94-38.71,19.05.19,9.87,16.97,17.6,37.8,17.6.53,0,1.06,0,1.6-.02,21.57-.41,25.4-8.68,25.21-18.8-.19-9.87-4.13-17.85-24.37-17.85h0Z"/>
    </g>
    <g>
      <path class="cls-1" d="m310.32,364.48c-20.35,0-22.05-7.32-22.05-14.81s1.7-14.81,22.05-14.81,35.55,7.81,35.55,14.81-14.6,14.81-35.55,14.81Z"/>
      <path class="cls-1" d="m310.32,338.36c9.29,0,18.27,1.71,24.64,4.7,5.09,2.39,7.41,5.1,7.41,6.6s-2.32,4.22-7.41,6.6c-6.37,2.99-15.35,4.7-24.64,4.7-10.09,0-14.37-1.94-16.18-3.57-1.17-1.05-2.36-2.79-2.36-7.73,0-4.95,1.19-6.69,2.36-7.73,1.81-1.63,6.1-3.57,16.18-3.57m0-7.01c-21.57,0-25.56,8.2-25.56,18.32,0,10.12,3.99,18.32,25.56,18.32s39.06-8.2,39.06-18.32-17.49-18.32-39.06-18.32h0Z"/>
    </g>
  </g>
</svg>