<svg width="33" height="18" viewBox="0 0 33 18" fill="none" xmlns="http://www.w3.org/2000/svg">
  <path d="M19.7517 3.6003C20.5602 3.30714 21.209 2.66455 21.4729 1.86038C21.6236 1.40119 22.0039 1 22.49 1C23.3095 1 24.0876 1.35795 24.6178 1.97887L31.6869 9.91674C31.9368 10.2094 31.8998 10.6482 31.6043 10.8955L29.3674 12.7672C29.0697 13.0163 28.6245 12.9752 28.3781 12.6759L24.4007 8.33693C24.1932 8.08483 23.782 8.23068 23.782 8.55641V16.2505C23.782 16.6333 23.4696 16.9437 23.0843 16.9437H19.7717C19.2194 16.9437 18.7717 16.496 18.7717 15.9437V4.77282C18.7717 4.22053 19.2325 3.78856 19.7517 3.6003Z" stroke="white" stroke-width="2" />
  <path d="M13.1009 3.6003C12.2924 3.30714 11.6436 2.66455 11.3797 1.86038C11.229 1.40119 10.8487 1 10.3626 1C9.54307 1 8.76498 1.35795 8.23477 1.97887L1.1657 9.91674C0.915765 10.2094 0.952788 10.6482 1.24828 10.8955L3.4852 12.7672C3.78287 13.0163 4.22808 12.9752 4.47451 12.6759L8.45185 8.33693C8.65943 8.08483 9.07063 8.23068 9.07063 8.55641V16.2505C9.07063 16.6333 9.38298 16.9437 9.76827 16.9437H13.0809C13.6332 16.9437 14.0809 16.496 14.0809 15.9437V4.77282C14.0809 4.22053 13.6201 3.78856 13.1009 3.6003Z" stroke="white" stroke-width="2" />
  <path d="M12.2733 2.61047H21.1309" stroke="white" stroke-width="2" />
  <path d="M13.8838 14.689L18.7152 14.689" stroke="white" stroke-width="2" />
</svg>