<svg width="24" height="9" viewBox="0 0 24 9" fill="none" xmlns="http://www.w3.org/2000/svg">
  <path d="M0 1.84367C0 0.825437 0.911895 0 2.03678 0H9.13154C10.2564 0 11.1683 0.825437 11.1683 1.84367V3.54906C11.1683 6.3407 8.6682 8.60377 5.58416 8.60377C2.50011 8.60377 0 6.3407 0 3.54906V1.84367Z" fill="white" />
  <path d="M12.8317 1.84367C12.8317 0.825437 13.7436 0 14.8685 0H21.9632C23.0881 0 24 0.825437 24 1.84367V3.54906C24 6.3407 21.4999 8.60377 18.4158 8.60377C15.3318 8.60377 12.8317 6.3407 12.8317 3.54906V1.84367Z" fill="white" />
  <path d="M5.94059 0H19.4851V2.79623H5.94059V0Z" fill="white" />
</svg>