<svg width="24" height="21" viewBox="0 0 24 21" fill="none" xmlns="http://www.w3.org/2000/svg">
  <path d="M2.08386 14.0838C2.08386 14.0838 1.80456 8.03175 3.92046 6.34679C6.03637 4.66182 15.2843 -0.248389 16.4798 0.00980905C17.3208 0.191215 21.4218 3.2217 23.783 5.00572C24.2169 5.33292 23.9499 6.06745 23.4253 5.99177L19.5161 5.42084L16.9344 7.70455L18.268 10.202L2.08386 14.0838Z" fill="#8D8BFF" />
  <path d="M20.7261 12.785C20.656 12.7494 20.5818 12.7149 20.5086 12.6793L20.5303 12.6559L20.5509 12.6348C21.0157 12.1596 20.9456 11.3438 20.4128 10.9621C18.9018 9.87921 15.5615 8.23653 9.97238 9.18586C4.41826 10.1285 1.6613 12.7773 0.493585 14.3109C0.0792674 14.8551 0.252415 15.6742 0.846063 15.9669L0.915116 16.0081C0.841941 16.0782 0.769796 16.1494 0.700743 16.2184C-0.43193 17.3569 -0.147473 19.3724 1.23668 20.1192L1.42837 20.2227C1.42837 20.2227 2.02821 20.5555 2.34771 20.7436C2.45798 20.8092 2.59403 20.7725 2.66617 20.6612C2.87642 20.3351 3.36907 19.664 4.25954 18.9306C5.43241 17.9646 7.5545 16.6903 11.002 16.1049C14.4371 15.5217 16.787 16.0303 18.1546 16.5601C19.1842 16.9585 19.8243 17.4293 20.1098 17.6697C20.2087 17.7531 20.3489 17.7431 20.4375 17.6463C20.725 17.3302 21.3166 16.7125 21.3166 16.7125C22.4586 15.5451 22.1515 13.5073 20.7281 12.7839L20.7261 12.785Z" fill="#8D8BFF" />
</svg>