<svg width="71" height="71" viewBox="0 0 71 71" fill="none" xmlns="http://www.w3.org/2000/svg">
<g clip-path="url(#clip0_4541_2170)">
<path opacity="0.7" d="M60.17 10.32C53.29 3.44 44.27 0 35.25 0C26.23 0 17.21 3.44 10.32 10.32C-3.45001 24.09 -3.45001 46.4 10.32 60.17C17.2 67.05 26.22 70.49 35.25 70.49C44.28 70.49 53.29 67.05 60.18 60.17C73.95 46.4 73.95 24.09 60.18 10.32H60.17ZM51.68 18.81C56.07 23.2 58.49 29.04 58.49 35.25C58.49 39.4 57.39 43.38 55.35 46.88L23.62 15.14C27.12 13.11 31.1 12 35.25 12C41.46 12 47.3 14.42 51.69 18.81H51.68ZM18.81 51.69C11.21 44.09 10.01 32.52 15.14 23.63L46.88 55.37C43.38 57.4 39.4 58.51 35.25 58.51C29.04 58.51 23.2 56.09 18.81 51.7V51.69Z" fill="white"/>
</g>
<defs>
<clipPath id="clip0_4541_2170">
<rect width="70.5" height="70.5" fill="white"/>
</clipPath>
</defs>
</svg>
