<svg width="40" height="40" viewBox="0 0 40 40" fill="none" xmlns="http://www.w3.org/2000/svg">
<g clip-path="url(#clip0_1351_152)">
<path d="M4.49222 11.5485C4.22037 11.6964 4.12126 12.0392 4.27084 12.3141L10.7709 24.2602C10.9205 24.5351 11.2621 24.638 11.534 24.4901L14.4873 22.8832C14.7591 22.7352 14.8583 22.3925 14.7087 22.1176L14.167 21.1221L18.1048 18.9795C18.6485 18.6836 19.3317 18.8895 19.6309 19.4393L28.2977 35.3674C28.7464 36.1921 29.7713 36.501 30.5868 36.0572L33.0479 34.7181C33.8635 34.2743 34.1608 33.246 33.7121 32.4213L25.0453 16.4932C24.7462 15.9434 24.9444 15.2579 25.4881 14.9621L26.5408 14.3893C27.879 13.6611 28.7516 12.2956 28.8577 10.7637L29.0089 8.58045C29.0545 7.92212 29.4761 7.35389 30.0894 7.12424L34.5959 5.43667C34.8011 5.35981 34.9728 5.21335 35.0815 5.02233Lnan nanLnan nanL35.0815 5.02233C35.4006 4.46164 35.0791 3.74582 34.4473 3.61026L29.8332 2.62025C27.3374 2.08475 24.7427 2.41677 22.4748 3.56186Lnan nanLnan nanL22.4748 3.56186L8.75028 11.167L8.20861 10.1715C8.05903 9.89659 7.71739 9.79365 7.44555 9.94156L4.49222 11.5485Z" fill="#5C36B3"/>
</g>
<defs>
<clipPath id="clip0_1351_152">
<rect width="40" height="40" fill="white"/>
</clipPath>
</defs>
</svg>
