<svg width="1727" height="517" viewBox="0 0 1727 517" fill="none" xmlns="http://www.w3.org/2000/svg">
<g clip-path="url(#clip0_1280_316)">
<g opacity="0.2">
<path d="M-194.27 111.61H279.59L383.78 223H1152.06L1263.45 111.61H1721.77" stroke="white" stroke-miterlimit="10"/>
<path d="M1231.6 146.16H1726.42" stroke="white" stroke-miterlimit="10"/>
<path d="M196.73 111.57L166.13 80.98H-197" stroke="white" stroke-miterlimit="10"/>
<path d="M27.8 450.77H-195.67" stroke="white" stroke-miterlimit="10"/>
<path d="M1476.35 2.5H1725.09" stroke="white" stroke-miterlimit="10"/>
<path d="M1338.67 410.86H1605.37L1643.28 372.95H1722.43" stroke="white" stroke-miterlimit="10"/>
<path d="M156.1 516.02H1174.61L1205.55 485.07H1724.83" stroke="white" stroke-miterlimit="10"/>
<path d="M1195.72 495.71H394.25L365.73 467.18H165.08" stroke="white" stroke-miterlimit="10"/>
</g>
<path d="M-194.27 109.61H279.59L383.78 221H1152.06L1263.45 109.61H1721.77" stroke="black" stroke-miterlimit="10"/>
<path d="M1231.6 144.16H1726.42" stroke="black" stroke-miterlimit="10"/>
<path d="M196.73 109.57L166.13 78.98H-197" stroke="black" stroke-miterlimit="10"/>
<path d="M27.8 448.77H-195.67" stroke="black" stroke-miterlimit="10"/>
<path d="M1476.35 0.5H1725.09" stroke="black" stroke-miterlimit="10"/>
<path d="M1338.67 408.86H1605.37L1643.28 370.95H1722.43" stroke="black" stroke-miterlimit="10"/>
<path d="M156.1 514.02H1174.61L1205.55 483.07H1724.83" stroke="black" stroke-miterlimit="10"/>
<path d="M1195.72 493.71H394.25L365.73 465.18H165.08" stroke="black" stroke-miterlimit="10"/>
</g>
<defs>
<clipPath id="clip0_1280_316">
<rect width="1923.42" height="516.52" fill="white" transform="translate(-197)"/>
</clipPath>
</defs>
</svg>
