<svg width="600" height="600" viewBox="0 0 600 600" fill="none" xmlns="http://www.w3.org/2000/svg">
<g clip-path="url(#clip0_1380_287)">
<path opacity="0.2" d="M241.25 385.576H175.105C168.265 385.576 162.479 380.538 161.539 373.766L151.863 303.895C151.717 302.891 152.495 302 153.516 302H263.422C264.443 302 265.221 302.907 265.075 303.912L254.816 373.88C253.827 380.603 248.057 385.576 241.266 385.576H241.25Z" fill="white"/>
<path opacity="0.2" d="M312.176 385.576H378.321C385.16 385.576 390.947 380.538 391.887 373.766L401.563 303.895C401.709 302.891 400.931 302 399.91 302H290.003C288.982 302 288.204 302.907 288.35 303.912L298.61 373.88C299.598 380.603 305.368 385.576 312.16 385.576H312.176Z" fill="white"/>
<path d="M241.25 385.576H175.105C168.265 385.576 162.479 380.538 161.539 373.766L151.863 303.895C151.717 302.891 152.495 302 153.516 302H263.422C264.443 302 265.221 302.907 265.075 303.912L254.816 373.88C253.827 380.603 248.057 385.576 241.266 385.576H241.25Z" stroke="#CECECE" stroke-width="6" stroke-linecap="round" stroke-linejoin="round"/>
<path d="M312.176 385.576H378.321C385.16 385.576 390.947 380.538 391.887 373.766L401.563 303.895C401.709 302.891 400.931 302 399.91 302H290.003C288.982 302 288.204 302.907 288.35 303.912L298.61 373.88C299.598 380.603 305.368 385.576 312.16 385.576H312.176Z" stroke="#CECECE" stroke-width="6" stroke-linecap="round" stroke-linejoin="round"/>
<path d="M263.422 302H290.003" stroke="#CECECE" stroke-width="6" stroke-linecap="round" stroke-linejoin="round"/>
<path d="M264.735 317.358H288.707" stroke="#CECECE" stroke-width="6" stroke-linecap="round" stroke-linejoin="round"/>
<path d="M151.863 303.895H127V315.527H152.22L151.863 303.895Z" fill="#CECECE"/>
<path d="M423.006 314.296H398.143V302.664H423.363L423.006 314.296Z" fill="#CECECE"/>
</g>
<defs>
<clipPath id="clip0_1380_287">
<rect width="600" height="600" fill="white"/>
</clipPath>
</defs>
</svg>
