<svg width="600" height="600" viewBox="0 0 600 600" fill="none" xmlns="http://www.w3.org/2000/svg">
<g clip-path="url(#clip0_1393_382)">
<path d="M263.422 302H290.003" stroke="#CECECE" stroke-width="6" stroke-linecap="round" stroke-linejoin="round"/>
<path d="M264.735 317.358H288.707" stroke="#CECECE" stroke-width="6" stroke-linecap="round" stroke-linejoin="round"/>
<path d="M151.863 303.895H127V315.527H152.22L151.863 303.895Z" fill="#CECECE"/>
<path d="M423.006 314.296H398.143V302.664H423.362L423.006 314.296Z" fill="#CECECE"/>
<path d="M156 304.018C156 304.015 156 304.013 156 304.011C156.001 304.01 156.003 304.008 156.005 304.005C156.008 304.003 156.01 304.001 156.011 304C156.013 304 156.015 304 156.018 304H260.982C260.985 304 260.987 304 260.989 304C260.989 304 260.989 304 260.989 304C260.99 304.001 260.992 304.003 260.995 304.005C260.997 304.008 260.999 304.01 261 304.011C261 304.013 261 304.015 261 304.018V333.5C261 362.495 237.495 386 208.5 386C179.505 386 156 362.495 156 333.5V304.018Z" fill="#D9D9D9" stroke="#CECECE" stroke-width="8"/>
<path d="M293 304.018C293 304.015 293 304.013 293 304.011C293.001 304.01 293.003 304.008 293.005 304.005C293.008 304.003 293.01 304.001 293.011 304C293.013 304 293.015 304 293.018 304H397.982C397.985 304 397.987 304 397.989 304C397.989 304 397.989 304 397.989 304C397.99 304.001 397.992 304.003 397.995 304.005C397.997 304.008 397.999 304.01 398 304.011C398 304.013 398 304.015 398 304.018V333.5C398 362.495 374.495 386 345.5 386C316.505 386 293 362.495 293 333.5V304.018Z" fill="#D9D9D9" stroke="#CECECE" stroke-width="8"/>
</g>
<defs>
<clipPath id="clip0_1393_382">
<rect width="600" height="600" fill="white"/>
</clipPath>
</defs>
</svg>
