<svg width="600" height="600" viewBox="0 0 600 600" fill="none" xmlns="http://www.w3.org/2000/svg">
<g clip-path="url(#clip0_1207_1092)">
<path d="M227.79 483.781C240.847 479.622 283.18 468.099 349.387 469.053C351.759 469.083 353.58 471.185 353.311 473.54L350.506 497.197C350.267 499.225 348.536 500.745 346.492 500.73C333.346 500.626 285.985 501.163 237.31 513.207C235.162 513.744 232.983 512.447 232.446 510.301C229.984 500.552 227.149 493.322 225.343 489.207C224.388 487.031 225.522 484.512 227.79 483.796V483.781Z" fill="#CECECE" stroke="#221F20" stroke-width="2" stroke-miterlimit="10"/>
<path d="M307.546 498.241C301.1 498.241 295.863 493.009 295.863 486.569C295.863 480.129 301.1 474.897 307.546 474.897C313.993 474.897 319.23 480.129 319.23 486.569C319.23 493.009 313.993 498.241 307.546 498.241ZM307.546 481.784C304.905 481.784 302.757 483.93 302.757 486.569C302.757 489.207 304.905 491.354 307.546 491.354C310.188 491.354 312.336 489.207 312.336 486.569C312.336 483.93 310.188 481.784 307.546 481.784Z" fill="#CECECE" stroke="#221F20" stroke-width="2" stroke-miterlimit="10"/>
<path d="M335.36 495.513C328.914 495.513 323.677 490.281 323.677 483.841C323.677 477.401 328.914 472.169 335.36 472.169C341.807 472.169 347.044 477.401 347.044 483.841C347.044 490.281 341.807 495.513 335.36 495.513ZM335.36 479.056C332.719 479.056 330.571 481.202 330.571 483.841C330.571 486.479 332.719 488.626 335.36 488.626C338.002 488.626 340.15 486.479 340.15 483.841C340.15 481.202 338.002 479.056 335.36 479.056Z" fill="#CECECE" stroke="#221F20" stroke-width="2" stroke-miterlimit="10"/>
<path d="M294.923 512L272.511 514.46C264.364 515.354 257.022 509.466 256.127 501.327L254.247 484.214C253.351 476.075 259.245 468.725 267.393 467.846L289.805 465.386C297.952 464.492 305.294 470.38 306.189 478.519L308.069 495.632C308.964 503.771 303.07 511.106 294.923 512ZM268.885 481.53C268.303 481.59 267.87 482.127 267.93 482.723L269.81 499.836C269.87 500.417 270.407 500.85 270.989 500.79L293.401 498.33C293.983 498.271 294.416 497.734 294.356 497.153L292.476 480.04C292.416 479.443 291.879 479.026 291.297 479.086L268.885 481.545V481.53Z" fill="#FFC500" stroke="#221F20" stroke-width="2" stroke-miterlimit="10"/>
<path d="M306.506 482.017L292.326 483.571C289.697 483.859 287.799 486.222 288.087 488.849L288.089 488.864C288.377 491.491 290.743 493.387 293.372 493.099L307.552 491.545C310.182 491.256 312.08 488.893 311.791 486.266L311.79 486.251C311.501 483.625 309.136 481.728 306.506 482.017Z" fill="#FFC500" stroke="#221F20" stroke-width="2" stroke-miterlimit="10"/>
<path d="M364.354 465.938H350.656C348.01 465.938 345.866 468.08 345.866 470.723V500.641C345.866 503.284 348.01 505.426 350.656 505.426H364.354C366.999 505.426 369.144 503.284 369.144 500.641V470.723C369.144 468.08 366.999 465.938 364.354 465.938Z" fill="#CECECE" stroke="#221F20" stroke-width="2" stroke-miterlimit="10"/>
<path d="M349.805 464H368.308C370.949 464 373.098 466.147 373.098 468.785V480.949C373.098 481.799 372.411 482.484 371.561 482.484H346.582C345.731 482.484 345.045 481.799 345.045 480.949V468.785C345.045 466.147 347.194 464 349.835 464H349.805Z" fill="#CECECE" stroke="#221F20" stroke-width="2" stroke-miterlimit="10"/>
<path d="M358.966 485.227C360.87 485.227 362.413 483.686 362.413 481.784C362.413 479.882 360.87 478.34 358.966 478.34C357.063 478.34 355.52 479.882 355.52 481.784C355.52 483.686 357.063 485.227 358.966 485.227Z" fill="#FFC500" stroke="#221F20" stroke-width="2" stroke-miterlimit="10"/>
</g>
<defs>
<clipPath id="clip0_1207_1092">
<rect width="600" height="600" fill="white"/>
</clipPath>
</defs>
</svg>
