<svg width="200" height="78" viewBox="0 0 200 78" fill="none" xmlns="http://www.w3.org/2000/svg">
<mask id="path-1-outside-1_1359_162" maskUnits="userSpaceOnUse" x="0" y="16" width="140" height="40" fill="black">
<rect fill="white" y="16" width="140" height="40"/>
<path d="M29.0899 26.0313C24.3112 26.0313 20.4186 29.8876 20.4186 34.6356C20.4186 39.3837 24.3049 43.2399 29.0899 43.2399C33.8749 43.2399 37.7612 39.3837 37.7612 34.6356C37.7612 29.8876 33.8749 26.0313 29.0899 26.0313ZM29.0899 38.8624C26.7417 38.8624 24.8239 36.9657 24.8239 34.6293C24.8239 32.293 26.7354 30.3963 29.0899 30.3963C31.4444 30.3963 33.3559 32.293 33.3559 34.6293C33.3559 36.9657 31.4444 38.8624 29.0899 38.8624Z"/>
<path d="M55.8633 25.8995H53.3442C52.8252 25.8995 52.4011 26.3202 52.4011 26.8352V27.1493C51.1415 26.4396 49.6858 26.0313 48.1351 26.0313C43.3564 26.0313 39.4638 29.8876 39.4638 34.6356C39.4638 39.3837 43.35 43.2399 48.1351 43.2399C49.6858 43.2399 51.1415 42.8317 52.4011 42.122V46.4492C52.4011 48.7856 50.458 50.676 48.0971 50.6257C45.8312 50.5755 43.983 48.616 43.983 46.3676V45.3878C43.983 44.8728 43.5589 44.452 43.0399 44.452H40.5208C40.0018 44.452 39.5777 44.8728 39.5777 45.3878V46.3236C39.5777 50.9084 43.1665 54.7771 47.7806 54.9907C52.7176 55.2168 56.8064 51.2978 56.8064 46.4492V26.8352C56.8064 26.3202 56.3823 25.8995 55.8633 25.8995ZM48.1351 38.8624C45.7869 38.8624 43.8691 36.9657 43.8691 34.6293C43.8691 32.293 45.7805 30.3963 48.1351 30.3963C50.4896 30.3963 52.4011 32.293 52.4011 34.6293C52.4011 36.9657 50.4896 38.8624 48.1351 38.8624Z"/>
<path d="M87.0609 25.9371C85.4532 25.9057 83.9468 26.3265 82.6556 27.0676C82.643 26.5526 82.2189 26.1381 81.6999 26.1381H79.2694C78.7377 26.1381 78.3137 26.5652 78.3137 27.0865V53.609C78.3137 54.1365 78.7441 54.5573 79.2694 54.5573H81.6999C82.2316 54.5573 82.6556 54.1303 82.6556 53.609V41.7954C83.9089 42.5113 85.3583 42.9259 86.9027 42.9259C91.7447 42.9259 95.6562 38.9189 95.4537 34.0767C95.2701 29.6426 91.5295 26.0251 87.0609 25.9434V25.9371ZM86.9027 38.6049C84.5798 38.6049 82.6936 36.7333 82.6936 34.4284C82.6936 32.1234 84.5798 30.2518 86.9027 30.2518C89.2256 30.2518 91.1117 32.1234 91.1117 34.4284C91.1117 36.7333 89.2256 38.6049 86.9027 38.6049Z"/>
<path d="M105.511 25.9371C100.789 25.9371 96.9538 29.7494 96.9538 34.4284C96.9538 39.1073 100.796 42.9196 105.511 42.9196C110.227 42.9196 114.068 39.1073 114.068 34.4284C114.068 29.7494 110.227 25.9371 105.511 25.9371ZM105.511 38.6049C103.188 38.6049 101.302 36.7333 101.302 34.4284C101.302 32.1234 103.188 30.2518 105.511 30.2518C107.834 30.2518 109.72 32.1234 109.72 34.4284C109.72 36.7333 107.834 38.6049 105.511 38.6049Z"/>
<path d="M124.113 25.9371C119.391 25.9371 115.556 29.7494 115.556 34.4284C115.556 39.1073 119.398 42.9196 124.113 42.9196C128.829 42.9196 132.671 39.1073 132.671 34.4284C132.671 29.7494 128.829 25.9371 124.113 25.9371ZM124.113 38.6049C121.79 38.6049 119.904 36.7333 119.904 34.4284C119.904 32.1234 121.79 30.2518 124.113 30.2518C126.436 30.2518 128.322 32.1234 128.322 34.4284C128.322 36.7333 126.436 38.6049 124.113 38.6049Z"/>
<path d="M138.044 17H135.607C135.08 17 134.652 17.4246 134.652 17.9484V42.0089C134.652 42.5327 135.08 42.9573 135.607 42.9573H138.044C138.572 42.9573 139 42.5327 139 42.0089V17.9484C139 17.4246 138.572 17 138.044 17Z"/>
<path d="M17.3932 25.799H14.8741C14.355 25.799 13.931 26.2198 13.931 26.7348V27.0488C12.6714 26.3391 11.2157 25.9309 9.66495 25.9309C4.88625 25.9309 1 29.7934 1 34.5351C1 39.2769 4.88625 43.1394 9.67128 43.1394C11.222 43.1394 12.6778 42.7312 13.9373 42.0215V46.3487C13.9373 48.6851 11.9942 50.5755 9.63331 50.5253C7.36738 50.475 5.51919 48.5155 5.51919 46.2671V45.2873C5.51919 44.7723 5.09512 44.3515 4.57611 44.3515H2.05068C1.53167 44.3515 1.1076 44.7723 1.1076 45.2873V46.2231C1.1076 50.8079 4.69637 54.6767 9.31051 54.8902C14.2474 55.1163 18.3362 51.1973 18.3362 46.3487V26.7348C18.3362 26.2198 17.9122 25.799 17.3932 25.799ZM9.66495 38.7619C7.31675 38.7619 5.39894 36.8652 5.39894 34.5288C5.39894 32.1925 7.31042 30.2958 9.66495 30.2958C12.0195 30.2958 13.931 32.1925 13.931 34.5288C13.931 36.8652 12.0195 38.7619 9.66495 38.7619Z"/>
<path d="M69.1677 46.757L66.0156 46.7193C65.6422 46.7193 65.3321 47.0145 65.3257 47.385L65.3067 48.9489C65.2941 50.1861 66.2878 51.1973 67.5347 51.2098C68.7816 51.2224 69.8006 50.2364 69.8133 48.9991L69.8323 47.4353C69.8323 47.0647 69.5348 46.757 69.1613 46.7507L69.1677 46.757Z"/>
<path d="M67.1423 25.5101C62.7497 25.7236 59.1292 29.2784 58.8697 33.6307C58.7115 36.256 59.7495 38.6551 61.4964 40.3446L61.5218 40.376L64.6485 43.0892C64.9206 43.3278 65.2688 43.4534 65.6295 43.4534H69.5095C69.8702 43.4534 70.2184 43.3215 70.4905 43.0892L73.1046 40.8156L73.1868 40.7465L73.5223 40.4514L73.5413 40.4388C75.2312 38.8561 76.2883 36.6203 76.2883 34.1457C76.2883 29.2281 72.1362 25.2588 67.1359 25.5038L67.1423 25.5101ZM67.5727 30.1011C69.8196 30.1011 71.6488 31.9162 71.6488 34.152C71.6488 36.3879 69.8196 38.1967 67.5727 38.1967C65.3257 38.1967 63.4965 36.3816 63.4965 34.152C63.4965 31.9224 65.3257 30.1011 67.5727 30.1011Z"/>
</mask>
<path d="M29.0899 26.0313C24.3112 26.0313 20.4186 29.8876 20.4186 34.6356C20.4186 39.3837 24.3049 43.2399 29.0899 43.2399C33.8749 43.2399 37.7612 39.3837 37.7612 34.6356C37.7612 29.8876 33.8749 26.0313 29.0899 26.0313ZM29.0899 38.8624C26.7417 38.8624 24.8239 36.9657 24.8239 34.6293C24.8239 32.293 26.7354 30.3963 29.0899 30.3963C31.4444 30.3963 33.3559 32.293 33.3559 34.6293C33.3559 36.9657 31.4444 38.8624 29.0899 38.8624Z" fill="white"/>
<path d="M55.8633 25.8995H53.3442C52.8252 25.8995 52.4011 26.3202 52.4011 26.8352V27.1493C51.1415 26.4396 49.6858 26.0313 48.1351 26.0313C43.3564 26.0313 39.4638 29.8876 39.4638 34.6356C39.4638 39.3837 43.35 43.2399 48.1351 43.2399C49.6858 43.2399 51.1415 42.8317 52.4011 42.122V46.4492C52.4011 48.7856 50.458 50.676 48.0971 50.6257C45.8312 50.5755 43.983 48.616 43.983 46.3676V45.3878C43.983 44.8728 43.5589 44.452 43.0399 44.452H40.5208C40.0018 44.452 39.5777 44.8728 39.5777 45.3878V46.3236C39.5777 50.9084 43.1665 54.7771 47.7806 54.9907C52.7176 55.2168 56.8064 51.2978 56.8064 46.4492V26.8352C56.8064 26.3202 56.3823 25.8995 55.8633 25.8995ZM48.1351 38.8624C45.7869 38.8624 43.8691 36.9657 43.8691 34.6293C43.8691 32.293 45.7805 30.3963 48.1351 30.3963C50.4896 30.3963 52.4011 32.293 52.4011 34.6293C52.4011 36.9657 50.4896 38.8624 48.1351 38.8624Z" fill="white"/>
<path d="M87.0609 25.9371C85.4532 25.9057 83.9468 26.3265 82.6556 27.0676C82.643 26.5526 82.2189 26.1381 81.6999 26.1381H79.2694C78.7377 26.1381 78.3137 26.5652 78.3137 27.0865V53.609C78.3137 54.1365 78.7441 54.5573 79.2694 54.5573H81.6999C82.2316 54.5573 82.6556 54.1303 82.6556 53.609V41.7954C83.9089 42.5113 85.3583 42.9259 86.9027 42.9259C91.7447 42.9259 95.6562 38.9189 95.4537 34.0767C95.2701 29.6426 91.5295 26.0251 87.0609 25.9434V25.9371ZM86.9027 38.6049C84.5798 38.6049 82.6936 36.7333 82.6936 34.4284C82.6936 32.1234 84.5798 30.2518 86.9027 30.2518C89.2256 30.2518 91.1117 32.1234 91.1117 34.4284C91.1117 36.7333 89.2256 38.6049 86.9027 38.6049Z" fill="white"/>
<path d="M105.511 25.9371C100.789 25.9371 96.9538 29.7494 96.9538 34.4284C96.9538 39.1073 100.796 42.9196 105.511 42.9196C110.227 42.9196 114.068 39.1073 114.068 34.4284C114.068 29.7494 110.227 25.9371 105.511 25.9371ZM105.511 38.6049C103.188 38.6049 101.302 36.7333 101.302 34.4284C101.302 32.1234 103.188 30.2518 105.511 30.2518C107.834 30.2518 109.72 32.1234 109.72 34.4284C109.72 36.7333 107.834 38.6049 105.511 38.6049Z" fill="white"/>
<path d="M124.113 25.9371C119.391 25.9371 115.556 29.7494 115.556 34.4284C115.556 39.1073 119.398 42.9196 124.113 42.9196C128.829 42.9196 132.671 39.1073 132.671 34.4284C132.671 29.7494 128.829 25.9371 124.113 25.9371ZM124.113 38.6049C121.79 38.6049 119.904 36.7333 119.904 34.4284C119.904 32.1234 121.79 30.2518 124.113 30.2518C126.436 30.2518 128.322 32.1234 128.322 34.4284C128.322 36.7333 126.436 38.6049 124.113 38.6049Z" fill="white"/>
<path d="M138.044 17H135.607C135.08 17 134.652 17.4246 134.652 17.9484V42.0089C134.652 42.5327 135.08 42.9573 135.607 42.9573H138.044C138.572 42.9573 139 42.5327 139 42.0089V17.9484C139 17.4246 138.572 17 138.044 17Z" fill="white"/>
<path d="M17.3932 25.799H14.8741C14.355 25.799 13.931 26.2198 13.931 26.7348V27.0488C12.6714 26.3391 11.2157 25.9309 9.66495 25.9309C4.88625 25.9309 1 29.7934 1 34.5351C1 39.2769 4.88625 43.1394 9.67128 43.1394C11.222 43.1394 12.6778 42.7312 13.9373 42.0215V46.3487C13.9373 48.6851 11.9942 50.5755 9.63331 50.5253C7.36738 50.475 5.51919 48.5155 5.51919 46.2671V45.2873C5.51919 44.7723 5.09512 44.3515 4.57611 44.3515H2.05068C1.53167 44.3515 1.1076 44.7723 1.1076 45.2873V46.2231C1.1076 50.8079 4.69637 54.6767 9.31051 54.8902C14.2474 55.1163 18.3362 51.1973 18.3362 46.3487V26.7348C18.3362 26.2198 17.9122 25.799 17.3932 25.799ZM9.66495 38.7619C7.31675 38.7619 5.39894 36.8652 5.39894 34.5288C5.39894 32.1925 7.31042 30.2958 9.66495 30.2958C12.0195 30.2958 13.931 32.1925 13.931 34.5288C13.931 36.8652 12.0195 38.7619 9.66495 38.7619Z" fill="white"/>
<path d="M69.1677 46.757L66.0156 46.7193C65.6422 46.7193 65.3321 47.0145 65.3257 47.385L65.3067 48.9489C65.2941 50.1861 66.2878 51.1973 67.5347 51.2098C68.7816 51.2224 69.8006 50.2364 69.8133 48.9991L69.8323 47.4353C69.8323 47.0647 69.5348 46.757 69.1613 46.7507L69.1677 46.757Z" fill="white"/>
<path d="M67.1423 25.5101C62.7497 25.7236 59.1292 29.2784 58.8697 33.6307C58.7115 36.256 59.7495 38.6551 61.4964 40.3446L61.5218 40.376L64.6485 43.0892C64.9206 43.3278 65.2688 43.4534 65.6295 43.4534H69.5095C69.8702 43.4534 70.2184 43.3215 70.4905 43.0892L73.1046 40.8156L73.1868 40.7465L73.5223 40.4514L73.5413 40.4388C75.2312 38.8561 76.2883 36.6203 76.2883 34.1457C76.2883 29.2281 72.1362 25.2588 67.1359 25.5038L67.1423 25.5101ZM67.5727 30.1011C69.8196 30.1011 71.6488 31.9162 71.6488 34.152C71.6488 36.3879 69.8196 38.1967 67.5727 38.1967C65.3257 38.1967 63.4965 36.3816 63.4965 34.152C63.4965 31.9224 65.3257 30.1011 67.5727 30.1011Z" fill="white"/>
<path d="M29.0899 26.0313C24.3112 26.0313 20.4186 29.8876 20.4186 34.6356C20.4186 39.3837 24.3049 43.2399 29.0899 43.2399C33.8749 43.2399 37.7612 39.3837 37.7612 34.6356C37.7612 29.8876 33.8749 26.0313 29.0899 26.0313ZM29.0899 38.8624C26.7417 38.8624 24.8239 36.9657 24.8239 34.6293C24.8239 32.293 26.7354 30.3963 29.0899 30.3963C31.4444 30.3963 33.3559 32.293 33.3559 34.6293C33.3559 36.9657 31.4444 38.8624 29.0899 38.8624Z" stroke="black" stroke-width="2" mask="url(#path-1-outside-1_1359_162)"/>
<path d="M55.8633 25.8995H53.3442C52.8252 25.8995 52.4011 26.3202 52.4011 26.8352V27.1493C51.1415 26.4396 49.6858 26.0313 48.1351 26.0313C43.3564 26.0313 39.4638 29.8876 39.4638 34.6356C39.4638 39.3837 43.35 43.2399 48.1351 43.2399C49.6858 43.2399 51.1415 42.8317 52.4011 42.122V46.4492C52.4011 48.7856 50.458 50.676 48.0971 50.6257C45.8312 50.5755 43.983 48.616 43.983 46.3676V45.3878C43.983 44.8728 43.5589 44.452 43.0399 44.452H40.5208C40.0018 44.452 39.5777 44.8728 39.5777 45.3878V46.3236C39.5777 50.9084 43.1665 54.7771 47.7806 54.9907C52.7176 55.2168 56.8064 51.2978 56.8064 46.4492V26.8352C56.8064 26.3202 56.3823 25.8995 55.8633 25.8995ZM48.1351 38.8624C45.7869 38.8624 43.8691 36.9657 43.8691 34.6293C43.8691 32.293 45.7805 30.3963 48.1351 30.3963C50.4896 30.3963 52.4011 32.293 52.4011 34.6293C52.4011 36.9657 50.4896 38.8624 48.1351 38.8624Z" stroke="black" stroke-width="2" mask="url(#path-1-outside-1_1359_162)"/>
<path d="M87.0609 25.9371C85.4532 25.9057 83.9468 26.3265 82.6556 27.0676C82.643 26.5526 82.2189 26.1381 81.6999 26.1381H79.2694C78.7377 26.1381 78.3137 26.5652 78.3137 27.0865V53.609C78.3137 54.1365 78.7441 54.5573 79.2694 54.5573H81.6999C82.2316 54.5573 82.6556 54.1303 82.6556 53.609V41.7954C83.9089 42.5113 85.3583 42.9259 86.9027 42.9259C91.7447 42.9259 95.6562 38.9189 95.4537 34.0767C95.2701 29.6426 91.5295 26.0251 87.0609 25.9434V25.9371ZM86.9027 38.6049C84.5798 38.6049 82.6936 36.7333 82.6936 34.4284C82.6936 32.1234 84.5798 30.2518 86.9027 30.2518C89.2256 30.2518 91.1117 32.1234 91.1117 34.4284C91.1117 36.7333 89.2256 38.6049 86.9027 38.6049Z" stroke="black" stroke-width="2" mask="url(#path-1-outside-1_1359_162)"/>
<path d="M105.511 25.9371C100.789 25.9371 96.9538 29.7494 96.9538 34.4284C96.9538 39.1073 100.796 42.9196 105.511 42.9196C110.227 42.9196 114.068 39.1073 114.068 34.4284C114.068 29.7494 110.227 25.9371 105.511 25.9371ZM105.511 38.6049C103.188 38.6049 101.302 36.7333 101.302 34.4284C101.302 32.1234 103.188 30.2518 105.511 30.2518C107.834 30.2518 109.72 32.1234 109.72 34.4284C109.72 36.7333 107.834 38.6049 105.511 38.6049Z" stroke="black" stroke-width="2" mask="url(#path-1-outside-1_1359_162)"/>
<path d="M124.113 25.9371C119.391 25.9371 115.556 29.7494 115.556 34.4284C115.556 39.1073 119.398 42.9196 124.113 42.9196C128.829 42.9196 132.671 39.1073 132.671 34.4284C132.671 29.7494 128.829 25.9371 124.113 25.9371ZM124.113 38.6049C121.79 38.6049 119.904 36.7333 119.904 34.4284C119.904 32.1234 121.79 30.2518 124.113 30.2518C126.436 30.2518 128.322 32.1234 128.322 34.4284C128.322 36.7333 126.436 38.6049 124.113 38.6049Z" stroke="black" stroke-width="2" mask="url(#path-1-outside-1_1359_162)"/>
<path d="M138.044 17H135.607C135.08 17 134.652 17.4246 134.652 17.9484V42.0089C134.652 42.5327 135.08 42.9573 135.607 42.9573H138.044C138.572 42.9573 139 42.5327 139 42.0089V17.9484C139 17.4246 138.572 17 138.044 17Z" stroke="black" stroke-width="2" mask="url(#path-1-outside-1_1359_162)"/>
<path d="M17.3932 25.799H14.8741C14.355 25.799 13.931 26.2198 13.931 26.7348V27.0488C12.6714 26.3391 11.2157 25.9309 9.66495 25.9309C4.88625 25.9309 1 29.7934 1 34.5351C1 39.2769 4.88625 43.1394 9.67128 43.1394C11.222 43.1394 12.6778 42.7312 13.9373 42.0215V46.3487C13.9373 48.6851 11.9942 50.5755 9.63331 50.5253C7.36738 50.475 5.51919 48.5155 5.51919 46.2671V45.2873C5.51919 44.7723 5.09512 44.3515 4.57611 44.3515H2.05068C1.53167 44.3515 1.1076 44.7723 1.1076 45.2873V46.2231C1.1076 50.8079 4.69637 54.6767 9.31051 54.8902C14.2474 55.1163 18.3362 51.1973 18.3362 46.3487V26.7348C18.3362 26.2198 17.9122 25.799 17.3932 25.799ZM9.66495 38.7619C7.31675 38.7619 5.39894 36.8652 5.39894 34.5288C5.39894 32.1925 7.31042 30.2958 9.66495 30.2958C12.0195 30.2958 13.931 32.1925 13.931 34.5288C13.931 36.8652 12.0195 38.7619 9.66495 38.7619Z" stroke="black" stroke-width="2" mask="url(#path-1-outside-1_1359_162)"/>
<path d="M69.1677 46.757L66.0156 46.7193C65.6422 46.7193 65.3321 47.0145 65.3257 47.385L65.3067 48.9489C65.2941 50.1861 66.2878 51.1973 67.5347 51.2098C68.7816 51.2224 69.8006 50.2364 69.8133 48.9991L69.8323 47.4353C69.8323 47.0647 69.5348 46.757 69.1613 46.7507L69.1677 46.757Z" stroke="black" stroke-width="2" mask="url(#path-1-outside-1_1359_162)"/>
<path d="M67.1423 25.5101C62.7497 25.7236 59.1292 29.2784 58.8697 33.6307C58.7115 36.256 59.7495 38.6551 61.4964 40.3446L61.5218 40.376L64.6485 43.0892C64.9206 43.3278 65.2688 43.4534 65.6295 43.4534H69.5095C69.8702 43.4534 70.2184 43.3215 70.4905 43.0892L73.1046 40.8156L73.1868 40.7465L73.5223 40.4514L73.5413 40.4388C75.2312 38.8561 76.2883 36.6203 76.2883 34.1457C76.2883 29.2281 72.1362 25.2588 67.1359 25.5038L67.1423 25.5101ZM67.5727 30.1011C69.8196 30.1011 71.6488 31.9162 71.6488 34.152C71.6488 36.3879 69.8196 38.1967 67.5727 38.1967C65.3257 38.1967 63.4965 36.3816 63.4965 34.152C63.4965 31.9224 65.3257 30.1011 67.5727 30.1011Z" stroke="black" stroke-width="2" mask="url(#path-1-outside-1_1359_162)"/>
<path d="M101.729 34.7975L71.8725 61.7003C71.2767 62.2371 71.2289 63.1553 71.7658 63.7511L72.1357 63.4177L71.7658 63.7511L74.3151 66.5802C74.8519 67.176 75.7701 67.2238 76.3658 66.687L80.6595 62.818L82.6895 75.1711C82.8408 76.0922 83.7102 76.7161 84.6313 76.5648C85.5523 76.4134 86.1763 75.5441 86.0249 74.623L83.6432 60.1295L90.3241 54.1095L91.0233 58.3642C91.1747 59.2852 92.044 59.9092 92.9651 59.7578C93.8861 59.6065 94.5101 58.7371 94.3587 57.816L93.3078 51.4209L108.797 37.4639L124.76 43.4855L126.176 52.1051C126.328 53.0261 127.197 53.6501 128.118 53.4987C129.039 53.3474 129.663 52.478 129.512 51.5569L128.412 44.8631L131.446 46.0076L132.051 49.6924C132.203 50.6134 133.072 51.2374 133.993 51.086C134.914 50.9347 135.538 50.0653 135.387 49.1443L135.098 47.3852L149.643 52.8721L149.819 52.4043L149.643 52.8721C150.393 53.1551 151.231 52.7763 151.514 52.026L152.858 48.4628C153.141 47.7125 152.762 46.8747 152.012 46.5917L114.409 32.4068L140.748 8.67365L141.679 14.3407C141.831 15.2618 142.7 15.8857 143.621 15.7344C144.542 15.583 145.166 14.7137 145.015 13.7926L143.732 5.9851L144.266 5.50398C144.862 4.96715 144.909 4.04898 144.373 3.4532L141.823 0.624029C141.286 0.0282396 140.368 -0.0195002 139.773 0.517325L107.341 29.7404L66.4954 14.3322C66.4954 14.3322 66.4954 14.3322 66.4954 14.3322C65.7451 14.0491 64.9074 14.4279 64.6243 15.1783L64.6243 15.1783L63.2802 18.7415C63.2802 18.7415 63.2802 18.7415 63.2802 18.7415C62.9971 19.4918 63.3759 20.3296 64.1263 20.6126L64.1263 20.6126L101.729 34.7975Z" fill="#52DC00" stroke="black"/>
<mask id="path-3-outside-2_1359_162" maskUnits="userSpaceOnUse" x="143" y="22" width="57" height="23" fill="black">
<rect fill="white" x="143" y="22" width="57" height="23"/>
<path d="M151.215 32.7322C151.61 32.9394 152.005 33.1638 152.4 33.4055C152.812 33.6472 153.19 33.8803 153.534 34.1047C153.877 34.3119 154.161 34.5104 154.384 34.7003C154.625 34.873 154.779 35.0111 154.848 35.1146C154.934 35.2528 154.977 35.4686 154.977 35.7621C154.977 36.0383 154.951 36.349 154.9 36.6943C154.865 37.0223 154.805 37.3503 154.719 37.6784C154.633 37.9891 154.539 38.2394 154.436 38.4293C154.315 38.671 154.041 38.9818 153.611 39.3616C153.199 39.7414 152.735 40.1212 152.22 40.501C151.704 40.8808 151.198 41.2175 150.699 41.511C150.218 41.8045 149.849 41.9857 149.591 42.0548C149.403 42.1066 149.119 42.1584 148.741 42.2102C148.38 42.262 148.002 42.3051 147.607 42.3397C147.212 42.3742 146.852 42.4001 146.525 42.4173C146.216 42.4173 146.027 42.4001 145.958 42.3655C145.821 42.2792 145.701 42.1497 145.598 41.9771C145.512 41.8045 145.469 41.58 145.469 41.3038C145.503 40.6996 145.572 40.2852 145.675 40.0608C145.709 40.009 145.752 39.9831 145.804 39.9831C145.855 39.9658 145.941 39.9572 146.061 39.9572C146.182 39.9572 146.336 39.9572 146.525 39.9572C146.714 39.9572 146.963 39.9486 147.272 39.9313C147.187 39.0509 147.109 38.2135 147.041 37.4194C146.972 36.6253 146.912 35.9261 146.86 35.3218C146.791 34.614 146.74 33.9493 146.706 33.3278C146.671 32.7236 146.62 32.0503 146.551 31.3079C146.499 30.6692 146.439 29.9268 146.371 29.0809C146.302 28.2349 146.225 27.3199 146.139 26.3359C145.984 26.3359 145.804 26.3359 145.598 26.3359C145.391 26.3359 145.185 26.3359 144.979 26.3359C144.79 26.3186 144.627 26.3014 144.49 26.2841C144.335 26.2496 144.24 26.2064 144.206 26.1546C144.137 26.051 144.086 25.8611 144.052 25.5849C144.017 25.2914 144 25.0066 144 24.7303C144 24.4368 144.052 24.152 144.155 23.8758C144.258 23.5823 144.378 23.3924 144.515 23.306C144.55 23.2888 144.687 23.2888 144.928 23.306C145.168 23.306 145.46 23.3319 145.804 23.3837C146.147 23.4183 146.517 23.4701 146.912 23.5391C147.324 23.5909 147.71 23.6513 148.071 23.7204C148.432 23.7722 148.75 23.824 149.025 23.8758C149.299 23.9275 149.488 23.9621 149.591 23.9793C149.763 24.0139 150.09 24.1088 150.571 24.2642C151.069 24.4023 151.601 24.5663 152.168 24.7562C152.735 24.9461 153.276 25.1619 153.792 25.4036C154.307 25.6281 154.668 25.8525 154.874 26.0769C154.96 26.1632 155.037 26.4049 155.106 26.802C155.192 27.1991 155.252 27.6393 155.286 28.1227C155.338 28.6061 155.355 29.0636 155.338 29.4952C155.338 29.9095 155.295 30.1858 155.209 30.3239C155.14 30.4275 154.9 30.6087 154.487 30.8677C154.075 31.1267 153.62 31.3942 153.122 31.6705C152.555 31.9812 151.919 32.3351 151.215 32.7322ZM149.257 32.2143C149.48 32.1107 149.78 31.9035 150.158 31.5928C150.553 31.282 150.94 30.9368 151.318 30.5569C151.713 30.1599 152.048 29.7628 152.323 29.3657C152.615 28.9514 152.761 28.5975 152.761 28.304C152.761 28.2177 152.666 28.1054 152.477 27.9673C152.306 27.8292 152.065 27.6911 151.756 27.553C151.447 27.4149 151.077 27.2768 150.648 27.1387C150.236 26.9833 149.789 26.8452 149.308 26.7243L149.257 32.2143ZM149.231 39.6465C149.712 39.5429 150.167 39.3789 150.596 39.1544C151.026 38.93 151.404 38.6883 151.73 38.4293C152.057 38.1531 152.314 37.8769 152.503 37.6007C152.692 37.3244 152.787 37.0741 152.787 36.8497C152.787 36.6253 152.641 36.3749 152.349 36.0987C152.074 35.8225 151.739 35.5462 151.344 35.27C150.966 34.9938 150.579 34.7435 150.184 34.519C149.789 34.2946 149.48 34.1306 149.257 34.027L149.231 39.6465Z"/>
<path d="M162.243 29.0291C162.278 29.0809 162.329 29.3226 162.398 29.7542C162.466 30.1858 162.535 30.721 162.604 31.3597C162.69 31.9985 162.767 32.6891 162.836 33.4314C162.922 34.1738 162.999 34.8816 163.068 35.5549C163.154 36.2282 163.222 36.8324 163.274 37.3676C163.325 37.9028 163.368 38.2653 163.403 38.4552C163.454 38.766 163.514 39.1113 163.583 39.4911C163.652 39.8536 163.712 40.2075 163.763 40.5528C163.815 40.8808 163.849 41.1657 163.866 41.4074C163.901 41.6491 163.892 41.7958 163.841 41.8476C163.806 41.8994 163.669 41.9167 163.428 41.8994C163.188 41.8649 162.922 41.8131 162.63 41.744C162.355 41.6577 162.089 41.5628 161.831 41.4592C161.59 41.3383 161.436 41.2261 161.367 41.1225C161.298 41.0362 161.23 40.9067 161.161 40.7341C161.109 40.5615 161.041 40.2593 160.955 39.8277C160.766 40.0867 160.56 40.3629 160.336 40.6564C160.13 40.9326 159.924 41.1916 159.718 41.4333C159.512 41.6577 159.323 41.839 159.151 41.9771C158.979 42.1152 158.85 42.1843 158.765 42.1843C158.627 42.1843 158.421 42.0462 158.146 41.7699C157.871 41.4764 157.596 41.1484 157.322 40.7859C157.047 40.4233 156.798 40.0781 156.574 39.75C156.351 39.422 156.231 39.2062 156.214 39.1026C156.179 38.9991 156.162 38.7142 156.162 38.2481C156.179 37.7819 156.196 37.264 156.214 36.6943C156.248 36.1073 156.282 35.529 156.317 34.9593C156.351 34.3723 156.385 33.9062 156.42 33.5609C156.454 33.2156 156.488 32.8358 156.523 32.4215C156.574 31.9899 156.626 31.5928 156.677 31.2302C156.729 30.8504 156.772 30.5224 156.806 30.2462C156.858 29.97 156.901 29.806 156.935 29.7542C156.969 29.7024 157.064 29.6765 157.219 29.6765C157.39 29.6592 157.562 29.6678 157.734 29.7024C157.923 29.7196 158.095 29.7628 158.249 29.8319C158.404 29.8836 158.507 29.9527 158.558 30.039C158.593 30.1081 158.61 30.3325 158.61 30.7123C158.627 31.0749 158.636 31.5237 158.636 32.0589C158.636 32.5768 158.636 33.1465 158.636 33.7681C158.636 34.3723 158.627 34.942 158.61 35.4772C158.61 35.9951 158.601 36.444 158.584 36.8238C158.584 37.1863 158.584 37.4021 158.584 37.4712C158.584 37.6093 158.662 37.8769 158.816 38.274C158.988 38.671 159.16 39.0509 159.331 39.4134L160.671 37.8078C160.654 37.4971 160.637 37.1 160.62 36.6166C160.62 36.1332 160.611 35.6239 160.594 35.0888C160.577 34.5536 160.56 34.0098 160.543 33.4573C160.525 32.9049 160.517 32.4042 160.517 31.9553C160.517 31.5065 160.517 31.1353 160.517 30.8418C160.517 30.5483 160.525 30.3757 160.543 30.3239C160.594 30.2203 160.697 30.0822 160.852 29.9095C161.006 29.7369 161.178 29.5729 161.367 29.4175C161.556 29.2621 161.728 29.1413 161.882 29.055C162.054 28.9686 162.174 28.96 162.243 29.0291Z"/>
<path d="M167.525 31.7482C167.56 31.8345 167.577 32.1107 167.577 32.5768C167.594 33.0257 167.594 33.5781 167.577 34.2342C167.577 34.873 167.56 35.5635 167.525 36.3059C167.491 37.031 167.448 37.7215 167.397 38.3776C167.362 39.0163 167.319 39.5688 167.268 40.0349C167.216 40.4838 167.165 40.7514 167.113 40.8377C166.959 41.0794 166.727 41.2348 166.417 41.3038C166.108 41.3556 165.885 41.3642 165.747 41.3297C165.679 41.3297 165.601 41.1312 165.516 40.7341C165.447 40.337 165.378 39.8364 165.309 39.2321C165.241 38.6279 165.181 37.9718 165.129 37.264C165.078 36.5562 165.035 35.8829 165 35.2441C164.966 34.5881 164.949 34.0184 164.949 33.535C164.949 33.0516 164.966 32.7408 165 32.6027C165.052 32.3783 165.198 32.1798 165.438 32.0071C165.696 31.8345 165.962 31.705 166.237 31.6187C166.529 31.5324 166.795 31.4978 167.036 31.5151C167.294 31.5151 167.457 31.5928 167.525 31.7482ZM167.654 27.553C167.723 27.6911 167.749 27.881 167.732 28.1227C167.732 28.3644 167.706 28.6147 167.654 28.8737C167.603 29.1327 167.534 29.383 167.448 29.6247C167.362 29.8664 167.276 30.0563 167.19 30.1944C167.019 30.4361 166.761 30.5915 166.417 30.6605C166.091 30.7123 165.851 30.721 165.696 30.6864C165.576 30.6692 165.455 30.5915 165.335 30.4534C165.215 30.298 165.112 30.1167 165.026 29.9095C164.94 29.6851 164.88 29.4434 164.846 29.1845C164.811 28.9255 164.82 28.6838 164.871 28.4594C164.923 28.2349 165.086 28.0364 165.361 27.8638C165.636 27.6738 165.928 27.5357 166.237 27.4494C166.546 27.3458 166.838 27.3027 167.113 27.3199C167.388 27.3199 167.568 27.3976 167.654 27.553Z"/>
<path d="M171.674 42.7281C171.554 42.7626 171.416 42.7195 171.262 42.5986C171.107 42.4778 170.952 42.331 170.798 42.1584C170.66 41.9685 170.54 41.7699 170.437 41.5628C170.334 41.3556 170.265 41.183 170.231 41.0448C170.111 39.5256 170.008 38.1704 169.922 36.9792C169.853 35.7707 169.793 34.7003 169.741 33.7681C169.69 32.8358 169.647 32.033 169.613 31.3597C169.595 30.6692 169.587 30.0822 169.587 29.5988C169.57 28.4766 169.587 27.6997 169.638 27.2681C169.69 26.9574 169.827 26.6466 170.051 26.3359C170.291 26.0251 170.54 25.7575 170.798 25.5331C171.073 25.3087 171.322 25.136 171.545 25.0152C171.786 24.8943 171.94 24.8598 172.009 24.9116C172.078 24.9634 172.129 25.2569 172.164 25.7921C172.198 26.31 172.224 26.9919 172.241 27.8379C172.258 28.6838 172.258 29.6333 172.241 30.6864C172.241 31.7395 172.224 32.8185 172.189 33.9234C172.172 35.0283 172.146 36.1073 172.112 37.1604C172.078 38.2135 172.035 39.1544 171.983 39.9831C171.932 40.7945 171.88 41.4506 171.829 41.9512C171.777 42.4519 171.725 42.7108 171.674 42.7281Z"/>
<path d="M181.362 25.7403C181.414 26.1546 181.431 26.9833 181.414 28.2263C181.414 28.7615 181.397 29.4089 181.362 30.1685C181.345 30.9281 181.311 31.8431 181.259 32.9135C181.208 33.9666 181.139 35.1923 181.053 36.5907C180.984 37.9718 180.89 39.5429 180.77 41.3038C180.735 41.4764 180.658 41.6664 180.538 41.8735C180.435 42.0807 180.315 42.2706 180.177 42.4432C180.04 42.6159 179.894 42.7626 179.739 42.8835C179.584 42.9871 179.447 43.0216 179.327 42.9871C179.292 42.9698 179.249 42.8317 179.198 42.5727C179.164 42.3138 179.129 41.9512 179.095 41.4851C178.322 41.8304 177.592 42.0634 176.905 42.1843C176.218 42.3051 175.659 42.2274 175.23 41.9512C175.058 41.8476 174.886 41.6664 174.714 41.4074C174.56 41.1312 174.414 40.8118 174.276 40.4492C174.139 40.0867 174.027 39.7069 173.941 39.3098C173.856 38.8955 173.813 38.507 173.813 38.1445C173.813 37.8855 173.83 37.5402 173.864 37.1086C173.898 36.677 173.941 36.2109 173.993 35.7103C174.045 35.1923 174.105 34.6744 174.173 34.1565C174.242 33.6213 174.311 33.1293 174.379 32.6804C174.448 32.2316 174.508 31.8517 174.56 31.541C174.611 31.2302 174.654 31.0403 174.689 30.9713C174.723 30.7641 174.783 30.5915 174.869 30.4534C174.972 30.3152 175.058 30.2117 175.127 30.1426C175.299 30.0045 175.548 29.9009 175.874 29.8319C176.218 29.7628 176.57 29.7196 176.93 29.7024C177.308 29.6851 177.66 29.6937 177.987 29.7283C178.313 29.7455 178.554 29.7801 178.708 29.8319H178.76C178.726 27.6911 178.726 26.0424 178.76 24.8857C178.794 23.729 178.863 23.1075 178.966 23.0212C179.035 22.9694 179.189 23.0126 179.43 23.1507C179.67 23.2888 179.919 23.4873 180.177 23.7463C180.452 24.0052 180.701 24.316 180.924 24.6785C181.165 25.0238 181.311 25.3777 181.362 25.7403ZM177.446 40.2421C177.686 40.1903 177.901 40.1299 178.09 40.0608C178.296 39.9745 178.468 39.8968 178.605 39.8277C178.76 39.7587 178.889 39.6724 178.992 39.5688C178.975 39.1199 178.957 38.6192 178.94 38.0668C178.923 37.4971 178.906 36.9101 178.889 36.3059C178.872 35.7016 178.854 35.0888 178.837 34.4672C178.82 33.8285 178.803 33.2156 178.786 32.6286C178.786 32.4387 178.751 32.2747 178.683 32.1366C178.631 31.9985 178.562 31.8863 178.476 31.8C178.425 31.7654 178.322 31.7223 178.167 31.6705C178.013 31.6014 177.832 31.5496 177.626 31.5151C177.437 31.4633 177.248 31.4374 177.059 31.4374C176.887 31.4374 176.767 31.4719 176.699 31.541C176.664 31.5583 176.63 31.7309 176.595 32.0589C176.578 32.3697 176.553 32.7667 176.518 33.2501C176.501 33.7163 176.475 34.2256 176.441 34.778C176.424 35.3304 176.406 35.8484 176.389 36.3318C176.372 36.8152 176.355 37.2295 176.338 37.5748C176.321 37.9201 176.312 38.11 176.312 38.1445C176.312 38.438 176.346 38.7142 176.415 38.9732C176.501 39.2321 176.604 39.4652 176.724 39.6724C176.845 39.8623 176.973 40.0176 177.111 40.1385C177.248 40.2421 177.36 40.2766 177.446 40.2421Z"/>
<path d="M184.764 35.3995C185.038 35.2959 185.348 35.1837 185.691 35.0629C186.052 34.9247 186.396 34.8039 186.722 34.7003C187.048 34.5795 187.34 34.4759 187.598 34.3896C187.856 34.3032 188.045 34.2342 188.165 34.1824C188.148 33.9925 188.122 33.7767 188.088 33.535C188.07 33.276 188.045 33.0343 188.01 32.8099C187.976 32.5682 187.933 32.361 187.881 32.1884C187.83 32.0158 187.778 31.9122 187.727 31.8776C187.589 31.8258 187.358 31.7827 187.031 31.7482C186.722 31.6964 186.396 31.705 186.052 31.7741C185.726 31.8431 185.425 31.9726 185.15 32.1625C184.875 32.3524 184.721 32.6545 184.686 33.0689C184.652 33.3451 184.643 33.6904 184.661 34.1047C184.678 34.519 184.712 34.9506 184.764 35.3995ZM190.355 35.8138C190.338 35.8484 190.132 35.9174 189.737 36.021C189.342 36.1246 188.869 36.2368 188.32 36.3577C187.77 36.4612 187.186 36.5735 186.567 36.6943C185.949 36.7979 185.416 36.8842 184.97 36.9533C185.056 37.6438 185.159 38.2653 185.279 38.8178C185.399 39.353 185.502 39.6896 185.588 39.8277C185.674 39.9486 185.786 40.0608 185.923 40.1644C186.043 40.2507 186.189 40.337 186.361 40.4233C186.55 40.4924 186.773 40.5442 187.031 40.5787C187.22 40.6305 187.4 40.5615 187.572 40.3715C187.71 40.1989 187.83 39.8968 187.933 39.4652C188.053 39.0336 188.113 38.3517 188.113 37.4194C188.646 37.3331 189.058 37.2813 189.35 37.264C189.659 37.2468 189.883 37.2468 190.02 37.264C190.192 37.2813 190.295 37.3072 190.329 37.3417C190.347 37.3935 190.347 37.523 190.329 37.7302C190.312 37.9373 190.269 38.1963 190.201 38.507C190.149 38.8005 190.08 39.1285 189.994 39.4911C189.926 39.8364 189.84 40.173 189.737 40.501C189.634 40.8118 189.522 41.0966 189.402 41.3556C189.281 41.5973 189.153 41.7699 189.015 41.8735C188.603 42.1843 188.088 42.3397 187.469 42.3397C186.851 42.3224 186.241 42.2361 185.64 42.0807C185.038 41.9081 184.497 41.7095 184.016 41.4851C183.535 41.2434 183.235 41.0448 183.115 40.8895C183.029 40.7859 182.951 40.5269 182.883 40.1126C182.814 39.681 182.754 39.1631 182.702 38.5588C182.668 37.9546 182.642 37.2899 182.625 36.5648C182.608 35.8397 182.616 35.1319 182.651 34.4414C182.702 33.7508 182.771 33.112 182.857 32.525C182.96 31.9381 183.097 31.4633 183.269 31.1008C183.527 30.5828 183.948 30.1599 184.532 29.8319C185.116 29.5038 185.734 29.2794 186.387 29.1586C187.04 29.0377 187.658 29.0204 188.242 29.1068C188.843 29.1931 189.29 29.383 189.582 29.6765C189.754 29.8491 189.908 30.1944 190.046 30.7123C190.183 31.213 190.269 31.8258 190.304 32.5509C190.304 32.62 190.312 32.8185 190.329 33.1465C190.347 33.4746 190.355 33.8285 190.355 34.2083C190.372 34.5708 190.381 34.9161 190.381 35.2441C190.381 35.5721 190.372 35.7621 190.355 35.8138Z"/>
<path d="M197.621 28.7701C197.759 28.8564 197.888 29.0291 198.008 29.288C198.145 29.5297 198.266 29.8146 198.369 30.1426C198.489 30.4534 198.583 30.79 198.652 31.1526C198.738 31.5151 198.807 31.8517 198.858 32.1625C198.927 32.4733 198.97 32.7408 198.987 32.9653C199.004 33.1724 199.004 33.3019 198.987 33.3537C198.953 33.4228 198.85 33.4918 198.678 33.5609C198.523 33.6299 198.291 33.7076 197.982 33.7939C197.673 33.8803 197.244 33.9752 196.694 34.0788C196.659 33.1293 196.591 32.4128 196.488 31.9294C196.385 31.4288 196.273 31.0749 196.153 30.8677C196.015 30.626 195.869 30.5051 195.715 30.5051C195.56 30.5742 195.423 30.6605 195.302 30.7641C195.182 30.8504 195.079 30.9454 194.993 31.049C194.89 31.1698 194.796 31.2993 194.71 31.4374C194.675 31.4892 194.641 31.61 194.607 31.8C194.572 31.9899 194.538 32.2747 194.504 32.6545C194.504 32.7754 194.495 33.0257 194.478 33.4055C194.478 33.7853 194.469 34.2256 194.452 34.7262C194.452 35.2269 194.444 35.7534 194.426 36.3059C194.426 36.8583 194.418 37.3762 194.401 37.8596C194.401 38.3258 194.392 38.7228 194.375 39.0509C194.375 39.3789 194.366 39.5688 194.349 39.6206C194.315 39.7069 194.229 39.8277 194.091 39.9831C193.954 40.1385 193.799 40.2852 193.628 40.4233C193.456 40.5442 193.293 40.6478 193.138 40.7341C192.983 40.8032 192.88 40.7945 192.829 40.7082C192.777 40.6564 192.726 40.432 192.674 40.0349C192.623 39.6378 192.563 39.1544 192.494 38.5847C192.442 37.9977 192.382 37.359 192.313 36.6684C192.245 35.9779 192.185 35.3132 192.133 34.6744C192.082 34.0356 192.039 33.4659 192.004 32.9653C191.97 32.4474 191.944 32.0762 191.927 31.8517C191.91 31.5237 191.893 31.1612 191.875 30.7641C191.858 30.367 191.841 29.9959 191.824 29.6506C191.824 29.288 191.824 28.9773 191.824 28.7183C191.841 28.4421 191.875 28.2781 191.927 28.2263C191.961 28.1745 192.073 28.1659 192.262 28.2004C192.468 28.2177 192.683 28.2695 192.906 28.3558C193.147 28.4248 193.37 28.5198 193.576 28.6406C193.782 28.7615 193.92 28.8737 193.988 28.9773C194.04 29.0636 194.091 29.1931 194.143 29.3657C194.469 29.1931 194.778 29.0377 195.071 28.8996C195.38 28.7442 195.672 28.632 195.947 28.5629C196.239 28.4939 196.522 28.4766 196.797 28.5112C197.072 28.5284 197.347 28.6147 197.621 28.7701Z"/>
</mask>
<path d="M151.215 32.7322C151.61 32.9394 152.005 33.1638 152.4 33.4055C152.812 33.6472 153.19 33.8803 153.534 34.1047C153.877 34.3119 154.161 34.5104 154.384 34.7003C154.625 34.873 154.779 35.0111 154.848 35.1146C154.934 35.2528 154.977 35.4686 154.977 35.7621C154.977 36.0383 154.951 36.349 154.9 36.6943C154.865 37.0223 154.805 37.3503 154.719 37.6784C154.633 37.9891 154.539 38.2394 154.436 38.4293C154.315 38.671 154.041 38.9818 153.611 39.3616C153.199 39.7414 152.735 40.1212 152.22 40.501C151.704 40.8808 151.198 41.2175 150.699 41.511C150.218 41.8045 149.849 41.9857 149.591 42.0548C149.403 42.1066 149.119 42.1584 148.741 42.2102C148.38 42.262 148.002 42.3051 147.607 42.3397C147.212 42.3742 146.852 42.4001 146.525 42.4173C146.216 42.4173 146.027 42.4001 145.958 42.3655C145.821 42.2792 145.701 42.1497 145.598 41.9771C145.512 41.8045 145.469 41.58 145.469 41.3038C145.503 40.6996 145.572 40.2852 145.675 40.0608C145.709 40.009 145.752 39.9831 145.804 39.9831C145.855 39.9658 145.941 39.9572 146.061 39.9572C146.182 39.9572 146.336 39.9572 146.525 39.9572C146.714 39.9572 146.963 39.9486 147.272 39.9313C147.187 39.0509 147.109 38.2135 147.041 37.4194C146.972 36.6253 146.912 35.9261 146.86 35.3218C146.791 34.614 146.74 33.9493 146.706 33.3278C146.671 32.7236 146.62 32.0503 146.551 31.3079C146.499 30.6692 146.439 29.9268 146.371 29.0809C146.302 28.2349 146.225 27.3199 146.139 26.3359C145.984 26.3359 145.804 26.3359 145.598 26.3359C145.391 26.3359 145.185 26.3359 144.979 26.3359C144.79 26.3186 144.627 26.3014 144.49 26.2841C144.335 26.2496 144.24 26.2064 144.206 26.1546C144.137 26.051 144.086 25.8611 144.052 25.5849C144.017 25.2914 144 25.0066 144 24.7303C144 24.4368 144.052 24.152 144.155 23.8758C144.258 23.5823 144.378 23.3924 144.515 23.306C144.55 23.2888 144.687 23.2888 144.928 23.306C145.168 23.306 145.46 23.3319 145.804 23.3837C146.147 23.4183 146.517 23.4701 146.912 23.5391C147.324 23.5909 147.71 23.6513 148.071 23.7204C148.432 23.7722 148.75 23.824 149.025 23.8758C149.299 23.9275 149.488 23.9621 149.591 23.9793C149.763 24.0139 150.09 24.1088 150.571 24.2642C151.069 24.4023 151.601 24.5663 152.168 24.7562C152.735 24.9461 153.276 25.1619 153.792 25.4036C154.307 25.6281 154.668 25.8525 154.874 26.0769C154.96 26.1632 155.037 26.4049 155.106 26.802C155.192 27.1991 155.252 27.6393 155.286 28.1227C155.338 28.6061 155.355 29.0636 155.338 29.4952C155.338 29.9095 155.295 30.1858 155.209 30.3239C155.14 30.4275 154.9 30.6087 154.487 30.8677C154.075 31.1267 153.62 31.3942 153.122 31.6705C152.555 31.9812 151.919 32.3351 151.215 32.7322ZM149.257 32.2143C149.48 32.1107 149.78 31.9035 150.158 31.5928C150.553 31.282 150.94 30.9368 151.318 30.5569C151.713 30.1599 152.048 29.7628 152.323 29.3657C152.615 28.9514 152.761 28.5975 152.761 28.304C152.761 28.2177 152.666 28.1054 152.477 27.9673C152.306 27.8292 152.065 27.6911 151.756 27.553C151.447 27.4149 151.077 27.2768 150.648 27.1387C150.236 26.9833 149.789 26.8452 149.308 26.7243L149.257 32.2143ZM149.231 39.6465C149.712 39.5429 150.167 39.3789 150.596 39.1544C151.026 38.93 151.404 38.6883 151.73 38.4293C152.057 38.1531 152.314 37.8769 152.503 37.6007C152.692 37.3244 152.787 37.0741 152.787 36.8497C152.787 36.6253 152.641 36.3749 152.349 36.0987C152.074 35.8225 151.739 35.5462 151.344 35.27C150.966 34.9938 150.579 34.7435 150.184 34.519C149.789 34.2946 149.48 34.1306 149.257 34.027L149.231 39.6465Z" fill="#52DC00"/>
<path d="M162.243 29.0291C162.278 29.0809 162.329 29.3226 162.398 29.7542C162.466 30.1858 162.535 30.721 162.604 31.3597C162.69 31.9985 162.767 32.6891 162.836 33.4314C162.922 34.1738 162.999 34.8816 163.068 35.5549C163.154 36.2282 163.222 36.8324 163.274 37.3676C163.325 37.9028 163.368 38.2653 163.403 38.4552C163.454 38.766 163.514 39.1113 163.583 39.4911C163.652 39.8536 163.712 40.2075 163.763 40.5528C163.815 40.8808 163.849 41.1657 163.866 41.4074C163.901 41.6491 163.892 41.7958 163.841 41.8476C163.806 41.8994 163.669 41.9167 163.428 41.8994C163.188 41.8649 162.922 41.8131 162.63 41.744C162.355 41.6577 162.089 41.5628 161.831 41.4592C161.59 41.3383 161.436 41.2261 161.367 41.1225C161.298 41.0362 161.23 40.9067 161.161 40.7341C161.109 40.5615 161.041 40.2593 160.955 39.8277C160.766 40.0867 160.56 40.3629 160.336 40.6564C160.13 40.9326 159.924 41.1916 159.718 41.4333C159.512 41.6577 159.323 41.839 159.151 41.9771C158.979 42.1152 158.85 42.1843 158.765 42.1843C158.627 42.1843 158.421 42.0462 158.146 41.7699C157.871 41.4764 157.596 41.1484 157.322 40.7859C157.047 40.4233 156.798 40.0781 156.574 39.75C156.351 39.422 156.231 39.2062 156.214 39.1026C156.179 38.9991 156.162 38.7142 156.162 38.2481C156.179 37.7819 156.196 37.264 156.214 36.6943C156.248 36.1073 156.282 35.529 156.317 34.9593C156.351 34.3723 156.385 33.9062 156.42 33.5609C156.454 33.2156 156.488 32.8358 156.523 32.4215C156.574 31.9899 156.626 31.5928 156.677 31.2302C156.729 30.8504 156.772 30.5224 156.806 30.2462C156.858 29.97 156.901 29.806 156.935 29.7542C156.969 29.7024 157.064 29.6765 157.219 29.6765C157.39 29.6592 157.562 29.6678 157.734 29.7024C157.923 29.7196 158.095 29.7628 158.249 29.8319C158.404 29.8836 158.507 29.9527 158.558 30.039C158.593 30.1081 158.61 30.3325 158.61 30.7123C158.627 31.0749 158.636 31.5237 158.636 32.0589C158.636 32.5768 158.636 33.1465 158.636 33.7681C158.636 34.3723 158.627 34.942 158.61 35.4772C158.61 35.9951 158.601 36.444 158.584 36.8238C158.584 37.1863 158.584 37.4021 158.584 37.4712C158.584 37.6093 158.662 37.8769 158.816 38.274C158.988 38.671 159.16 39.0509 159.331 39.4134L160.671 37.8078C160.654 37.4971 160.637 37.1 160.62 36.6166C160.62 36.1332 160.611 35.6239 160.594 35.0888C160.577 34.5536 160.56 34.0098 160.543 33.4573C160.525 32.9049 160.517 32.4042 160.517 31.9553C160.517 31.5065 160.517 31.1353 160.517 30.8418C160.517 30.5483 160.525 30.3757 160.543 30.3239C160.594 30.2203 160.697 30.0822 160.852 29.9095C161.006 29.7369 161.178 29.5729 161.367 29.4175C161.556 29.2621 161.728 29.1413 161.882 29.055C162.054 28.9686 162.174 28.96 162.243 29.0291Z" fill="#52DC00"/>
<path d="M167.525 31.7482C167.56 31.8345 167.577 32.1107 167.577 32.5768C167.594 33.0257 167.594 33.5781 167.577 34.2342C167.577 34.873 167.56 35.5635 167.525 36.3059C167.491 37.031 167.448 37.7215 167.397 38.3776C167.362 39.0163 167.319 39.5688 167.268 40.0349C167.216 40.4838 167.165 40.7514 167.113 40.8377C166.959 41.0794 166.727 41.2348 166.417 41.3038C166.108 41.3556 165.885 41.3642 165.747 41.3297C165.679 41.3297 165.601 41.1312 165.516 40.7341C165.447 40.337 165.378 39.8364 165.309 39.2321C165.241 38.6279 165.181 37.9718 165.129 37.264C165.078 36.5562 165.035 35.8829 165 35.2441C164.966 34.5881 164.949 34.0184 164.949 33.535C164.949 33.0516 164.966 32.7408 165 32.6027C165.052 32.3783 165.198 32.1798 165.438 32.0071C165.696 31.8345 165.962 31.705 166.237 31.6187C166.529 31.5324 166.795 31.4978 167.036 31.5151C167.294 31.5151 167.457 31.5928 167.525 31.7482ZM167.654 27.553C167.723 27.6911 167.749 27.881 167.732 28.1227C167.732 28.3644 167.706 28.6147 167.654 28.8737C167.603 29.1327 167.534 29.383 167.448 29.6247C167.362 29.8664 167.276 30.0563 167.19 30.1944C167.019 30.4361 166.761 30.5915 166.417 30.6605C166.091 30.7123 165.851 30.721 165.696 30.6864C165.576 30.6692 165.455 30.5915 165.335 30.4534C165.215 30.298 165.112 30.1167 165.026 29.9095C164.94 29.6851 164.88 29.4434 164.846 29.1845C164.811 28.9255 164.82 28.6838 164.871 28.4594C164.923 28.2349 165.086 28.0364 165.361 27.8638C165.636 27.6738 165.928 27.5357 166.237 27.4494C166.546 27.3458 166.838 27.3027 167.113 27.3199C167.388 27.3199 167.568 27.3976 167.654 27.553Z" fill="#52DC00"/>
<path d="M171.674 42.7281C171.554 42.7626 171.416 42.7195 171.262 42.5986C171.107 42.4778 170.952 42.331 170.798 42.1584C170.66 41.9685 170.54 41.7699 170.437 41.5628C170.334 41.3556 170.265 41.183 170.231 41.0448C170.111 39.5256 170.008 38.1704 169.922 36.9792C169.853 35.7707 169.793 34.7003 169.741 33.7681C169.69 32.8358 169.647 32.033 169.613 31.3597C169.595 30.6692 169.587 30.0822 169.587 29.5988C169.57 28.4766 169.587 27.6997 169.638 27.2681C169.69 26.9574 169.827 26.6466 170.051 26.3359C170.291 26.0251 170.54 25.7575 170.798 25.5331C171.073 25.3087 171.322 25.136 171.545 25.0152C171.786 24.8943 171.94 24.8598 172.009 24.9116C172.078 24.9634 172.129 25.2569 172.164 25.7921C172.198 26.31 172.224 26.9919 172.241 27.8379C172.258 28.6838 172.258 29.6333 172.241 30.6864C172.241 31.7395 172.224 32.8185 172.189 33.9234C172.172 35.0283 172.146 36.1073 172.112 37.1604C172.078 38.2135 172.035 39.1544 171.983 39.9831C171.932 40.7945 171.88 41.4506 171.829 41.9512C171.777 42.4519 171.725 42.7108 171.674 42.7281Z" fill="#52DC00"/>
<path d="M181.362 25.7403C181.414 26.1546 181.431 26.9833 181.414 28.2263C181.414 28.7615 181.397 29.4089 181.362 30.1685C181.345 30.9281 181.311 31.8431 181.259 32.9135C181.208 33.9666 181.139 35.1923 181.053 36.5907C180.984 37.9718 180.89 39.5429 180.77 41.3038C180.735 41.4764 180.658 41.6664 180.538 41.8735C180.435 42.0807 180.315 42.2706 180.177 42.4432C180.04 42.6159 179.894 42.7626 179.739 42.8835C179.584 42.9871 179.447 43.0216 179.327 42.9871C179.292 42.9698 179.249 42.8317 179.198 42.5727C179.164 42.3138 179.129 41.9512 179.095 41.4851C178.322 41.8304 177.592 42.0634 176.905 42.1843C176.218 42.3051 175.659 42.2274 175.23 41.9512C175.058 41.8476 174.886 41.6664 174.714 41.4074C174.56 41.1312 174.414 40.8118 174.276 40.4492C174.139 40.0867 174.027 39.7069 173.941 39.3098C173.856 38.8955 173.813 38.507 173.813 38.1445C173.813 37.8855 173.83 37.5402 173.864 37.1086C173.898 36.677 173.941 36.2109 173.993 35.7103C174.045 35.1923 174.105 34.6744 174.173 34.1565C174.242 33.6213 174.311 33.1293 174.379 32.6804C174.448 32.2316 174.508 31.8517 174.56 31.541C174.611 31.2302 174.654 31.0403 174.689 30.9713C174.723 30.7641 174.783 30.5915 174.869 30.4534C174.972 30.3152 175.058 30.2117 175.127 30.1426C175.299 30.0045 175.548 29.9009 175.874 29.8319C176.218 29.7628 176.57 29.7196 176.93 29.7024C177.308 29.6851 177.66 29.6937 177.987 29.7283C178.313 29.7455 178.554 29.7801 178.708 29.8319H178.76C178.726 27.6911 178.726 26.0424 178.76 24.8857C178.794 23.729 178.863 23.1075 178.966 23.0212C179.035 22.9694 179.189 23.0126 179.43 23.1507C179.67 23.2888 179.919 23.4873 180.177 23.7463C180.452 24.0052 180.701 24.316 180.924 24.6785C181.165 25.0238 181.311 25.3777 181.362 25.7403ZM177.446 40.2421C177.686 40.1903 177.901 40.1299 178.09 40.0608C178.296 39.9745 178.468 39.8968 178.605 39.8277C178.76 39.7587 178.889 39.6724 178.992 39.5688C178.975 39.1199 178.957 38.6192 178.94 38.0668C178.923 37.4971 178.906 36.9101 178.889 36.3059C178.872 35.7016 178.854 35.0888 178.837 34.4672C178.82 33.8285 178.803 33.2156 178.786 32.6286C178.786 32.4387 178.751 32.2747 178.683 32.1366C178.631 31.9985 178.562 31.8863 178.476 31.8C178.425 31.7654 178.322 31.7223 178.167 31.6705C178.013 31.6014 177.832 31.5496 177.626 31.5151C177.437 31.4633 177.248 31.4374 177.059 31.4374C176.887 31.4374 176.767 31.4719 176.699 31.541C176.664 31.5583 176.63 31.7309 176.595 32.0589C176.578 32.3697 176.553 32.7667 176.518 33.2501C176.501 33.7163 176.475 34.2256 176.441 34.778C176.424 35.3304 176.406 35.8484 176.389 36.3318C176.372 36.8152 176.355 37.2295 176.338 37.5748C176.321 37.9201 176.312 38.11 176.312 38.1445C176.312 38.438 176.346 38.7142 176.415 38.9732C176.501 39.2321 176.604 39.4652 176.724 39.6724C176.845 39.8623 176.973 40.0176 177.111 40.1385C177.248 40.2421 177.36 40.2766 177.446 40.2421Z" fill="#52DC00"/>
<path d="M184.764 35.3995C185.038 35.2959 185.348 35.1837 185.691 35.0629C186.052 34.9247 186.396 34.8039 186.722 34.7003C187.048 34.5795 187.34 34.4759 187.598 34.3896C187.856 34.3032 188.045 34.2342 188.165 34.1824C188.148 33.9925 188.122 33.7767 188.088 33.535C188.07 33.276 188.045 33.0343 188.01 32.8099C187.976 32.5682 187.933 32.361 187.881 32.1884C187.83 32.0158 187.778 31.9122 187.727 31.8776C187.589 31.8258 187.358 31.7827 187.031 31.7482C186.722 31.6964 186.396 31.705 186.052 31.7741C185.726 31.8431 185.425 31.9726 185.15 32.1625C184.875 32.3524 184.721 32.6545 184.686 33.0689C184.652 33.3451 184.643 33.6904 184.661 34.1047C184.678 34.519 184.712 34.9506 184.764 35.3995ZM190.355 35.8138C190.338 35.8484 190.132 35.9174 189.737 36.021C189.342 36.1246 188.869 36.2368 188.32 36.3577C187.77 36.4612 187.186 36.5735 186.567 36.6943C185.949 36.7979 185.416 36.8842 184.97 36.9533C185.056 37.6438 185.159 38.2653 185.279 38.8178C185.399 39.353 185.502 39.6896 185.588 39.8277C185.674 39.9486 185.786 40.0608 185.923 40.1644C186.043 40.2507 186.189 40.337 186.361 40.4233C186.55 40.4924 186.773 40.5442 187.031 40.5787C187.22 40.6305 187.4 40.5615 187.572 40.3715C187.71 40.1989 187.83 39.8968 187.933 39.4652C188.053 39.0336 188.113 38.3517 188.113 37.4194C188.646 37.3331 189.058 37.2813 189.35 37.264C189.659 37.2468 189.883 37.2468 190.02 37.264C190.192 37.2813 190.295 37.3072 190.329 37.3417C190.347 37.3935 190.347 37.523 190.329 37.7302C190.312 37.9373 190.269 38.1963 190.201 38.507C190.149 38.8005 190.08 39.1285 189.994 39.4911C189.926 39.8364 189.84 40.173 189.737 40.501C189.634 40.8118 189.522 41.0966 189.402 41.3556C189.281 41.5973 189.153 41.7699 189.015 41.8735C188.603 42.1843 188.088 42.3397 187.469 42.3397C186.851 42.3224 186.241 42.2361 185.64 42.0807C185.038 41.9081 184.497 41.7095 184.016 41.4851C183.535 41.2434 183.235 41.0448 183.115 40.8895C183.029 40.7859 182.951 40.5269 182.883 40.1126C182.814 39.681 182.754 39.1631 182.702 38.5588C182.668 37.9546 182.642 37.2899 182.625 36.5648C182.608 35.8397 182.616 35.1319 182.651 34.4414C182.702 33.7508 182.771 33.112 182.857 32.525C182.96 31.9381 183.097 31.4633 183.269 31.1008C183.527 30.5828 183.948 30.1599 184.532 29.8319C185.116 29.5038 185.734 29.2794 186.387 29.1586C187.04 29.0377 187.658 29.0204 188.242 29.1068C188.843 29.1931 189.29 29.383 189.582 29.6765C189.754 29.8491 189.908 30.1944 190.046 30.7123C190.183 31.213 190.269 31.8258 190.304 32.5509C190.304 32.62 190.312 32.8185 190.329 33.1465C190.347 33.4746 190.355 33.8285 190.355 34.2083C190.372 34.5708 190.381 34.9161 190.381 35.2441C190.381 35.5721 190.372 35.7621 190.355 35.8138Z" fill="#52DC00"/>
<path d="M197.621 28.7701C197.759 28.8564 197.888 29.0291 198.008 29.288C198.145 29.5297 198.266 29.8146 198.369 30.1426C198.489 30.4534 198.583 30.79 198.652 31.1526C198.738 31.5151 198.807 31.8517 198.858 32.1625C198.927 32.4733 198.97 32.7408 198.987 32.9653C199.004 33.1724 199.004 33.3019 198.987 33.3537C198.953 33.4228 198.85 33.4918 198.678 33.5609C198.523 33.6299 198.291 33.7076 197.982 33.7939C197.673 33.8803 197.244 33.9752 196.694 34.0788C196.659 33.1293 196.591 32.4128 196.488 31.9294C196.385 31.4288 196.273 31.0749 196.153 30.8677C196.015 30.626 195.869 30.5051 195.715 30.5051C195.56 30.5742 195.423 30.6605 195.302 30.7641C195.182 30.8504 195.079 30.9454 194.993 31.049C194.89 31.1698 194.796 31.2993 194.71 31.4374C194.675 31.4892 194.641 31.61 194.607 31.8C194.572 31.9899 194.538 32.2747 194.504 32.6545C194.504 32.7754 194.495 33.0257 194.478 33.4055C194.478 33.7853 194.469 34.2256 194.452 34.7262C194.452 35.2269 194.444 35.7534 194.426 36.3059C194.426 36.8583 194.418 37.3762 194.401 37.8596C194.401 38.3258 194.392 38.7228 194.375 39.0509C194.375 39.3789 194.366 39.5688 194.349 39.6206C194.315 39.7069 194.229 39.8277 194.091 39.9831C193.954 40.1385 193.799 40.2852 193.628 40.4233C193.456 40.5442 193.293 40.6478 193.138 40.7341C192.983 40.8032 192.88 40.7945 192.829 40.7082C192.777 40.6564 192.726 40.432 192.674 40.0349C192.623 39.6378 192.563 39.1544 192.494 38.5847C192.442 37.9977 192.382 37.359 192.313 36.6684C192.245 35.9779 192.185 35.3132 192.133 34.6744C192.082 34.0356 192.039 33.4659 192.004 32.9653C191.97 32.4474 191.944 32.0762 191.927 31.8517C191.91 31.5237 191.893 31.1612 191.875 30.7641C191.858 30.367 191.841 29.9959 191.824 29.6506C191.824 29.288 191.824 28.9773 191.824 28.7183C191.841 28.4421 191.875 28.2781 191.927 28.2263C191.961 28.1745 192.073 28.1659 192.262 28.2004C192.468 28.2177 192.683 28.2695 192.906 28.3558C193.147 28.4248 193.37 28.5198 193.576 28.6406C193.782 28.7615 193.92 28.8737 193.988 28.9773C194.04 29.0636 194.091 29.1931 194.143 29.3657C194.469 29.1931 194.778 29.0377 195.071 28.8996C195.38 28.7442 195.672 28.632 195.947 28.5629C196.239 28.4939 196.522 28.4766 196.797 28.5112C197.072 28.5284 197.347 28.6147 197.621 28.7701Z" fill="#52DC00"/>
<path d="M151.215 32.7322C151.61 32.9394 152.005 33.1638 152.4 33.4055C152.812 33.6472 153.19 33.8803 153.534 34.1047C153.877 34.3119 154.161 34.5104 154.384 34.7003C154.625 34.873 154.779 35.0111 154.848 35.1146C154.934 35.2528 154.977 35.4686 154.977 35.7621C154.977 36.0383 154.951 36.349 154.9 36.6943C154.865 37.0223 154.805 37.3503 154.719 37.6784C154.633 37.9891 154.539 38.2394 154.436 38.4293C154.315 38.671 154.041 38.9818 153.611 39.3616C153.199 39.7414 152.735 40.1212 152.22 40.501C151.704 40.8808 151.198 41.2175 150.699 41.511C150.218 41.8045 149.849 41.9857 149.591 42.0548C149.403 42.1066 149.119 42.1584 148.741 42.2102C148.38 42.262 148.002 42.3051 147.607 42.3397C147.212 42.3742 146.852 42.4001 146.525 42.4173C146.216 42.4173 146.027 42.4001 145.958 42.3655C145.821 42.2792 145.701 42.1497 145.598 41.9771C145.512 41.8045 145.469 41.58 145.469 41.3038C145.503 40.6996 145.572 40.2852 145.675 40.0608C145.709 40.009 145.752 39.9831 145.804 39.9831C145.855 39.9658 145.941 39.9572 146.061 39.9572C146.182 39.9572 146.336 39.9572 146.525 39.9572C146.714 39.9572 146.963 39.9486 147.272 39.9313C147.187 39.0509 147.109 38.2135 147.041 37.4194C146.972 36.6253 146.912 35.9261 146.86 35.3218C146.791 34.614 146.74 33.9493 146.706 33.3278C146.671 32.7236 146.62 32.0503 146.551 31.3079C146.499 30.6692 146.439 29.9268 146.371 29.0809C146.302 28.2349 146.225 27.3199 146.139 26.3359C145.984 26.3359 145.804 26.3359 145.598 26.3359C145.391 26.3359 145.185 26.3359 144.979 26.3359C144.79 26.3186 144.627 26.3014 144.49 26.2841C144.335 26.2496 144.24 26.2064 144.206 26.1546C144.137 26.051 144.086 25.8611 144.052 25.5849C144.017 25.2914 144 25.0066 144 24.7303C144 24.4368 144.052 24.152 144.155 23.8758C144.258 23.5823 144.378 23.3924 144.515 23.306C144.55 23.2888 144.687 23.2888 144.928 23.306C145.168 23.306 145.46 23.3319 145.804 23.3837C146.147 23.4183 146.517 23.4701 146.912 23.5391C147.324 23.5909 147.71 23.6513 148.071 23.7204C148.432 23.7722 148.75 23.824 149.025 23.8758C149.299 23.9275 149.488 23.9621 149.591 23.9793C149.763 24.0139 150.09 24.1088 150.571 24.2642C151.069 24.4023 151.601 24.5663 152.168 24.7562C152.735 24.9461 153.276 25.1619 153.792 25.4036C154.307 25.6281 154.668 25.8525 154.874 26.0769C154.96 26.1632 155.037 26.4049 155.106 26.802C155.192 27.1991 155.252 27.6393 155.286 28.1227C155.338 28.6061 155.355 29.0636 155.338 29.4952C155.338 29.9095 155.295 30.1858 155.209 30.3239C155.14 30.4275 154.9 30.6087 154.487 30.8677C154.075 31.1267 153.62 31.3942 153.122 31.6705C152.555 31.9812 151.919 32.3351 151.215 32.7322ZM149.257 32.2143C149.48 32.1107 149.78 31.9035 150.158 31.5928C150.553 31.282 150.94 30.9368 151.318 30.5569C151.713 30.1599 152.048 29.7628 152.323 29.3657C152.615 28.9514 152.761 28.5975 152.761 28.304C152.761 28.2177 152.666 28.1054 152.477 27.9673C152.306 27.8292 152.065 27.6911 151.756 27.553C151.447 27.4149 151.077 27.2768 150.648 27.1387C150.236 26.9833 149.789 26.8452 149.308 26.7243L149.257 32.2143ZM149.231 39.6465C149.712 39.5429 150.167 39.3789 150.596 39.1544C151.026 38.93 151.404 38.6883 151.73 38.4293C152.057 38.1531 152.314 37.8769 152.503 37.6007C152.692 37.3244 152.787 37.0741 152.787 36.8497C152.787 36.6253 152.641 36.3749 152.349 36.0987C152.074 35.8225 151.739 35.5462 151.344 35.27C150.966 34.9938 150.579 34.7435 150.184 34.519C149.789 34.2946 149.48 34.1306 149.257 34.027L149.231 39.6465Z" stroke="black" stroke-width="2" mask="url(#path-3-outside-2_1359_162)"/>
<path d="M162.243 29.0291C162.278 29.0809 162.329 29.3226 162.398 29.7542C162.466 30.1858 162.535 30.721 162.604 31.3597C162.69 31.9985 162.767 32.6891 162.836 33.4314C162.922 34.1738 162.999 34.8816 163.068 35.5549C163.154 36.2282 163.222 36.8324 163.274 37.3676C163.325 37.9028 163.368 38.2653 163.403 38.4552C163.454 38.766 163.514 39.1113 163.583 39.4911C163.652 39.8536 163.712 40.2075 163.763 40.5528C163.815 40.8808 163.849 41.1657 163.866 41.4074C163.901 41.6491 163.892 41.7958 163.841 41.8476C163.806 41.8994 163.669 41.9167 163.428 41.8994C163.188 41.8649 162.922 41.8131 162.63 41.744C162.355 41.6577 162.089 41.5628 161.831 41.4592C161.59 41.3383 161.436 41.2261 161.367 41.1225C161.298 41.0362 161.23 40.9067 161.161 40.7341C161.109 40.5615 161.041 40.2593 160.955 39.8277C160.766 40.0867 160.56 40.3629 160.336 40.6564C160.13 40.9326 159.924 41.1916 159.718 41.4333C159.512 41.6577 159.323 41.839 159.151 41.9771C158.979 42.1152 158.85 42.1843 158.765 42.1843C158.627 42.1843 158.421 42.0462 158.146 41.7699C157.871 41.4764 157.596 41.1484 157.322 40.7859C157.047 40.4233 156.798 40.0781 156.574 39.75C156.351 39.422 156.231 39.2062 156.214 39.1026C156.179 38.9991 156.162 38.7142 156.162 38.2481C156.179 37.7819 156.196 37.264 156.214 36.6943C156.248 36.1073 156.282 35.529 156.317 34.9593C156.351 34.3723 156.385 33.9062 156.42 33.5609C156.454 33.2156 156.488 32.8358 156.523 32.4215C156.574 31.9899 156.626 31.5928 156.677 31.2302C156.729 30.8504 156.772 30.5224 156.806 30.2462C156.858 29.97 156.901 29.806 156.935 29.7542C156.969 29.7024 157.064 29.6765 157.219 29.6765C157.39 29.6592 157.562 29.6678 157.734 29.7024C157.923 29.7196 158.095 29.7628 158.249 29.8319C158.404 29.8836 158.507 29.9527 158.558 30.039C158.593 30.1081 158.61 30.3325 158.61 30.7123C158.627 31.0749 158.636 31.5237 158.636 32.0589C158.636 32.5768 158.636 33.1465 158.636 33.7681C158.636 34.3723 158.627 34.942 158.61 35.4772C158.61 35.9951 158.601 36.444 158.584 36.8238C158.584 37.1863 158.584 37.4021 158.584 37.4712C158.584 37.6093 158.662 37.8769 158.816 38.274C158.988 38.671 159.16 39.0509 159.331 39.4134L160.671 37.8078C160.654 37.4971 160.637 37.1 160.62 36.6166C160.62 36.1332 160.611 35.6239 160.594 35.0888C160.577 34.5536 160.56 34.0098 160.543 33.4573C160.525 32.9049 160.517 32.4042 160.517 31.9553C160.517 31.5065 160.517 31.1353 160.517 30.8418C160.517 30.5483 160.525 30.3757 160.543 30.3239C160.594 30.2203 160.697 30.0822 160.852 29.9095C161.006 29.7369 161.178 29.5729 161.367 29.4175C161.556 29.2621 161.728 29.1413 161.882 29.055C162.054 28.9686 162.174 28.96 162.243 29.0291Z" stroke="black" stroke-width="2" mask="url(#path-3-outside-2_1359_162)"/>
<path d="M167.525 31.7482C167.56 31.8345 167.577 32.1107 167.577 32.5768C167.594 33.0257 167.594 33.5781 167.577 34.2342C167.577 34.873 167.56 35.5635 167.525 36.3059C167.491 37.031 167.448 37.7215 167.397 38.3776C167.362 39.0163 167.319 39.5688 167.268 40.0349C167.216 40.4838 167.165 40.7514 167.113 40.8377C166.959 41.0794 166.727 41.2348 166.417 41.3038C166.108 41.3556 165.885 41.3642 165.747 41.3297C165.679 41.3297 165.601 41.1312 165.516 40.7341C165.447 40.337 165.378 39.8364 165.309 39.2321C165.241 38.6279 165.181 37.9718 165.129 37.264C165.078 36.5562 165.035 35.8829 165 35.2441C164.966 34.5881 164.949 34.0184 164.949 33.535C164.949 33.0516 164.966 32.7408 165 32.6027C165.052 32.3783 165.198 32.1798 165.438 32.0071C165.696 31.8345 165.962 31.705 166.237 31.6187C166.529 31.5324 166.795 31.4978 167.036 31.5151C167.294 31.5151 167.457 31.5928 167.525 31.7482ZM167.654 27.553C167.723 27.6911 167.749 27.881 167.732 28.1227C167.732 28.3644 167.706 28.6147 167.654 28.8737C167.603 29.1327 167.534 29.383 167.448 29.6247C167.362 29.8664 167.276 30.0563 167.19 30.1944C167.019 30.4361 166.761 30.5915 166.417 30.6605C166.091 30.7123 165.851 30.721 165.696 30.6864C165.576 30.6692 165.455 30.5915 165.335 30.4534C165.215 30.298 165.112 30.1167 165.026 29.9095C164.94 29.6851 164.88 29.4434 164.846 29.1845C164.811 28.9255 164.82 28.6838 164.871 28.4594C164.923 28.2349 165.086 28.0364 165.361 27.8638C165.636 27.6738 165.928 27.5357 166.237 27.4494C166.546 27.3458 166.838 27.3027 167.113 27.3199C167.388 27.3199 167.568 27.3976 167.654 27.553Z" stroke="black" stroke-width="2" mask="url(#path-3-outside-2_1359_162)"/>
<path d="M171.674 42.7281C171.554 42.7626 171.416 42.7195 171.262 42.5986C171.107 42.4778 170.952 42.331 170.798 42.1584C170.66 41.9685 170.54 41.7699 170.437 41.5628C170.334 41.3556 170.265 41.183 170.231 41.0448C170.111 39.5256 170.008 38.1704 169.922 36.9792C169.853 35.7707 169.793 34.7003 169.741 33.7681C169.69 32.8358 169.647 32.033 169.613 31.3597C169.595 30.6692 169.587 30.0822 169.587 29.5988C169.57 28.4766 169.587 27.6997 169.638 27.2681C169.69 26.9574 169.827 26.6466 170.051 26.3359C170.291 26.0251 170.54 25.7575 170.798 25.5331C171.073 25.3087 171.322 25.136 171.545 25.0152C171.786 24.8943 171.94 24.8598 172.009 24.9116C172.078 24.9634 172.129 25.2569 172.164 25.7921C172.198 26.31 172.224 26.9919 172.241 27.8379C172.258 28.6838 172.258 29.6333 172.241 30.6864C172.241 31.7395 172.224 32.8185 172.189 33.9234C172.172 35.0283 172.146 36.1073 172.112 37.1604C172.078 38.2135 172.035 39.1544 171.983 39.9831C171.932 40.7945 171.88 41.4506 171.829 41.9512C171.777 42.4519 171.725 42.7108 171.674 42.7281Z" stroke="black" stroke-width="2" mask="url(#path-3-outside-2_1359_162)"/>
<path d="M181.362 25.7403C181.414 26.1546 181.431 26.9833 181.414 28.2263C181.414 28.7615 181.397 29.4089 181.362 30.1685C181.345 30.9281 181.311 31.8431 181.259 32.9135C181.208 33.9666 181.139 35.1923 181.053 36.5907C180.984 37.9718 180.89 39.5429 180.77 41.3038C180.735 41.4764 180.658 41.6664 180.538 41.8735C180.435 42.0807 180.315 42.2706 180.177 42.4432C180.04 42.6159 179.894 42.7626 179.739 42.8835C179.584 42.9871 179.447 43.0216 179.327 42.9871C179.292 42.9698 179.249 42.8317 179.198 42.5727C179.164 42.3138 179.129 41.9512 179.095 41.4851C178.322 41.8304 177.592 42.0634 176.905 42.1843C176.218 42.3051 175.659 42.2274 175.23 41.9512C175.058 41.8476 174.886 41.6664 174.714 41.4074C174.56 41.1312 174.414 40.8118 174.276 40.4492C174.139 40.0867 174.027 39.7069 173.941 39.3098C173.856 38.8955 173.813 38.507 173.813 38.1445C173.813 37.8855 173.83 37.5402 173.864 37.1086C173.898 36.677 173.941 36.2109 173.993 35.7103C174.045 35.1923 174.105 34.6744 174.173 34.1565C174.242 33.6213 174.311 33.1293 174.379 32.6804C174.448 32.2316 174.508 31.8517 174.56 31.541C174.611 31.2302 174.654 31.0403 174.689 30.9713C174.723 30.7641 174.783 30.5915 174.869 30.4534C174.972 30.3152 175.058 30.2117 175.127 30.1426C175.299 30.0045 175.548 29.9009 175.874 29.8319C176.218 29.7628 176.57 29.7196 176.93 29.7024C177.308 29.6851 177.66 29.6937 177.987 29.7283C178.313 29.7455 178.554 29.7801 178.708 29.8319H178.76C178.726 27.6911 178.726 26.0424 178.76 24.8857C178.794 23.729 178.863 23.1075 178.966 23.0212C179.035 22.9694 179.189 23.0126 179.43 23.1507C179.67 23.2888 179.919 23.4873 180.177 23.7463C180.452 24.0052 180.701 24.316 180.924 24.6785C181.165 25.0238 181.311 25.3777 181.362 25.7403ZM177.446 40.2421C177.686 40.1903 177.901 40.1299 178.09 40.0608C178.296 39.9745 178.468 39.8968 178.605 39.8277C178.76 39.7587 178.889 39.6724 178.992 39.5688C178.975 39.1199 178.957 38.6192 178.94 38.0668C178.923 37.4971 178.906 36.9101 178.889 36.3059C178.872 35.7016 178.854 35.0888 178.837 34.4672C178.82 33.8285 178.803 33.2156 178.786 32.6286C178.786 32.4387 178.751 32.2747 178.683 32.1366C178.631 31.9985 178.562 31.8863 178.476 31.8C178.425 31.7654 178.322 31.7223 178.167 31.6705C178.013 31.6014 177.832 31.5496 177.626 31.5151C177.437 31.4633 177.248 31.4374 177.059 31.4374C176.887 31.4374 176.767 31.4719 176.699 31.541C176.664 31.5583 176.63 31.7309 176.595 32.0589C176.578 32.3697 176.553 32.7667 176.518 33.2501C176.501 33.7163 176.475 34.2256 176.441 34.778C176.424 35.3304 176.406 35.8484 176.389 36.3318C176.372 36.8152 176.355 37.2295 176.338 37.5748C176.321 37.9201 176.312 38.11 176.312 38.1445C176.312 38.438 176.346 38.7142 176.415 38.9732C176.501 39.2321 176.604 39.4652 176.724 39.6724C176.845 39.8623 176.973 40.0176 177.111 40.1385C177.248 40.2421 177.36 40.2766 177.446 40.2421Z" stroke="black" stroke-width="2" mask="url(#path-3-outside-2_1359_162)"/>
<path d="M184.764 35.3995C185.038 35.2959 185.348 35.1837 185.691 35.0629C186.052 34.9247 186.396 34.8039 186.722 34.7003C187.048 34.5795 187.34 34.4759 187.598 34.3896C187.856 34.3032 188.045 34.2342 188.165 34.1824C188.148 33.9925 188.122 33.7767 188.088 33.535C188.07 33.276 188.045 33.0343 188.01 32.8099C187.976 32.5682 187.933 32.361 187.881 32.1884C187.83 32.0158 187.778 31.9122 187.727 31.8776C187.589 31.8258 187.358 31.7827 187.031 31.7482C186.722 31.6964 186.396 31.705 186.052 31.7741C185.726 31.8431 185.425 31.9726 185.15 32.1625C184.875 32.3524 184.721 32.6545 184.686 33.0689C184.652 33.3451 184.643 33.6904 184.661 34.1047C184.678 34.519 184.712 34.9506 184.764 35.3995ZM190.355 35.8138C190.338 35.8484 190.132 35.9174 189.737 36.021C189.342 36.1246 188.869 36.2368 188.32 36.3577C187.77 36.4612 187.186 36.5735 186.567 36.6943C185.949 36.7979 185.416 36.8842 184.97 36.9533C185.056 37.6438 185.159 38.2653 185.279 38.8178C185.399 39.353 185.502 39.6896 185.588 39.8277C185.674 39.9486 185.786 40.0608 185.923 40.1644C186.043 40.2507 186.189 40.337 186.361 40.4233C186.55 40.4924 186.773 40.5442 187.031 40.5787C187.22 40.6305 187.4 40.5615 187.572 40.3715C187.71 40.1989 187.83 39.8968 187.933 39.4652C188.053 39.0336 188.113 38.3517 188.113 37.4194C188.646 37.3331 189.058 37.2813 189.35 37.264C189.659 37.2468 189.883 37.2468 190.02 37.264C190.192 37.2813 190.295 37.3072 190.329 37.3417C190.347 37.3935 190.347 37.523 190.329 37.7302C190.312 37.9373 190.269 38.1963 190.201 38.507C190.149 38.8005 190.08 39.1285 189.994 39.4911C189.926 39.8364 189.84 40.173 189.737 40.501C189.634 40.8118 189.522 41.0966 189.402 41.3556C189.281 41.5973 189.153 41.7699 189.015 41.8735C188.603 42.1843 188.088 42.3397 187.469 42.3397C186.851 42.3224 186.241 42.2361 185.64 42.0807C185.038 41.9081 184.497 41.7095 184.016 41.4851C183.535 41.2434 183.235 41.0448 183.115 40.8895C183.029 40.7859 182.951 40.5269 182.883 40.1126C182.814 39.681 182.754 39.1631 182.702 38.5588C182.668 37.9546 182.642 37.2899 182.625 36.5648C182.608 35.8397 182.616 35.1319 182.651 34.4414C182.702 33.7508 182.771 33.112 182.857 32.525C182.96 31.9381 183.097 31.4633 183.269 31.1008C183.527 30.5828 183.948 30.1599 184.532 29.8319C185.116 29.5038 185.734 29.2794 186.387 29.1586C187.04 29.0377 187.658 29.0204 188.242 29.1068C188.843 29.1931 189.29 29.383 189.582 29.6765C189.754 29.8491 189.908 30.1944 190.046 30.7123C190.183 31.213 190.269 31.8258 190.304 32.5509C190.304 32.62 190.312 32.8185 190.329 33.1465C190.347 33.4746 190.355 33.8285 190.355 34.2083C190.372 34.5708 190.381 34.9161 190.381 35.2441C190.381 35.5721 190.372 35.7621 190.355 35.8138Z" stroke="black" stroke-width="2" mask="url(#path-3-outside-2_1359_162)"/>
<path d="M197.621 28.7701C197.759 28.8564 197.888 29.0291 198.008 29.288C198.145 29.5297 198.266 29.8146 198.369 30.1426C198.489 30.4534 198.583 30.79 198.652 31.1526C198.738 31.5151 198.807 31.8517 198.858 32.1625C198.927 32.4733 198.97 32.7408 198.987 32.9653C199.004 33.1724 199.004 33.3019 198.987 33.3537C198.953 33.4228 198.85 33.4918 198.678 33.5609C198.523 33.6299 198.291 33.7076 197.982 33.7939C197.673 33.8803 197.244 33.9752 196.694 34.0788C196.659 33.1293 196.591 32.4128 196.488 31.9294C196.385 31.4288 196.273 31.0749 196.153 30.8677C196.015 30.626 195.869 30.5051 195.715 30.5051C195.56 30.5742 195.423 30.6605 195.302 30.7641C195.182 30.8504 195.079 30.9454 194.993 31.049C194.89 31.1698 194.796 31.2993 194.71 31.4374C194.675 31.4892 194.641 31.61 194.607 31.8C194.572 31.9899 194.538 32.2747 194.504 32.6545C194.504 32.7754 194.495 33.0257 194.478 33.4055C194.478 33.7853 194.469 34.2256 194.452 34.7262C194.452 35.2269 194.444 35.7534 194.426 36.3059C194.426 36.8583 194.418 37.3762 194.401 37.8596C194.401 38.3258 194.392 38.7228 194.375 39.0509C194.375 39.3789 194.366 39.5688 194.349 39.6206C194.315 39.7069 194.229 39.8277 194.091 39.9831C193.954 40.1385 193.799 40.2852 193.628 40.4233C193.456 40.5442 193.293 40.6478 193.138 40.7341C192.983 40.8032 192.88 40.7945 192.829 40.7082C192.777 40.6564 192.726 40.432 192.674 40.0349C192.623 39.6378 192.563 39.1544 192.494 38.5847C192.442 37.9977 192.382 37.359 192.313 36.6684C192.245 35.9779 192.185 35.3132 192.133 34.6744C192.082 34.0356 192.039 33.4659 192.004 32.9653C191.97 32.4474 191.944 32.0762 191.927 31.8517C191.91 31.5237 191.893 31.1612 191.875 30.7641C191.858 30.367 191.841 29.9959 191.824 29.6506C191.824 29.288 191.824 28.9773 191.824 28.7183C191.841 28.4421 191.875 28.2781 191.927 28.2263C191.961 28.1745 192.073 28.1659 192.262 28.2004C192.468 28.2177 192.683 28.2695 192.906 28.3558C193.147 28.4248 193.37 28.5198 193.576 28.6406C193.782 28.7615 193.92 28.8737 193.988 28.9773C194.04 29.0636 194.091 29.1931 194.143 29.3657C194.469 29.1931 194.778 29.0377 195.071 28.8996C195.38 28.7442 195.672 28.632 195.947 28.5629C196.239 28.4939 196.522 28.4766 196.797 28.5112C197.072 28.5284 197.347 28.6147 197.621 28.7701Z" stroke="black" stroke-width="2" mask="url(#path-3-outside-2_1359_162)"/>
</svg>
