<svg width="600" height="600" viewBox="0 0 600 600" fill="none" xmlns="http://www.w3.org/2000/svg">
<g clip-path="url(#clip0_1626_223)">
<path d="M235.896 469.063L244.267 515.081C236.269 510.892 226.241 508.015 213.752 508.015C182.64 508.015 168.569 525.873 162.72 537.396C160.497 541.779 163.72 546.966 168.644 546.966H272.543L286.793 491.617L235.896 469.078V469.063Z" fill="#CECECE" stroke="#221F20" stroke-width="2" stroke-miterlimit="10"/>
<path d="M238.895 512.606C238.895 512.606 244.207 513.202 250.25 520.537" stroke="#221F20" stroke-width="2" stroke-miterlimit="10" stroke-linecap="round"/>
<path d="M424.267 537.381C418.418 525.844 404.346 508 373.235 508C359.94 508 349.42 511.28 341.183 515.916L347.943 457.123L300.193 491.588L314.444 546.937H418.343C423.267 546.937 426.49 541.764 424.267 537.367V537.381Z" fill="#CECECE" stroke="#221F20" stroke-width="2" stroke-miterlimit="10"/>
<path d="M343.854 514.5C343.854 514.5 338.393 517.242 335.856 521.804" stroke="#221F20" stroke-width="2" stroke-miterlimit="10" stroke-linecap="round"/>
<g clip-path="url(#clip1_1626_223)">
<path d="M212.775 511.173C220.308 489.636 211.009 467.289 211.009 467.289C211.009 467.289 186.204 452.038 178.243 452.37L151.886 432.41C151.886 432.41 134.895 433.644 126.894 439.147C120.967 443.232 113.85 462.873 123.148 472.514C122.626 475.061 122.586 477.342 123.362 479C125.69 484.066 130.266 489.808 133.089 493.123C134.092 497.752 136.741 502.831 141.973 508.176C159.901 526.464 178.591 513.215 184.144 508.468L185.749 508.388C185.95 512.804 189.415 516.544 194.017 516.942C196.693 517.181 200.145 517.26 204.56 517.101C208.28 516.968 211.584 514.634 212.802 511.146L212.775 511.173Z" fill="white"/>
<path d="M209.725 510.125C214.742 496.717 213.725 481.44 209.337 467.979L210.059 468.828C202.406 464.239 194.526 459.783 186.298 456.335C183.675 455.287 180.678 454.213 177.976 454.133C177.668 454.107 177.387 453.988 177.16 453.802L151.391 433.073L151.953 433.246C144.528 435.076 136.888 436.667 130.266 440.235C125.984 442.489 124.473 446.892 122.934 451.163C120.86 457.727 120.205 465.472 124.473 471.281C124.82 471.745 125.061 472.329 124.941 472.886C124.62 474.663 124.526 476.506 124.954 477.819C127.349 483.124 131.189 487.553 134.654 492.248C136.674 497.049 139.752 501.12 143.484 504.728C156.101 517.353 168.918 516.266 183.234 506.942C183.782 506.558 185.027 506.677 185.656 506.611C186.579 506.558 187.381 507.208 187.529 508.096C187.85 510.43 189.321 512.473 191.248 513.454C193.429 514.595 195.85 514.13 198.259 514.183C200.266 514.157 202.473 513.971 204.493 513.812C206.728 513.587 208.908 512.234 209.751 510.125H209.725ZM215.852 512.234C213.993 517.963 208.44 521.04 202.54 520.403C197.857 520.072 192.479 520.523 188.492 517.631C185.482 515.523 183.809 511.916 183.943 508.494L185.843 510.218C185.843 510.218 184.237 510.284 184.237 510.298L185.334 509.86C179.019 516.624 169.386 521.676 159.74 520.947C153.586 520.682 147.739 517.87 142.989 514.064C137.009 508.786 131.778 501.717 131.323 493.535L131.711 494.317C128.981 491.333 126.466 488.15 124.285 484.676C123.175 482.859 122.051 481.002 121.315 478.986C120.566 476.48 120.954 474.238 121.382 472.17L121.85 473.774C117.395 469.796 115.723 463.563 116.044 457.794C116.592 449.558 119.777 439.373 127.791 435.58C135.363 432.145 143.685 431.31 151.82 431.601C152.02 431.601 152.221 431.641 152.382 431.774L179.354 450.951L178.177 450.579C180.063 450.619 181.709 450.964 183.221 451.428C187.703 452.781 191.89 454.81 196.024 456.865C201.47 459.637 206.754 462.608 211.972 465.764C212.307 465.976 212.548 466.268 212.695 466.613C218.608 480.989 220.401 497.235 215.852 512.234V512.234Z" fill="#231F20"/>
<path d="M158.348 442.874C154.268 436.561 153.063 430.315 155.726 425.594C161.037 416.164 177.949 419.652 195.716 429.479C213.484 439.307 225.364 451.733 220.053 461.162C217.083 466.44 209.925 468.655 201.081 467.873" fill="white"/>
<path d="M157.158 443.63C147.993 432.676 150.923 417.358 167.072 417C182.886 417.119 200.145 426.787 212.333 436.323C217.859 441.044 223.625 446.786 224.843 454.385C226.341 463.655 218.033 470.194 209.43 470.273C206.487 470.419 203.65 469.995 200.961 469.265C200.198 469.053 199.743 468.271 199.958 467.515C200.118 466.944 200.613 466.547 201.175 466.48C213.885 465.459 223.746 458.855 212.989 446.892C203.356 436.349 184.786 426.058 170.657 423.445C156.529 421.124 153.679 431.084 159.539 442.105C160.315 443.617 158.201 444.93 157.158 443.617V443.63Z" fill="#231F20"/>
<path d="M171.995 432.066C180.973 441.654 192.425 448.126 205.43 450.486C206.032 450.593 206.433 451.176 206.273 451.773C206.166 452.184 205.831 452.476 205.43 452.542C201.938 453.139 198.245 453.258 194.713 452.462C184.13 450.394 174.631 442.874 170.323 433.047C169.908 432.039 171.3 431.217 171.995 432.066V432.066Z" fill="#231F20"/>
<path d="M137.169 502.38C137.169 502.38 126.921 490.604 148.127 473.483Z" fill="white"/>
<path d="M135.818 503.547C131.349 497.633 132.821 489.344 136.754 483.641C139.457 479.384 143.457 475.711 147.351 472.541C148.541 471.546 150.107 473.297 148.956 474.345L148.889 474.411L145.772 477.222C141.116 481.785 136.393 487.673 136.34 494.41C136.393 496.837 137.075 499.463 138.614 501.333C140.086 503.176 137.303 505.391 135.818 503.547V503.547Z" fill="#231F20"/>
<path d="M185.736 508.414C185.736 508.414 184.612 505.285 185.843 499.834Z" fill="white"/>
<path d="M185.736 508.414C185.736 508.414 184.612 505.285 185.843 499.834" stroke="#231F20" stroke-linecap="round" stroke-linejoin="round"/>
<path d="M170.563 487.089C170.563 487.089 180.023 499.768 195.877 501.081Z" fill="white"/>
<path d="M171.487 486.413C178.765 492.527 187.033 496.664 195.97 499.834C196.693 500.073 197.081 500.882 196.773 501.571C196.586 501.996 196.198 502.274 195.77 502.327C190.472 503.202 185.013 501.638 180.491 498.892C175.969 496.134 172.089 492.487 169.64 487.766C169.052 486.625 170.577 485.524 171.5 486.413H171.487Z" fill="#231F20"/>
<path d="M181.374 496.704C181.374 496.704 173.735 501.784 167.674 500.258Z" fill="white"/>
<path d="M182.832 498.839C178.042 501.2 172.744 503.004 167.379 501.452C166.724 501.24 166.376 500.55 166.59 499.9C166.777 499.33 167.339 498.985 167.914 499.065C172.196 499.555 176.638 497.089 179.942 494.556C182.953 492.275 186.11 496.93 182.846 498.839H182.832Z" fill="#231F20"/>
<path d="M123.348 479.013C123.348 479.013 121.917 470.91 132.968 457.833Z" fill="white"/>
<path d="M121.154 479.397C120.86 471.798 125.476 465.035 130.025 459.345L132.031 457.064C132.473 456.56 133.249 456.507 133.757 456.945C134.252 457.369 134.319 458.125 133.905 458.616L132.165 460.963C129.021 465.565 126.104 470.764 125.516 476.347C125.449 477.063 125.422 477.992 125.529 478.641C125.984 481.506 121.689 482.262 121.127 479.397H121.154Z" fill="#231F20"/>
</g>
<g clip-path="url(#clip2_1626_223)">
<path d="M364.119 511.178C356.656 489.651 365.869 467.317 365.869 467.317C365.869 467.317 390.447 452.073 398.334 452.404L424.462 432.455C424.462 432.455 441.298 433.688 449.225 439.189C455.098 443.272 462.15 462.903 452.937 472.539C453.454 475.084 453.494 477.364 452.725 479.021C450.419 484.084 445.885 489.824 443.088 493.138C442.094 497.764 439.469 502.84 434.285 508.182C416.522 526.461 398.003 513.219 392.501 508.474L390.91 508.394C390.712 512.808 387.278 516.546 382.718 516.944C380.067 517.182 376.647 517.262 372.272 517.103C368.587 516.97 365.312 514.637 364.106 511.151L364.119 511.178Z" fill="white"/>
<path d="M361.084 512.238C356.563 497.247 358.353 481.009 364.212 466.641C364.358 466.283 364.61 465.991 364.928 465.792C370.098 462.624 375.334 459.668 380.73 456.898C384.839 454.857 388.975 452.815 393.416 451.463C394.927 450.999 396.544 450.642 398.414 450.615L397.247 450.986L423.972 431.819C424.144 431.7 424.33 431.647 424.529 431.647C432.602 431.369 440.834 432.19 448.337 435.623C456.278 439.414 459.42 449.608 459.976 457.826C460.149 460.649 459.778 463.671 458.929 466.375C458.001 469.159 456.437 471.81 454.236 473.785L454.7 472.181C455.125 474.249 455.509 476.476 454.767 478.994C454.038 481.009 452.911 482.865 451.824 484.681C449.663 488.154 447.157 491.335 444.466 494.317L444.851 493.535C444.4 501.727 439.217 508.779 433.291 514.054C428.585 517.845 422.805 520.669 416.694 520.934C407.136 521.663 397.592 516.612 391.335 509.852L392.422 510.29L390.844 510.21C390.844 510.21 392.727 508.487 392.713 508.487C392.846 511.907 391.189 515.512 388.206 517.62C384.256 520.523 378.927 520.059 374.287 520.39C368.441 521.013 362.939 517.965 361.097 512.225L361.084 512.238ZM367.155 510.131C367.99 512.225 370.151 513.59 372.365 513.816C374.38 513.961 376.541 514.16 378.542 514.187C380.928 514.134 383.328 514.584 385.489 513.458C387.398 512.477 388.856 510.436 389.174 508.103C389.333 507.201 390.142 506.565 391.03 506.618C391.64 506.711 392.925 506.539 393.416 506.949C407.6 516.268 420.313 517.368 432.814 504.749C436.513 501.144 439.562 497.088 441.563 492.276C444.983 487.57 448.801 483.143 451.174 477.841C451.598 476.529 451.519 474.686 451.187 472.91C451.055 472.3 451.32 471.77 451.651 471.306C455.88 465.487 455.217 457.76 453.176 451.198C451.651 446.93 450.14 442.543 445.911 440.276C439.349 436.697 431.78 435.12 424.423 433.291L424.979 433.118L399.448 453.836C399.209 454.035 398.917 454.141 398.639 454.167C395.961 454.234 392.992 455.321 390.393 456.368C382.228 459.814 374.433 464.268 366.85 468.854L367.566 468.006C363.218 481.46 362.224 496.73 367.182 510.131H367.155Z" fill="#231F20"/>
<path d="M418.046 442.914C422.09 436.604 423.283 430.361 420.645 425.642C415.382 416.218 398.626 419.704 381.021 429.526C363.43 439.348 351.658 451.768 356.921 461.193C359.864 466.468 366.956 468.682 375.719 467.9" fill="white"/>
<path d="M416.867 442.158C419.783 436.684 421.957 427.896 415.515 424.396C402.51 418.034 365.299 439.839 360.182 452.577C356.06 462.306 368.004 465.925 375.613 466.521C376.395 466.614 376.952 467.317 376.859 468.099C376.793 468.695 376.368 469.159 375.825 469.305C370.178 470.843 364.04 470.962 358.605 467.834C354.045 465.275 351.261 459.629 352.175 454.419C354.429 441.973 368.043 433.158 378.092 427.153C389.837 420.393 418.139 408.053 424.038 427.339C424.781 430.507 424.304 433.635 423.349 436.353C422.328 439.07 420.923 441.509 419.226 443.656C418.749 444.266 417.861 444.372 417.251 443.895C416.721 443.471 416.575 442.728 416.867 442.145V442.158Z" fill="#231F20"/>
<path d="M406.182 433.092C400.535 446.108 385.581 455.281 371.397 452.577C370.257 452.391 370.27 450.708 371.397 450.522C384.282 448.176 395.63 441.694 404.525 432.111C405.201 431.263 406.606 432.084 406.182 433.092V433.092Z" fill="#231F20"/>
<path d="M439.031 502.39C439.031 502.39 449.186 490.619 428.174 473.507Z" fill="white"/>
<path d="M437.692 501.237C441.219 496.531 439.972 489.93 436.963 485.184C435.24 482.242 432.92 479.631 430.507 477.245L427.419 474.435L427.352 474.382C426.212 473.348 427.75 471.571 428.943 472.579C433.132 475.972 437.268 479.949 440.065 484.601C443.459 490.195 444.599 497.976 440.383 503.556C438.832 505.452 436.049 503.066 437.692 501.237Z" fill="#231F20"/>
<path d="M390.911 508.421C390.911 508.421 392.024 505.293 390.805 499.845Z" fill="white"/>
<path d="M390.911 508.421C390.911 508.421 392.024 505.293 390.805 499.845" stroke="#231F20" stroke-linecap="round" stroke-linejoin="round"/>
<path d="M405.943 487.107C405.943 487.107 396.571 499.779 380.862 501.091Z" fill="white"/>
<path d="M406.871 487.796C402.55 495.789 394.092 501.926 384.932 502.562C383.62 502.681 382.281 502.522 380.982 502.35C380.279 502.257 379.789 501.608 379.881 500.905C379.948 500.388 380.306 500.017 380.77 499.845C385.21 498.069 389.346 496.611 393.469 494.317C397.552 492.144 401.383 489.333 405.029 486.431C405.943 485.556 407.455 486.656 406.871 487.783V487.796Z" fill="#231F20"/>
<path d="M395.232 496.717C395.232 496.717 402.801 501.793 408.806 500.269Z" fill="white"/>
<path d="M396.664 494.569C399.938 497.088 404.339 499.553 408.581 499.076C410.026 498.89 410.504 501.025 409.112 501.462C405.148 502.708 401.144 501.807 397.419 500.468C395.312 499.619 391.189 498.453 392.74 495.338C393.496 493.907 395.444 493.535 396.664 494.569Z" fill="#231F20"/>
<path d="M452.725 479.034C452.725 479.034 454.144 470.935 443.194 457.866Z" fill="white"/>
<path d="M450.551 478.65C450.896 475.177 449.703 471.664 448.284 468.443C446.8 465.05 444.506 461.604 442.266 458.634C441.298 457.428 443.101 455.904 444.122 457.084C445.142 458.21 447.078 460.543 447.993 461.763C451.638 466.879 455.217 472.87 454.899 479.418C454.356 482.268 450.087 481.539 450.538 478.663L450.551 478.65Z" fill="#231F20"/>
</g>
<path d="M370.119 449.552C351.466 427.529 328.339 419.465 313.138 416.537C303.648 414.703 296.69 406.562 296.348 396.901C295.862 383.514 307.985 373.246 321.119 375.809C343.509 380.182 376.437 392.011 402.746 423.73C405.186 426.669 405.496 430.857 403.557 434.138L402.861 435.313C397.689 444.131 389.087 450.398 379.097 452.613C375.753 453.357 372.304 452.143 370.097 449.524L370.119 449.552Z" fill="#CECECE" stroke="#231F20" stroke-width="3" stroke-linecap="round" stroke-linejoin="round"/>
<path d="M203.012 454.303C222.329 432.86 245.692 425.507 260.975 423.045C270.517 421.502 277.721 413.577 278.358 403.93C279.238 390.572 267.449 379.932 254.228 382.098C231.729 385.778 198.456 396.595 171.189 427.495C168.66 430.359 168.223 434.536 170.06 437.874L170.72 439.07C175.621 448.042 184.027 454.569 193.944 457.088C197.264 457.934 200.749 456.826 203.035 454.275L203.012 454.303Z" fill="#CECECE" stroke="#231F20" stroke-width="3" stroke-linecap="round" stroke-linejoin="round"/>
<path d="M233.224 418.929C233.224 418.929 235.476 416.992 233.094 408.097" stroke="#231F20" stroke-width="2" stroke-linecap="round" stroke-linejoin="round"/>
<path d="M315.04 499.205C307.415 502.991 298.985 505.108 290.121 505.108C283.809 505.108 277.706 504.035 271.961 502.052" fill="#CECECE"/>
<path d="M315.04 499.205C307.415 502.991 298.985 505.108 290.121 505.108C283.809 505.108 277.706 504.035 271.961 502.052" stroke="#221F20" stroke-width="2" stroke-miterlimit="10" stroke-linecap="round"/>
<path d="M246.356 484.656C234.985 471.866 227.942 454.142 227.942 434.539C227.942 395.573 255.771 364 290.106 364C324.441 364 352.27 395.588 352.27 434.539C352.27 448.879 348.494 462.206 342.033 473.342" fill="#CECECE"/>
<path d="M246.356 484.656C234.985 471.866 227.942 454.142 227.942 434.539C227.942 395.573 255.771 364 290.106 364C324.441 364 352.27 395.588 352.27 434.539C352.27 448.879 348.494 462.206 342.033 473.342" stroke="#221F20" stroke-width="2" stroke-miterlimit="10" stroke-linecap="round"/>
<path d="M290.121 502.037C312.141 502.037 329.991 491.713 329.991 478.976C329.991 466.24 312.141 455.916 290.121 455.916C268.101 455.916 250.25 466.24 250.25 478.976C250.25 491.713 268.101 502.037 290.121 502.037Z" fill="#CECECE"/>
<path d="M290.121 380.129V461.043" stroke="#221F20" stroke-width="2" stroke-miterlimit="10" stroke-linecap="round"/>
<g clip-path="url(#clip3_1626_223)">
<path d="M256.18 371.57L200.99 394.36C198.93 395.21 197.95 397.58 198.82 399.64L219.18 447.97L239.83 443.06L256.18 371.57Z" fill="#FF2015" stroke="black" stroke-width="3" stroke-miterlimit="10"/>
<path d="M325.01 371.57L380.2 394.36C382.26 395.21 383.24 397.58 382.37 399.64L362.01 447.97L341.36 443.06L325.01 371.57Z" fill="#FF2015" stroke="black" stroke-width="3" stroke-miterlimit="10"/>
<path d="M319.4 367.74C318.45 367.24 317.3 367.54 316.63 368.38C312.02 374.2 302.09 378.23 290.59 378.23C279.09 378.23 269.16 374.2 264.55 368.38C263.88 367.54 262.73 367.24 261.78 367.74C236.3 381.17 218.48 411.86 218.48 447.59C218.48 463.57 222.05 478.55 228.27 491.43C229.72 494.42 232.73 496.33 236.05 496.33H345.13C348.45 496.33 351.47 494.42 352.91 491.43C359.14 478.55 362.7 463.58 362.7 447.59C362.7 411.86 344.88 381.17 319.39 367.74H319.4Z" fill="#FF2015" stroke="black" stroke-width="3" stroke-miterlimit="10"/>
<path d="M354.79 407.46H226.39C221.33 419.36 218.48 432.86 218.48 447.16C218.48 451.19 218.72 455.15 219.16 459.03H362.04C362.48 455.15 362.72 451.19 362.72 447.16C362.72 432.86 359.86 419.36 354.81 407.46H354.79Z" fill="white" stroke="black" stroke-width="3" stroke-miterlimit="10"/>
<path d="M262.81 429.76H264.09L267.67 438.07H265.98L265.21 436.17H261.6L260.85 438.07H259.2L262.81 429.76ZM264.69 434.9L263.41 431.52L262.11 434.9H264.7H264.69ZM272.53 438.07H273.81L277.17 429.76H275.57L273.24 436.04L270.97 429.76H269.27L272.53 438.07ZM282.45 429.76H283.73L287.31 438.07H285.62L284.85 436.17H281.24L280.49 438.07H278.84L282.45 429.76ZM284.33 434.9L283.05 431.52L281.75 434.9H284.34H284.33ZM290.59 438.07H295.6V436.73H292.07V429.76H290.59V438.07ZM301.71 429.76H302.99L306.57 438.07H304.88L304.11 436.17H300.5L299.75 438.07H298.1L301.71 429.76ZM303.59 434.9L302.31 431.52L301.01 434.9H303.6H303.59ZM309.84 438.07H311.32V431.7H311.34L315.45 438.07H317.33V429.76H315.85V435.94H315.83L311.81 429.76H309.85V438.07H309.84ZM328.39 430.86C327.98 430.38 327.52 430.04 327.04 429.85C326.56 429.65 326.04 429.55 325.48 429.55C324.84 429.55 324.25 429.66 323.71 429.87C323.18 430.07 322.72 430.37 322.33 430.75C321.95 431.13 321.65 431.6 321.43 432.15C321.21 432.69 321.1 433.29 321.1 433.96C321.1 434.63 321.21 435.2 321.43 435.73C321.65 436.26 321.95 436.72 322.33 437.1C322.72 437.48 323.18 437.77 323.71 437.98C324.25 438.18 324.84 438.28 325.48 438.28C326.12 438.28 326.67 438.16 327.2 437.93C327.74 437.7 328.2 437.32 328.57 436.8L327.35 435.93C327.08 436.28 326.78 436.54 326.46 436.7C326.15 436.86 325.82 436.93 325.49 436.93C325.06 436.93 324.67 436.85 324.32 436.7C323.98 436.54 323.68 436.33 323.43 436.06C323.18 435.79 322.98 435.46 322.84 435.09C322.7 434.71 322.64 434.3 322.64 433.86C322.64 433.45 322.71 433.06 322.84 432.7C322.98 432.34 323.18 432.03 323.43 431.76C323.68 431.49 323.98 431.28 324.32 431.13C324.67 430.97 325.07 430.9 325.49 430.9C325.78 430.9 326.06 430.96 326.35 431.06C326.64 431.17 326.94 431.39 327.24 431.72L328.4 430.89L328.39 430.86ZM331.92 438.07H333.4V434.41H337.29V438.07H338.77V429.76H337.29V433.07H333.4V429.76H331.92V438.07ZM342.97 438.07H348.69V436.73H344.45V434.48H348.27V433.14H344.45V431.1H348.48V429.76H342.97V438.07Z" fill="#FF2015"/>
<path fill-rule="evenodd" clip-rule="evenodd" d="M243.29 422.93C237.22 422.93 232.3 427.85 232.3 433.92C232.3 439.99 237.22 444.91 243.29 444.91C249.36 444.91 254.28 439.99 254.28 433.92C254.28 427.85 249.36 422.93 243.28 422.93H243.29ZM242.36 437.04C242.12 437.48 241.99 437.7 241.82 437.86C241.63 438.04 241.41 438.17 241.16 438.24C240.94 438.3 240.68 438.3 240.18 438.3H238.05C237.6 438.3 237.38 438.3 237.24 438.21C237.1 438.12 237 437.96 236.99 437.79C236.99 437.63 237.09 437.44 237.32 437.05L242.59 427.77C242.81 427.37 242.93 427.18 243.07 427.1C243.22 427.02 243.41 427.02 243.56 427.1C243.7 427.17 243.82 427.37 244.04 427.77L245.12 429.66C245.36 430.09 245.48 430.31 245.54 430.53C245.6 430.78 245.6 431.03 245.54 431.28C245.49 431.51 245.36 431.72 245.12 432.15L242.36 437.04ZM249.44 438.21C249.3 438.3 249.08 438.3 248.62 438.3H245.56C245.11 438.3 244.88 438.3 244.75 438.21C244.61 438.12 244.51 437.95 244.5 437.78C244.5 437.62 244.6 437.43 244.83 437.04L246.36 434.41C246.58 434.02 246.7 433.83 246.84 433.76C246.99 433.68 247.18 433.68 247.33 433.76C247.47 433.83 247.58 434.02 247.8 434.38L247.82 434.41L249.35 437.03C249.35 437.03 249.36 437.05 249.37 437.07C249.58 437.44 249.69 437.62 249.68 437.78C249.67 437.96 249.57 438.12 249.43 438.21H249.44Z" fill="#FF2015"/>
</g>
</g>
<defs>
<clipPath id="clip0_1626_223">
<rect width="600" height="600" fill="white"/>
</clipPath>
<clipPath id="clip1_1626_223">
<rect width="109" height="104" fill="white" transform="translate(116.003 417)"/>
</clipPath>
<clipPath id="clip2_1626_223">
<rect width="108" height="104" fill="white" transform="translate(352.003 417)"/>
</clipPath>
<clipPath id="clip3_1626_223">
<rect width="187.19" height="131.83" fill="white" transform="translate(197 366)"/>
</clipPath>
</defs>
</svg>
