<svg width="600" height="600" viewBox="0 0 600 600" fill="none" xmlns="http://www.w3.org/2000/svg">
<g clip-path="url(#clip0_1369_1713)">
<path d="M382.178 477.038C369.349 459.821 371.332 437.174 371.332 437.174C371.332 437.174 389.164 416.546 396.375 414.632L414.282 389.352C414.282 389.352 429.815 385.702 438.513 388.41C444.973 390.414 456.885 406.046 451.312 417.309C452.499 419.448 453.175 421.483 452.965 423.188C452.319 428.378 449.87 434.825 448.277 438.58C448.683 443.008 447.767 448.318 444.612 454.57C433.781 476.006 413.335 469.334 407.026 466.627L405.569 467.016C406.65 471.039 404.607 475.362 400.611 477.008C398.283 477.965 395.233 479.012 391.237 480.104C387.887 481.017 384.267 479.85 382.194 477.068L382.178 477.038Z" fill="white"/>
<path d="M380.601 478.205C372.293 466.283 369.274 451.399 370.235 437.054C370.25 436.815 370.356 436.605 370.491 436.441C376.154 430.039 381.968 423.801 388.518 418.267C390.876 416.397 393.085 414.572 396.074 413.555L395.458 413.988L413.846 389.053C413.921 388.948 414.026 388.888 414.146 388.858C422.724 386.465 436.545 383.144 443.876 389.756C451.357 396.442 457.246 408.065 452.273 417.773C452.273 417.788 452.243 416.756 452.243 416.756C453.43 418.79 454.542 421.497 453.971 424.115C453.16 429.276 451.342 434.257 449.254 438.999L449.329 438.475C451.117 449.051 445.738 460.329 437.311 466.881C428.508 473.612 415.874 472.52 406.56 467.644H406.53L407.251 467.704C407.236 467.704 405.809 468.093 405.794 468.093L406.575 466.746C408.107 471.189 405.734 476.574 401.347 478.519C398.808 479.685 396.254 480.598 393.61 481.465C388.968 483.41 383.575 482.483 380.571 478.249L380.601 478.205ZM383.756 475.871C385.333 477.905 388.157 478.728 390.636 478.13C392.514 477.651 394.527 477.187 396.344 476.604C398.598 475.826 401.077 475.407 402.714 473.567C404.231 471.937 404.952 469.499 404.472 467.195C404.351 466.612 404.727 466.058 405.298 465.924C405.764 465.819 406.89 465.385 407.326 465.565C418.037 469.334 430.851 469.065 438.483 459.791C443.29 453.733 446.91 446.343 447.181 438.52C448.728 434.077 450.531 429.695 451.447 425.087C451.612 424.265 451.793 423.382 451.823 422.545C451.823 421.049 451.162 419.373 450.335 417.818C450.185 417.548 450.17 417.249 450.26 416.98C453.64 408.185 448.097 398.312 441.652 392.314C438.332 389.053 433.435 388.918 428.928 388.799C424.136 388.799 419.239 389.188 414.386 389.816C415.708 388.47 396.93 415.559 397.276 415.245C397.126 415.469 396.9 415.589 396.66 415.679C391.838 417.593 387.586 422.021 383.741 425.611C379.745 429.545 375.884 433.659 372.173 437.877L372.429 437.264C372.083 450.801 375.478 464.966 383.756 475.871Z" fill="#231F20"/>
<path d="M411.442 400.526C413.305 393.72 412.599 387.781 408.888 384.281C401.482 377.311 387.361 385.164 374.277 398.955C361.192 412.732 354.101 427.212 361.508 434.197C365.654 438.101 372.684 438.086 380.361 434.915" fill="white"/>
<path d="M410.601 400.302C412.899 390.968 409.084 380.422 397.742 384.371C384.447 388.784 362.709 411.371 360.877 425.417C359.825 436.381 372.309 436.531 380.045 434.107C380.511 433.988 380.992 434.272 381.127 434.736C381.232 435.125 381.052 435.528 380.706 435.723C378.483 436.994 376.064 437.982 373.48 438.58C358.713 441.766 352.554 429.53 358.638 417.19C365.098 403.323 381.848 385.433 396.63 380.691C405.899 377.685 414.041 383.339 413.726 393.166C413.651 395.814 413.125 398.357 412.299 400.75C412.148 401.214 411.638 401.453 411.187 401.289C410.766 401.139 410.526 400.705 410.616 400.287L410.601 400.302Z" fill="#231F20"/>
<path d="M397.081 394.857C397.081 394.857 392.318 415.155 371.843 421.453L397.081 394.857Z" fill="#564240"/>
<path d="M397.877 395.036C396.284 408.215 385.543 420.48 372.098 422.275C371.107 422.425 370.686 421.034 371.587 420.615C382.689 415.065 391.177 405.896 396.284 394.677C396.615 393.795 397.982 394.109 397.877 395.051V395.036Z" fill="#231F20"/>
<path d="M447.226 448.004C447.226 448.004 453.039 434.571 429.259 425.132L447.226 448.004Z" fill="white"/>
<path d="M445.153 447.121C447.166 441.407 443.215 435.708 438.753 432.267C436.695 430.742 434.517 429.381 432.233 428.214L428.688 426.553L428.583 426.509C426.825 425.656 427.997 423.008 429.815 423.726C440.18 427.451 453.265 436.172 449.299 448.901C448.127 451.758 443.891 449.933 445.168 447.121H445.153Z" fill="#231F20"/>
<path d="M405.554 467.001C405.554 467.001 405.674 463.874 403.03 459.327L405.554 467.001Z" fill="#564240"/>
<path d="M405.554 467.001C405.554 467.001 405.674 463.874 403.03 459.327" stroke="#231F20" stroke-width="3" stroke-linecap="round" stroke-linejoin="round"/>
<path d="M413.065 443.621C413.065 443.621 408.213 457.637 394.422 463.261L413.065 443.621Z" fill="#564240"/>
<path d="M413.966 443.935C411.923 453.329 404.592 462.394 394.812 464.233C394.226 464.338 393.671 463.949 393.565 463.366C393.49 462.932 393.686 462.528 394.016 462.289C396.75 460.195 399.274 458.355 401.738 456.081C405.794 452.357 409.204 447.959 412.148 443.307C412.659 442.349 414.176 442.873 413.966 443.935Z" fill="#231F20"/>
<path d="M406.124 455.273C406.124 455.273 414.386 457.697 419.374 454.63L406.124 455.273Z" fill="#564240"/>
<path d="M406.77 453.119C410.466 454.436 415.123 455.363 418.818 453.733C419.359 453.448 420.035 453.673 420.305 454.226C421.132 456.515 414.371 457.786 412.854 457.846C410.33 458.026 408.017 457.906 405.493 457.442C404.261 457.203 403.465 456.021 403.721 454.795C403.976 453.434 405.478 452.611 406.77 453.134V453.119Z" fill="#231F20"/>
<path d="M452.949 423.173C452.949 423.173 451.928 415.499 438.362 406.853L452.949 423.173Z" fill="#564240"/>
<path d="M450.711 423.472C450.08 420.316 448.007 417.474 445.844 415.021C443.56 412.403 440.526 409.935 437.686 407.9C436.379 407.018 437.671 405.013 439.023 405.836C440.27 406.554 442.689 408.11 443.861 408.933C448.638 412.508 453.595 416.89 455.188 422.904C455.518 425.835 451.162 426.419 450.726 423.487L450.711 423.472Z" fill="#231F20"/>
<path d="M362.89 374.962C349.069 371.552 334.767 371.896 321.788 376.264C316.59 378.014 311.813 380.467 307.592 383.488L332.063 411.58C332.544 411.371 333.055 411.176 333.581 410.997C343.901 407.511 357.466 409.77 368.132 416.726C376.65 422.275 384.958 417.354 390.531 408.888C396.104 400.421 396.825 391.596 388.308 386.046C380.346 380.856 371.723 377.131 362.875 374.947L362.89 374.962Z" fill="#CECECE" stroke="black" stroke-width="2" stroke-miterlimit="10" stroke-linecap="round"/>
<path d="M189.59 477.038C202.419 459.821 200.436 437.174 200.436 437.174C200.436 437.174 182.604 416.546 175.393 414.632L157.487 389.352C157.487 389.352 141.953 385.702 133.255 388.41C126.796 390.414 114.883 406.046 120.456 417.309C119.269 419.448 118.593 421.483 118.804 423.188C119.45 428.378 121.898 434.825 123.491 438.58C123.085 443.008 124.001 448.318 127.156 454.57C137.987 476.006 158.433 469.334 164.742 466.627L166.2 467.016C165.118 471.039 167.161 475.362 171.157 477.008C173.486 477.965 176.535 479.012 180.531 480.104C183.881 481.017 187.502 479.85 189.575 477.068L189.59 477.038Z" fill="white"/>
<path d="M188.013 475.871C196.29 464.966 199.685 450.786 199.34 437.264L199.595 437.877C195.899 433.659 192.039 429.53 188.028 425.611C184.182 422.021 179.93 417.593 175.108 415.679C174.853 415.604 174.628 415.454 174.492 415.245C174.793 415.544 156.105 388.529 157.382 389.816C152.529 389.188 147.632 388.799 142.84 388.799C138.333 388.918 133.436 389.053 130.116 392.314C123.731 398.267 118.188 408.05 121.463 416.801C121.598 417.13 121.598 417.519 121.433 417.818C120.396 419.807 119.63 421.722 120.081 423.756C120.892 428.857 122.89 433.644 124.588 438.505C124.843 446.328 128.478 453.733 133.286 459.776C140.917 469.065 153.716 469.319 164.442 465.55C164.923 465.385 166.005 465.819 166.47 465.909C167.041 466.043 167.402 466.612 167.297 467.18C166.816 469.499 167.537 471.937 169.054 473.552C170.707 475.392 173.17 475.811 175.424 476.589C177.241 477.157 179.269 477.651 181.132 478.115C183.611 478.698 186.435 477.875 188.013 475.856V475.871ZM191.167 478.204C188.148 482.438 182.785 483.38 178.128 481.421C175.499 480.553 172.945 479.655 170.391 478.474C165.99 476.529 163.631 471.144 165.163 466.702C165.148 466.702 166.005 468.093 165.914 468.033L164.487 467.659L165.208 467.599H165.178C155.879 472.49 143.23 473.597 134.427 466.851C126 460.314 120.637 449.021 122.409 438.445L122.484 438.969C120.396 434.227 118.579 429.246 117.767 424.085C117.212 421.483 118.308 418.76 119.495 416.726C119.495 416.726 119.48 417.758 119.465 417.743C114.492 408.035 120.396 396.427 127.862 389.726C135.178 383.114 149.044 386.45 157.592 388.829C157.712 388.858 157.817 388.933 157.892 389.023L176.28 413.958L175.664 413.525C178.654 414.542 180.862 416.367 183.22 418.237C189.77 423.771 195.584 430.009 201.247 436.411C201.398 436.59 201.488 436.8 201.503 437.024C202.464 451.354 199.445 466.238 191.137 478.175L191.167 478.204Z" fill="#231F20"/>
<path d="M160.326 400.526C158.463 393.72 159.17 387.781 162.88 384.281C170.286 377.311 184.407 385.164 197.492 398.955C210.576 412.732 217.667 427.212 210.261 434.197C206.115 438.101 199.084 438.086 191.408 434.915" fill="white"/>
<path d="M159.485 400.765C154.993 389.008 161.303 376.593 175.168 380.706C189.109 385.373 201.292 398.522 209.45 410.368C213.551 417.055 218.133 425.761 213.731 433.524C210.696 438.7 203.651 440.001 198.318 438.58C195.719 437.982 193.315 436.994 191.092 435.723C190.671 435.484 190.521 434.945 190.762 434.526C190.972 434.167 191.378 434.018 191.768 434.122C210.997 439.343 215.924 428.049 205.709 412.762C198.348 402.007 188.899 391.82 177.271 385.642C164.683 379.39 158.493 388.125 161.197 400.302C161.423 401.364 159.845 401.767 159.515 400.765H159.485Z" fill="#231F20"/>
<path d="M174.688 394.857C174.688 394.857 179.45 415.155 199.925 421.453L174.688 394.857Z" fill="#564240"/>
<path d="M175.484 394.677C180.607 405.911 189.094 415.065 200.196 420.615C200.662 420.839 200.842 421.408 200.571 421.857C200.376 422.171 200.016 422.335 199.67 422.275C186.225 420.48 175.484 408.229 173.892 395.036C173.801 394.094 175.153 393.78 175.484 394.662V394.677Z" fill="#231F20"/>
<path d="M124.542 448.004C124.542 448.004 118.729 434.571 142.509 425.132L124.542 448.004Z" fill="white"/>
<path d="M122.484 448.901C118.518 436.157 131.603 427.451 141.969 423.726C142.75 423.397 143.636 423.771 143.967 424.549C144.297 425.342 143.891 426.239 143.11 426.553L139.565 428.214C137.267 429.381 135.088 430.742 133.045 432.267C128.584 435.708 124.618 441.407 126.646 447.121C127.923 449.918 123.671 451.758 122.514 448.901H122.484Z" fill="#231F20"/>
<path d="M166.215 467.001C166.215 467.001 166.095 463.874 168.738 459.327L166.215 467.001Z" fill="#564240"/>
<path d="M166.215 467.001C166.215 467.001 166.095 463.874 168.738 459.327" stroke="#231F20" stroke-width="3" stroke-linecap="round" stroke-linejoin="round"/>
<path d="M158.704 443.621C158.704 443.621 163.556 457.637 177.347 463.261L158.704 443.621Z" fill="#564240"/>
<path d="M159.62 443.307C164.262 450.98 170.527 457.143 177.827 462.334C178.293 462.708 178.353 463.381 177.978 463.845C177.722 464.159 177.332 464.278 176.956 464.218C174.538 463.8 172.164 462.902 170.076 461.571C167.958 460.284 166.065 458.639 164.457 456.784C161.198 453.104 158.764 448.781 157.818 443.92C157.622 442.843 159.14 442.334 159.635 443.292L159.62 443.307Z" fill="#231F20"/>
<path d="M165.644 455.273C165.644 455.273 157.382 457.697 152.394 454.63L165.644 455.273Z" fill="#564240"/>
<path d="M166.275 457.427C163.751 457.891 161.438 458.026 158.914 457.831C157.442 457.786 150.216 456.41 151.568 454.047C151.884 453.598 152.484 453.478 152.95 453.718C156.646 455.363 161.303 454.421 164.998 453.104C168.063 452.027 169.445 456.65 166.275 457.412V457.427Z" fill="#231F20"/>
<path d="M118.819 423.173C118.819 423.173 119.84 415.499 133.406 406.853L118.819 423.173Z" fill="#564240"/>
<path d="M116.596 422.874C118.503 415.933 124.588 411.131 130.311 407.302L132.76 405.821C133.346 405.462 134.097 405.657 134.457 406.225C134.803 406.793 134.638 407.526 134.097 407.885L131.889 409.516C127.802 412.777 123.746 416.606 121.673 421.453C121.418 422.066 121.132 422.904 121.057 423.472C120.622 426.389 116.25 425.82 116.596 422.889V422.874Z" fill="#231F20"/>
<path d="M208.879 374.962C222.699 371.552 237.001 371.896 249.98 376.264C255.178 378.014 259.955 380.467 264.177 383.488L239.705 411.58C239.224 411.371 238.713 411.176 238.188 410.997C227.867 407.511 214.302 409.77 203.636 416.726C195.118 422.275 186.811 417.354 181.237 408.888C175.664 400.421 174.943 391.596 183.461 386.046C191.423 380.856 200.046 377.131 208.894 374.947L208.879 374.962Z" fill="#CECECE" stroke="black" stroke-width="2" stroke-miterlimit="10" stroke-linecap="round"/>
<path d="M231.578 456.874L240.005 503.05C231.953 498.847 221.858 495.96 209.284 495.96C177.962 495.96 163.796 513.88 157.907 525.443C155.669 529.841 158.914 535.046 163.871 535.046H268.473L282.819 479.506L231.578 456.889V456.874Z" fill="#CECECE" stroke="black" stroke-width="2" stroke-miterlimit="10" stroke-linecap="round"/>
<path d="M421.222 525.443C415.333 513.865 401.167 495.96 369.845 495.96C356.46 495.96 345.869 499.251 337.576 503.903L344.382 444.907L296.31 479.491L310.656 535.031H415.258C420.215 535.031 423.46 529.841 421.222 525.428V525.443Z" fill="#CECECE" stroke="black" stroke-width="2" stroke-miterlimit="10" stroke-linecap="round"/>
<path d="M311.257 487.12C303.581 490.919 295.093 493.043 286.17 493.043C279.815 493.043 273.671 491.966 267.887 489.977" fill="#CECECE"/>
<path d="M311.257 487.12C303.581 490.919 295.093 493.043 286.17 493.043C279.815 493.043 273.671 491.966 267.887 489.977" stroke="black" stroke-width="2" stroke-miterlimit="10" stroke-linecap="round"/>
<path d="M242.123 472.535C230.676 459.701 223.585 441.916 223.585 422.245C223.585 383.144 251.602 351.463 286.169 351.463C320.736 351.463 348.753 383.159 348.753 422.245C348.753 436.635 344.952 450.008 338.447 461.182" fill="#CECECE"/>
<path d="M242.123 472.535C230.676 459.701 223.585 441.916 223.585 422.245C223.585 383.144 251.602 351.463 286.169 351.463C320.736 351.463 348.753 383.159 348.753 422.245C348.753 436.635 344.952 450.008 338.447 461.182" stroke="black" stroke-width="2" stroke-miterlimit="10" stroke-linecap="round"/>
<path d="M286.169 489.977C308.338 489.977 326.31 479.616 326.31 466.836C326.31 454.056 308.338 443.696 286.169 443.696C264.001 443.696 246.029 454.056 246.029 466.836C246.029 479.616 264.001 489.977 286.169 489.977Z" fill="#CECECE"/>
<path d="M234.597 500.582C234.597 500.582 239.945 501.18 246.029 508.54" stroke="#221F20" stroke-width="2" stroke-miterlimit="10" stroke-linecap="round"/>
<path d="M340.281 502.482C340.281 502.482 334.782 505.234 332.229 509.811" stroke="#221F20" stroke-width="2" stroke-miterlimit="10" stroke-linecap="round"/>
<path d="M286.437 391.868L286.437 448.564" stroke="black" stroke-width="2" stroke-miterlimit="10" stroke-linecap="round"/>
<path d="M337.576 503.903C337.576 503.903 336.284 501.689 327.571 503.05" stroke="#231F20" stroke-width="2" stroke-linecap="round" stroke-linejoin="round"/>
<path d="M231.578 460.808L234.973 472.161" stroke="#231F20" stroke-width="2" stroke-linecap="round" stroke-linejoin="round"/>
<path d="M195.133 495.466C195.133 495.466 204.973 494.03 208.323 509.557H217.922C217.922 509.557 220.807 491.413 195.133 495.466Z" fill="#A68167" stroke="#231F20" stroke-width="3" stroke-linecap="round" stroke-linejoin="round"/>
<path d="M215.564 494.644C215.564 494.644 225.494 494.225 227.221 510.021L236.761 511.008C236.761 511.008 241.508 493.253 215.564 494.644Z" fill="#A68167" stroke="#231F20" stroke-width="3" stroke-linecap="round" stroke-linejoin="round"/>
<path d="M380.195 496.11C380.195 496.11 370.356 494.674 367.006 510.2H357.406C357.406 510.2 354.522 492.056 380.195 496.11Z" fill="#A68167" stroke="#231F20" stroke-width="3" stroke-linecap="round" stroke-linejoin="round"/>
<path d="M359.765 495.287C359.765 495.287 349.835 494.868 348.107 510.664L338.568 511.651C338.568 511.651 333.821 493.896 359.765 495.287Z" fill="#A68167" stroke="#231F20" stroke-width="3" stroke-linecap="round" stroke-linejoin="round"/>
<path d="M157.036 534.567H171.022V546.504H159.605C158.193 546.504 157.036 545.352 157.036 543.946V534.567Z" fill="#E8A36E" stroke="black" stroke-width="2" stroke-miterlimit="10" stroke-linecap="round"/>
<path d="M185.023 534.567H171.037V546.504H185.023V534.567Z" fill="#E8A36E" stroke="black" stroke-width="2" stroke-miterlimit="10" stroke-linecap="round"/>
<path d="M199.009 534.567H185.023V546.504H199.009V534.567Z" fill="#E8A36E" stroke="black" stroke-width="2" stroke-miterlimit="10" stroke-linecap="round"/>
<path d="M212.995 534.567H199.009V546.504H212.995V534.567Z" fill="#E8A36E" stroke="black" stroke-width="2" stroke-miterlimit="10" stroke-linecap="round"/>
<path d="M226.981 534.567H212.995V546.504H226.981V534.567Z" fill="#E8A36E" stroke="black" stroke-width="2" stroke-miterlimit="10" stroke-linecap="round"/>
<path d="M240.967 534.567H226.981V546.504H240.967V534.567Z" fill="#E8A36E" stroke="black" stroke-width="2" stroke-miterlimit="10" stroke-linecap="round"/>
<path d="M254.953 534.567H240.967V546.504H254.953V534.567Z" fill="#E8A36E" stroke="black" stroke-width="2" stroke-miterlimit="10" stroke-linecap="round"/>
<path d="M254.953 534.567H268.939V543.946C268.939 545.352 267.782 546.504 266.37 546.504H254.953V534.567Z" fill="#E8A36E" stroke="black" stroke-width="2" stroke-miterlimit="10" stroke-linecap="round"/>
<path d="M311.122 534.567H325.108V546.504H313.691C312.279 546.504 311.122 545.352 311.122 543.946V534.567Z" fill="#E8A36E" stroke="black" stroke-width="2" stroke-miterlimit="10" stroke-linecap="round"/>
<path d="M339.094 534.567H325.108V546.504H339.094V534.567Z" fill="#E8A36E" stroke="black" stroke-width="2" stroke-miterlimit="10" stroke-linecap="round"/>
<path d="M353.08 534.567H339.094V546.504H353.08V534.567Z" fill="#E8A36E" stroke="black" stroke-width="2" stroke-miterlimit="10" stroke-linecap="round"/>
<path d="M367.066 534.567H353.08V546.504H367.066V534.567Z" fill="#E8A36E" stroke="black" stroke-width="2" stroke-miterlimit="10" stroke-linecap="round"/>
<path d="M381.052 534.567H367.066V546.504H381.052V534.567Z" fill="#E8A36E" stroke="black" stroke-width="2" stroke-miterlimit="10" stroke-linecap="round"/>
<path d="M395.038 534.567H381.052V546.504H395.038V534.567Z" fill="#E8A36E" stroke="black" stroke-width="2" stroke-miterlimit="10" stroke-linecap="round"/>
<path d="M409.039 534.567H395.053V546.504H409.039V534.567Z" fill="#E8A36E" stroke="black" stroke-width="2" stroke-miterlimit="10" stroke-linecap="round"/>
<path d="M409.039 534.567H423.025V543.946C423.025 545.352 421.868 546.504 420.456 546.504H409.039V534.567Z" fill="#E8A36E" stroke="black" stroke-width="2" stroke-miterlimit="10" stroke-linecap="round"/>
<path d="M298.7 439.866C302.093 439.866 304.844 437.127 304.844 433.748C304.844 430.369 302.093 427.63 298.7 427.63C295.307 427.63 292.556 430.369 292.556 433.748C292.556 437.127 295.307 439.866 298.7 439.866Z" fill="#FFC400" stroke="black" stroke-width="2" stroke-miterlimit="10" stroke-linecap="round"/>
<path d="M298.7 417.187C302.093 417.187 304.844 414.448 304.844 411.069C304.844 407.691 302.093 404.952 298.7 404.952C295.307 404.952 292.556 407.691 292.556 411.069C292.556 414.448 295.307 417.187 298.7 417.187Z" fill="#FFC400" stroke="black" stroke-width="2" stroke-miterlimit="10" stroke-linecap="round"/>
<path d="M256.993 411.057L243.609 370.934L286.437 391.441L256.993 411.057Z" fill="#CECECE" stroke="black" stroke-width="2" stroke-linejoin="round"/>
<path d="M315.881 411.057L329.265 370.934L286.437 391.441L315.881 411.057Z" fill="#CECECE" stroke="black" stroke-width="2" stroke-linejoin="round"/>
</g>
<defs>
<clipPath id="clip0_1369_1713">
<rect width="600" height="600" fill="white"/>
</clipPath>
</defs>
</svg>
