<svg width="151" height="144" viewBox="0 0 151 144" fill="none" xmlns="http://www.w3.org/2000/svg">
<path d="M9.21997 55.9291C9.21997 55.9291 11.4726 53.9916 9.09021 45.0972" stroke="#231F20" stroke-width="2" stroke-linecap="round" stroke-linejoin="round"/>
<path d="M91.0367 136.205C83.4117 139.991 74.981 142.108 66.1175 142.108C59.8057 142.108 53.7027 141.035 47.9579 139.052" fill="#FFC500"/>
<path d="M91.0367 136.205C83.4117 139.991 74.981 142.108 66.1175 142.108C59.8057 142.108 53.7027 141.035 47.9579 139.052" stroke="#221F20" stroke-width="2" stroke-miterlimit="10" stroke-linecap="round"/>
<path d="M22.3523 121.656C10.982 108.866 3.93896 91.1416 3.93896 71.5391C3.93896 32.5727 31.7678 1 66.1026 1C100.437 1 128.266 32.5876 128.266 71.5391C128.266 85.8795 124.491 99.2062 118.03 110.342" fill="#FFC500"/>
<path d="M22.3523 121.656C10.982 108.866 3.93896 91.1416 3.93896 71.5391C3.93896 32.5727 31.7678 1 66.1026 1C100.437 1 128.266 32.5876 128.266 71.5391C128.266 85.8795 124.491 99.2062 118.03 110.342" stroke="#221F20" stroke-width="2" stroke-miterlimit="10" stroke-linecap="round"/>
<path d="M66.1175 139.037C88.1374 139.037 105.988 128.713 105.988 115.976C105.988 103.24 88.1374 92.9155 66.1175 92.9155C44.0975 92.9155 26.2468 103.24 26.2468 115.976C26.2468 128.713 44.0975 139.037 66.1175 139.037Z" fill="#FFC500"/>
<path d="M66.1174 17.1292V98.0434" stroke="#221F20" stroke-width="2" stroke-miterlimit="10" stroke-linecap="round"/>
<path d="M3.78698 100.781C16.8434 96.6223 59.1762 85.0994 125.384 86.0534C127.756 86.0832 129.577 88.1851 129.308 90.5404L126.503 114.197C126.264 116.225 124.533 117.745 122.489 117.73C109.343 117.626 61.9814 118.163 13.307 130.207C11.1583 130.744 8.97972 129.447 8.44254 127.301C5.98047 117.552 3.14535 110.322 1.33983 106.207C0.384843 104.031 1.51889 101.512 3.78698 100.796V100.781Z" fill="#7BE100" stroke="#221F20" stroke-width="2" stroke-miterlimit="10"/>
<path d="M83.5433 115.241C77.0971 115.241 71.8596 110.009 71.8596 103.569C71.8596 97.1292 77.0971 91.8969 83.5433 91.8969C89.9894 91.8969 95.2269 97.1292 95.2269 103.569C95.2269 110.009 89.9894 115.241 83.5433 115.241ZM83.5433 98.7838C80.9021 98.7838 78.7534 100.93 78.7534 103.569C78.7534 106.207 80.9021 108.354 83.5433 108.354C86.1844 108.354 88.3331 106.207 88.3331 103.569C88.3331 100.93 86.1844 98.7838 83.5433 98.7838Z" fill="#7BE100" stroke="#221F20" stroke-width="2" stroke-miterlimit="10"/>
<path d="M111.357 112.513C104.911 112.513 99.6736 107.281 99.6736 100.841C99.6736 94.4012 104.911 89.1689 111.357 89.1689C117.803 89.1689 123.041 94.4012 123.041 100.841C123.041 107.281 117.803 112.513 111.357 112.513ZM111.357 96.0559C108.716 96.0559 106.567 98.2025 106.567 100.841C106.567 103.479 108.716 105.626 111.357 105.626C113.998 105.626 116.147 103.479 116.147 100.841C116.147 98.2025 113.998 96.0559 111.357 96.0559Z" fill="#7BE100" stroke="#221F20" stroke-width="2" stroke-miterlimit="10"/>
<path d="M70.9195 129L48.5072 131.46C40.36 132.354 33.0185 126.466 32.1232 118.327L30.2431 101.214C29.3478 93.0745 35.2418 85.7254 43.3891 84.8459L65.8014 82.3863C73.9486 81.4919 81.2901 87.3801 82.1854 95.5192L84.0655 112.632C84.9608 120.771 79.0667 128.106 70.9195 129ZM44.8812 98.5304C44.2993 98.5901 43.8666 99.1267 43.9262 99.723L45.8064 116.836C45.8661 117.417 46.4032 117.85 46.9852 117.79L69.3975 115.33C69.9794 115.271 70.4122 114.734 70.3525 114.153L68.4724 97.0398C68.4127 96.4435 67.8755 96.0261 67.2936 96.0857L44.8812 98.5453V98.5304Z" fill="white" stroke="#221F20" stroke-width="2" stroke-miterlimit="10"/>
<path d="M82.5031 99.0166L68.323 100.571C65.6935 100.859 63.7956 103.222 64.0841 105.849L64.0857 105.864C64.3741 108.491 66.7397 110.387 69.3692 110.098L83.5493 108.545C86.1789 108.256 88.0767 105.893 87.7883 103.266L87.7867 103.251C87.4982 100.624 85.1327 98.7284 82.5031 99.0166Z" fill="white" stroke="#221F20" stroke-width="2" stroke-miterlimit="10"/>
<path d="M140.35 82.9379H126.652C124.006 82.9379 121.862 85.0803 121.862 87.723V117.641C121.862 120.284 124.006 122.426 126.652 122.426H140.35C142.995 122.426 145.14 120.284 145.14 117.641V87.723C145.14 85.0803 142.995 82.9379 140.35 82.9379Z" fill="#7BE100" stroke="#221F20" stroke-width="2" stroke-miterlimit="10"/>
<path d="M125.801 81H144.304C146.945 81 149.094 83.1466 149.094 85.7851V97.9491C149.094 98.7987 148.408 99.4845 147.557 99.4845H122.578C121.728 99.4845 121.041 98.7987 121.041 97.9491V85.7851C121.041 83.1466 123.19 81 125.831 81H125.801Z" fill="#7BE100" stroke="#221F20" stroke-width="2" stroke-miterlimit="10"/>
<path d="M134.963 102.227C136.867 102.227 138.41 100.686 138.41 98.7838C138.41 96.882 136.867 95.3403 134.963 95.3403C133.06 95.3403 131.516 96.882 131.516 98.7838C131.516 100.686 133.06 102.227 134.963 102.227Z" fill="#FFC500" stroke="#221F20" stroke-width="2" stroke-miterlimit="10"/>
</svg>
