<?xml version="1.0" encoding="UTF-8"?>
<svg xmlns="http://www.w3.org/2000/svg" viewBox="0 0 600 600">
  <defs>
    <style>
      .cls-1, .cls-2, .cls-3 {
        stroke-width: 0px;
      }

      .cls-2 {
        opacity: 0;
      }

      .cls-2, .cls-3 {
        fill: #fff;
      }
    </style>
  </defs>
  <g id="bg">
    <rect class="cls-2" width="600.22" height="600.22"/>
  </g>
  <g id="ear-wear-1">
    <g>
      <path class="cls-3" d="m179,453.81c-10.19,0-20.45-12.02-23.87-27.95-1.88-8.77-1.44-17.45,1.23-24.42,2.48-6.46,6.57-10.6,11.52-11.66.83-.18,1.69-.27,2.55-.27,10.19,0,20.45,12.02,23.87,27.95,3.71,17.28-2.14,33.8-12.75,36.08-.83.18-1.69.27-2.55.27Z"/>
      <path class="cls-1" d="m170.44,386v7.01c7.39,0,17.06,9.42,20.44,25.18,1.72,8,1.32,16.18-1.08,22.43-1.18,3.08-3.92,8.4-8.98,9.49-.59.13-1.2.19-1.82.19-7.39,0-17.06-9.42-20.44-25.18-1.72-8-1.32-16.18,1.08-22.43,1.18-3.08,3.92-8.4,8.98-9.49.59-.13,1.2-.19,1.82-.19v-7.01m0,0c-1.1,0-2.2.11-3.29.35-12.71,2.73-19.63,20.74-15.45,40.25,3.82,17.83,15.6,30.72,27.3,30.72,1.1,0,2.2-.11,3.29-.35,12.71-2.73,19.63-20.74,15.45-40.25-3.82-17.83-15.6-30.72-27.3-30.72h0Z"/>
    </g>
  </g>
</svg>