<svg width="600" height="600" viewBox="0 0 600 600" fill="none" xmlns="http://www.w3.org/2000/svg">
<g clip-path="url(#clip0_1207_992)">
<path d="M284.099 432.623C356.287 429.147 412.452 377.738 409.548 317.798C406.643 257.858 345.769 212.085 273.58 215.56C201.392 219.036 145.227 270.445 148.131 330.385C151.036 390.326 211.91 436.099 284.099 432.623Z" fill="#37324C" stroke="#231F20" stroke-width="2" stroke-miterlimit="10"/>
<path d="M307.515 413.341C235.324 416.819 174.455 371.052 171.534 311.107C170.125 282.047 182.637 255.001 204.099 234.439C168.851 255.491 146.509 290.322 148.369 328.681C151.275 388.624 212.158 434.393 284.349 430.916C321.523 429.128 354.43 414.6 377.231 392.758C357.401 404.605 333.51 412.086 307.515 413.341V413.341Z" fill="#28253A"/>
<path d="M226.891 388.908C240.843 388.236 251.234 368.712 250.1 345.3C248.965 321.888 236.735 303.454 222.783 304.126C208.831 304.798 198.44 324.321 199.575 347.733C200.709 371.145 212.939 389.58 226.891 388.908Z" fill="white" stroke="#221F20" stroke-width="2" stroke-miterlimit="10"/>
<path d="M336.813 383.596C350.765 382.924 361.156 363.401 360.022 339.989C358.887 316.577 346.657 298.142 332.705 298.814C318.753 299.486 308.363 319.01 309.497 342.422C310.631 365.834 322.861 384.268 336.813 383.596Z" fill="white" stroke="#221F20" stroke-width="2" stroke-miterlimit="10"/>
</g>
<defs>
<clipPath id="clip0_1207_992">
<rect width="600" height="600" fill="white"/>
</clipPath>
</defs>
</svg>
